<?xml version="1.0" encoding="utf-8"?>
<svg xmlns="http://www.w3.org/2000/svg" xmlns:xlink="http://www.w3.org/1999/xlink" width="600" height="400" viewBox="0 0 2400 1600">
<defs>
  <clipPath id="clip550">
    <rect x="0" y="0" width="2400" height="1600"/>
  </clipPath>
</defs>
<path clip-path="url(#clip550)" d="
M0 1600 L2400 1600 L2400 0 L0 0  Z
  " fill="#ffffff" fill-rule="evenodd" fill-opacity="1"/>
<defs>
  <clipPath id="clip551">
    <rect x="480" y="0" width="1681" height="1600"/>
  </clipPath>
</defs>
<path clip-path="url(#clip550)" d="
M232.389 1423.18 L2352.76 1423.18 L2352.76 123.472 L232.389 123.472  Z
  " fill="#ffffff" fill-rule="evenodd" fill-opacity="1"/>
<defs>
  <clipPath id="clip552">
    <rect x="232" y="123" width="2121" height="1301"/>
  </clipPath>
</defs>
<polyline clip-path="url(#clip552)" style="stroke:#000000; stroke-linecap:butt; stroke-linejoin:round; stroke-width:2; stroke-opacity:0.1; fill:none" points="
  474.821,1423.18 474.821,123.472 
  "/>
<polyline clip-path="url(#clip552)" style="stroke:#000000; stroke-linecap:butt; stroke-linejoin:round; stroke-width:2; stroke-opacity:0.1; fill:none" points="
  852.245,1423.18 852.245,123.472 
  "/>
<polyline clip-path="url(#clip552)" style="stroke:#000000; stroke-linecap:butt; stroke-linejoin:round; stroke-width:2; stroke-opacity:0.1; fill:none" points="
  1229.67,1423.18 1229.67,123.472 
  "/>
<polyline clip-path="url(#clip552)" style="stroke:#000000; stroke-linecap:butt; stroke-linejoin:round; stroke-width:2; stroke-opacity:0.1; fill:none" points="
  1607.09,1423.18 1607.09,123.472 
  "/>
<polyline clip-path="url(#clip552)" style="stroke:#000000; stroke-linecap:butt; stroke-linejoin:round; stroke-width:2; stroke-opacity:0.1; fill:none" points="
  1984.52,1423.18 1984.52,123.472 
  "/>
<polyline clip-path="url(#clip550)" style="stroke:#000000; stroke-linecap:butt; stroke-linejoin:round; stroke-width:4; stroke-opacity:1; fill:none" points="
  232.389,1423.18 2352.76,1423.18 
  "/>
<polyline clip-path="url(#clip550)" style="stroke:#000000; stroke-linecap:butt; stroke-linejoin:round; stroke-width:4; stroke-opacity:1; fill:none" points="
  474.821,1423.18 474.821,1404.28 
  "/>
<polyline clip-path="url(#clip550)" style="stroke:#000000; stroke-linecap:butt; stroke-linejoin:round; stroke-width:4; stroke-opacity:1; fill:none" points="
  852.245,1423.18 852.245,1404.28 
  "/>
<polyline clip-path="url(#clip550)" style="stroke:#000000; stroke-linecap:butt; stroke-linejoin:round; stroke-width:4; stroke-opacity:1; fill:none" points="
  1229.67,1423.18 1229.67,1404.28 
  "/>
<polyline clip-path="url(#clip550)" style="stroke:#000000; stroke-linecap:butt; stroke-linejoin:round; stroke-width:4; stroke-opacity:1; fill:none" points="
  1607.09,1423.18 1607.09,1404.28 
  "/>
<polyline clip-path="url(#clip550)" style="stroke:#000000; stroke-linecap:butt; stroke-linejoin:round; stroke-width:4; stroke-opacity:1; fill:none" points="
  1984.52,1423.18 1984.52,1404.28 
  "/>
<path clip-path="url(#clip550)" d="M443.884 1467.02 L473.56 1467.02 L473.56 1470.96 L443.884 1470.96 L443.884 1467.02 Z" fill="#000000" fill-rule="evenodd" fill-opacity="1" /><path clip-path="url(#clip550)" d="M494.231 1464.71 Q491.083 1464.71 489.231 1466.86 Q487.402 1469.01 487.402 1472.76 Q487.402 1476.49 489.231 1478.67 Q491.083 1480.82 494.231 1480.82 Q497.379 1480.82 499.208 1478.67 Q501.059 1476.49 501.059 1472.76 Q501.059 1469.01 499.208 1466.86 Q497.379 1464.71 494.231 1464.71 M503.513 1450.06 L503.513 1454.31 Q501.754 1453.48 499.948 1453.04 Q498.166 1452.6 496.407 1452.6 Q491.777 1452.6 489.323 1455.73 Q486.893 1458.85 486.546 1465.17 Q487.911 1463.16 489.972 1462.09 Q492.032 1461 494.509 1461 Q499.717 1461 502.726 1464.18 Q505.759 1467.32 505.759 1472.76 Q505.759 1478.09 502.61 1481.31 Q499.462 1484.52 494.231 1484.52 Q488.235 1484.52 485.064 1479.94 Q481.893 1475.33 481.893 1466.61 Q481.893 1458.41 485.782 1453.55 Q489.671 1448.67 496.222 1448.67 Q497.981 1448.67 499.763 1449.01 Q501.569 1449.36 503.513 1450.06 Z" fill="#000000" fill-rule="evenodd" fill-opacity="1" /><path clip-path="url(#clip550)" d="M821.713 1467.02 L851.388 1467.02 L851.388 1470.96 L821.713 1470.96 L821.713 1467.02 Z" fill="#000000" fill-rule="evenodd" fill-opacity="1" /><path clip-path="url(#clip550)" d="M875.648 1465.22 Q879.004 1465.94 880.879 1468.2 Q882.777 1470.47 882.777 1473.81 Q882.777 1478.92 879.259 1481.72 Q875.74 1484.52 869.259 1484.52 Q867.083 1484.52 864.768 1484.08 Q862.476 1483.67 860.023 1482.81 L860.023 1478.3 Q861.967 1479.43 864.282 1480.01 Q866.597 1480.59 869.12 1480.59 Q873.518 1480.59 875.81 1478.85 Q878.124 1477.12 878.124 1473.81 Q878.124 1470.75 875.972 1469.04 Q873.842 1467.3 870.023 1467.3 L865.995 1467.3 L865.995 1463.46 L870.208 1463.46 Q873.657 1463.46 875.486 1462.09 Q877.314 1460.7 877.314 1458.11 Q877.314 1455.45 875.416 1454.04 Q873.541 1452.6 870.023 1452.6 Q868.101 1452.6 865.902 1453.02 Q863.703 1453.44 861.064 1454.31 L861.064 1450.15 Q863.726 1449.41 866.041 1449.04 Q868.379 1448.67 870.439 1448.67 Q875.763 1448.67 878.865 1451.1 Q881.967 1453.5 881.967 1457.63 Q881.967 1460.5 880.323 1462.49 Q878.68 1464.45 875.648 1465.22 Z" fill="#000000" fill-rule="evenodd" fill-opacity="1" /><path clip-path="url(#clip550)" d="M1229.67 1452.37 Q1226.06 1452.37 1224.23 1455.94 Q1222.42 1459.48 1222.42 1466.61 Q1222.42 1473.71 1224.23 1477.28 Q1226.06 1480.82 1229.67 1480.82 Q1233.3 1480.82 1235.11 1477.28 Q1236.94 1473.71 1236.94 1466.61 Q1236.94 1459.48 1235.11 1455.94 Q1233.3 1452.37 1229.67 1452.37 M1229.67 1448.67 Q1235.48 1448.67 1238.53 1453.27 Q1241.61 1457.86 1241.61 1466.61 Q1241.61 1475.33 1238.53 1479.94 Q1235.48 1484.52 1229.67 1484.52 Q1223.86 1484.52 1220.78 1479.94 Q1217.72 1475.33 1217.72 1466.61 Q1217.72 1457.86 1220.78 1453.27 Q1223.86 1448.67 1229.67 1448.67 Z" fill="#000000" fill-rule="evenodd" fill-opacity="1" /><path clip-path="url(#clip550)" d="M1611.34 1465.22 Q1614.7 1465.94 1616.57 1468.2 Q1618.47 1470.47 1618.47 1473.81 Q1618.47 1478.92 1614.95 1481.72 Q1611.43 1484.52 1604.95 1484.52 Q1602.78 1484.52 1600.46 1484.08 Q1598.17 1483.67 1595.72 1482.81 L1595.72 1478.3 Q1597.66 1479.43 1599.97 1480.01 Q1602.29 1480.59 1604.81 1480.59 Q1609.21 1480.59 1611.5 1478.85 Q1613.82 1477.12 1613.82 1473.81 Q1613.82 1470.75 1611.66 1469.04 Q1609.53 1467.3 1605.72 1467.3 L1601.69 1467.3 L1601.69 1463.46 L1605.9 1463.46 Q1609.35 1463.46 1611.18 1462.09 Q1613.01 1460.7 1613.01 1458.11 Q1613.01 1455.45 1611.11 1454.04 Q1609.23 1452.6 1605.72 1452.6 Q1603.79 1452.6 1601.59 1453.02 Q1599.4 1453.44 1596.76 1454.31 L1596.76 1450.15 Q1599.42 1449.41 1601.73 1449.04 Q1604.07 1448.67 1606.13 1448.67 Q1611.46 1448.67 1614.56 1451.1 Q1617.66 1453.5 1617.66 1457.63 Q1617.66 1460.5 1616.02 1462.49 Q1614.37 1464.45 1611.34 1465.22 Z" fill="#000000" fill-rule="evenodd" fill-opacity="1" /><path clip-path="url(#clip550)" d="M1984.92 1464.71 Q1981.77 1464.71 1979.92 1466.86 Q1978.09 1469.01 1978.09 1472.76 Q1978.09 1476.49 1979.92 1478.67 Q1981.77 1480.82 1984.92 1480.82 Q1988.07 1480.82 1989.9 1478.67 Q1991.75 1476.49 1991.75 1472.76 Q1991.75 1469.01 1989.9 1466.86 Q1988.07 1464.71 1984.92 1464.71 M1994.2 1450.06 L1994.2 1454.31 Q1992.44 1453.48 1990.64 1453.04 Q1988.86 1452.6 1987.1 1452.6 Q1982.47 1452.6 1980.01 1455.73 Q1977.58 1458.85 1977.24 1465.17 Q1978.6 1463.16 1980.66 1462.09 Q1982.72 1461 1985.2 1461 Q1990.41 1461 1993.42 1464.18 Q1996.45 1467.32 1996.45 1472.76 Q1996.45 1478.09 1993.3 1481.31 Q1990.15 1484.52 1984.92 1484.52 Q1978.93 1484.52 1975.75 1479.94 Q1972.58 1475.33 1972.58 1466.61 Q1972.58 1458.41 1976.47 1453.55 Q1980.36 1448.67 1986.91 1448.67 Q1988.67 1448.67 1990.45 1449.01 Q1992.26 1449.36 1994.2 1450.06 Z" fill="#000000" fill-rule="evenodd" fill-opacity="1" /><path clip-path="url(#clip550)" d="M830.757 1550.12 Q823.659 1550.12 820.922 1551.75 Q818.184 1553.37 818.184 1557.29 Q818.184 1560.4 820.221 1562.25 Q822.29 1564.07 825.823 1564.07 Q830.693 1564.07 833.621 1560.63 Q836.581 1557.16 836.581 1551.43 L836.581 1550.12 L830.757 1550.12 M842.438 1547.71 L842.438 1568.04 L836.581 1568.04 L836.581 1562.63 Q834.576 1565.88 831.584 1567.44 Q828.592 1568.97 824.264 1568.97 Q818.789 1568.97 815.542 1565.91 Q812.328 1562.82 812.328 1557.67 Q812.328 1551.65 816.338 1548.6 Q820.38 1545.54 828.369 1545.54 L836.581 1545.54 L836.581 1544.97 Q836.581 1540.93 833.908 1538.73 Q831.266 1536.5 826.46 1536.5 Q823.404 1536.5 820.508 1537.23 Q817.611 1537.97 814.938 1539.43 L814.938 1534.02 Q818.152 1532.78 821.176 1532.17 Q824.2 1531.54 827.064 1531.54 Q834.799 1531.54 838.618 1535.55 Q842.438 1539.56 842.438 1547.71 Z" fill="#000000" fill-rule="evenodd" fill-opacity="1" /><path clip-path="url(#clip550)" d="M854.501 1518.52 L860.357 1518.52 L860.357 1568.04 L854.501 1568.04 L854.501 1518.52 Z" fill="#000000" fill-rule="evenodd" fill-opacity="1" /><path clip-path="url(#clip550)" d="M872.611 1532.4 L878.467 1532.4 L878.467 1568.04 L872.611 1568.04 L872.611 1532.4 M872.611 1518.52 L878.467 1518.52 L878.467 1525.93 L872.611 1525.93 L872.611 1518.52 Z" fill="#000000" fill-rule="evenodd" fill-opacity="1" /><path clip-path="url(#clip550)" d="M914.179 1549.81 Q914.179 1543.44 911.537 1539.94 Q908.927 1536.44 904.185 1536.44 Q899.474 1536.44 896.833 1539.94 Q894.223 1543.44 894.223 1549.81 Q894.223 1556.14 896.833 1559.64 Q899.474 1563.14 904.185 1563.14 Q908.927 1563.14 911.537 1559.64 Q914.179 1556.14 914.179 1549.81 M920.036 1563.62 Q920.036 1572.72 915.993 1577.15 Q911.951 1581.6 903.612 1581.6 Q900.525 1581.6 897.787 1581.13 Q895.05 1580.68 892.472 1579.72 L892.472 1574.03 Q895.05 1575.43 897.565 1576.1 Q900.079 1576.76 902.689 1576.76 Q908.45 1576.76 911.315 1573.74 Q914.179 1570.75 914.179 1564.67 L914.179 1561.77 Q912.365 1564.92 909.532 1566.48 Q906.699 1568.04 902.753 1568.04 Q896.196 1568.04 892.186 1563.05 Q888.175 1558.05 888.175 1549.81 Q888.175 1541.53 892.186 1536.53 Q896.196 1531.54 902.753 1531.54 Q906.699 1531.54 909.532 1533.1 Q912.365 1534.66 914.179 1537.81 L914.179 1532.4 L920.036 1532.4 L920.036 1563.62 Z" fill="#000000" fill-rule="evenodd" fill-opacity="1" /><path clip-path="url(#clip550)" d="M961.731 1546.53 L961.731 1568.04 L955.874 1568.04 L955.874 1546.72 Q955.874 1541.66 953.901 1539.14 Q951.928 1536.63 947.981 1536.63 Q943.239 1536.63 940.501 1539.65 Q937.764 1542.68 937.764 1547.9 L937.764 1568.04 L931.876 1568.04 L931.876 1532.4 L937.764 1532.4 L937.764 1537.93 Q939.865 1534.72 942.697 1533.13 Q945.562 1531.54 949.286 1531.54 Q955.429 1531.54 958.58 1535.36 Q961.731 1539.14 961.731 1546.53 Z" fill="#000000" fill-rule="evenodd" fill-opacity="1" /><path clip-path="url(#clip550)" d="M1001.17 1539.24 Q1003.36 1535.29 1006.42 1533.41 Q1009.47 1531.54 1013.61 1531.54 Q1019.18 1531.54 1022.21 1535.45 Q1025.23 1539.33 1025.23 1546.53 L1025.23 1568.04 L1019.34 1568.04 L1019.34 1546.72 Q1019.34 1541.59 1017.53 1539.11 Q1015.71 1536.63 1011.99 1536.63 Q1007.44 1536.63 1004.79 1539.65 Q1002.15 1542.68 1002.15 1547.9 L1002.15 1568.04 L996.265 1568.04 L996.265 1546.72 Q996.265 1541.56 994.451 1539.11 Q992.636 1536.63 988.849 1536.63 Q984.361 1536.63 981.719 1539.68 Q979.077 1542.71 979.077 1547.9 L979.077 1568.04 L973.189 1568.04 L973.189 1532.4 L979.077 1532.4 L979.077 1537.93 Q981.083 1534.66 983.884 1533.1 Q986.685 1531.54 990.536 1531.54 Q994.419 1531.54 997.124 1533.51 Q999.862 1535.48 1001.17 1539.24 Z" fill="#000000" fill-rule="evenodd" fill-opacity="1" /><path clip-path="url(#clip550)" d="M1067.4 1548.76 L1067.4 1551.62 L1040.47 1551.62 Q1040.86 1557.67 1044.1 1560.85 Q1047.38 1564 1053.21 1564 Q1056.58 1564 1059.73 1563.17 Q1062.91 1562.35 1066.03 1560.69 L1066.03 1566.23 Q1062.88 1567.57 1059.57 1568.27 Q1056.26 1568.97 1052.86 1568.97 Q1044.33 1568.97 1039.33 1564 Q1034.36 1559.04 1034.36 1550.57 Q1034.36 1541.82 1039.07 1536.69 Q1043.82 1531.54 1051.84 1531.54 Q1059.03 1531.54 1063.2 1536.18 Q1067.4 1540.8 1067.4 1548.76 M1061.55 1547.04 Q1061.48 1542.23 1058.84 1539.37 Q1056.23 1536.5 1051.9 1536.5 Q1047 1536.5 1044.04 1539.27 Q1041.11 1542.04 1040.67 1547.07 L1061.55 1547.04 Z" fill="#000000" fill-rule="evenodd" fill-opacity="1" /><path clip-path="url(#clip550)" d="M1106.65 1546.53 L1106.65 1568.04 L1100.79 1568.04 L1100.79 1546.72 Q1100.79 1541.66 1098.82 1539.14 Q1096.84 1536.63 1092.9 1536.63 Q1088.15 1536.63 1085.42 1539.65 Q1082.68 1542.68 1082.68 1547.9 L1082.68 1568.04 L1076.79 1568.04 L1076.79 1532.4 L1082.68 1532.4 L1082.68 1537.93 Q1084.78 1534.72 1087.61 1533.13 Q1090.48 1531.54 1094.2 1531.54 Q1100.34 1531.54 1103.5 1535.36 Q1106.65 1539.14 1106.65 1546.53 Z" fill="#000000" fill-rule="evenodd" fill-opacity="1" /><path clip-path="url(#clip550)" d="M1124.12 1522.27 L1124.12 1532.4 L1136.18 1532.4 L1136.18 1536.95 L1124.12 1536.95 L1124.12 1556.3 Q1124.12 1560.66 1125.3 1561.9 Q1126.51 1563.14 1130.17 1563.14 L1136.18 1563.14 L1136.18 1568.04 L1130.17 1568.04 Q1123.39 1568.04 1120.81 1565.53 Q1118.23 1562.98 1118.23 1556.3 L1118.23 1536.95 L1113.93 1536.95 L1113.93 1532.4 L1118.23 1532.4 L1118.23 1522.27 L1124.12 1522.27 Z" fill="#000000" fill-rule="evenodd" fill-opacity="1" /><path clip-path="url(#clip550)" d="M1195.1 1548.76 L1195.1 1551.62 L1168.17 1551.62 Q1168.55 1557.67 1171.8 1560.85 Q1175.08 1564 1180.9 1564 Q1184.28 1564 1187.43 1563.17 Q1190.61 1562.35 1193.73 1560.69 L1193.73 1566.23 Q1190.58 1567.57 1187.27 1568.27 Q1183.96 1568.97 1180.55 1568.97 Q1172.02 1568.97 1167.02 1564 Q1162.06 1559.04 1162.06 1550.57 Q1162.06 1541.82 1166.77 1536.69 Q1171.51 1531.54 1179.53 1531.54 Q1186.73 1531.54 1190.9 1536.18 Q1195.1 1540.8 1195.1 1548.76 M1189.24 1547.04 Q1189.18 1542.23 1186.54 1539.37 Q1183.93 1536.5 1179.6 1536.5 Q1174.7 1536.5 1171.74 1539.27 Q1168.81 1542.04 1168.36 1547.07 L1189.24 1547.04 Z" fill="#000000" fill-rule="evenodd" fill-opacity="1" /><path clip-path="url(#clip550)" d="M1227.44 1533.45 L1227.44 1538.98 Q1224.95 1537.71 1222.28 1537.07 Q1219.61 1536.44 1216.74 1536.44 Q1212.38 1536.44 1210.18 1537.77 Q1208.02 1539.11 1208.02 1541.79 Q1208.02 1543.82 1209.58 1545 Q1211.14 1546.15 1215.85 1547.2 L1217.86 1547.64 Q1224.09 1548.98 1226.7 1551.43 Q1229.35 1553.85 1229.35 1558.21 Q1229.35 1563.17 1225.4 1566.07 Q1221.48 1568.97 1214.61 1568.97 Q1211.74 1568.97 1208.62 1568.39 Q1205.54 1567.85 1202.1 1566.74 L1202.1 1560.69 Q1205.35 1562.38 1208.5 1563.24 Q1211.65 1564.07 1214.74 1564.07 Q1218.87 1564.07 1221.1 1562.66 Q1223.33 1561.23 1223.33 1558.65 Q1223.33 1556.27 1221.71 1554.99 Q1220.11 1553.72 1214.67 1552.54 L1212.64 1552.07 Q1207.19 1550.92 1204.77 1548.56 Q1202.35 1546.18 1202.35 1542.04 Q1202.35 1537.01 1205.92 1534.27 Q1209.48 1531.54 1216.04 1531.54 Q1219.29 1531.54 1222.15 1532.01 Q1225.02 1532.49 1227.44 1533.45 Z" fill="#000000" fill-rule="evenodd" fill-opacity="1" /><path clip-path="url(#clip550)" d="M1244.46 1522.27 L1244.46 1532.4 L1256.53 1532.4 L1256.53 1536.95 L1244.46 1536.95 L1244.46 1556.3 Q1244.46 1560.66 1245.64 1561.9 Q1246.85 1563.14 1250.51 1563.14 L1256.53 1563.14 L1256.53 1568.04 L1250.51 1568.04 Q1243.73 1568.04 1241.15 1565.53 Q1238.58 1562.98 1238.58 1556.3 L1238.58 1536.95 L1234.28 1536.95 L1234.28 1532.4 L1238.58 1532.4 L1238.58 1522.27 L1244.46 1522.27 Z" fill="#000000" fill-rule="evenodd" fill-opacity="1" /><path clip-path="url(#clip550)" d="M1264.23 1532.4 L1270.09 1532.4 L1270.09 1568.04 L1264.23 1568.04 L1264.23 1532.4 M1264.23 1518.52 L1270.09 1518.52 L1270.09 1525.93 L1264.23 1525.93 L1264.23 1518.52 Z" fill="#000000" fill-rule="evenodd" fill-opacity="1" /><path clip-path="url(#clip550)" d="M1310.09 1539.24 Q1312.29 1535.29 1315.35 1533.41 Q1318.4 1531.54 1322.54 1531.54 Q1328.11 1531.54 1331.13 1535.45 Q1334.16 1539.33 1334.16 1546.53 L1334.16 1568.04 L1328.27 1568.04 L1328.27 1546.72 Q1328.27 1541.59 1326.45 1539.11 Q1324.64 1536.63 1320.92 1536.63 Q1316.36 1536.63 1313.72 1539.65 Q1311.08 1542.68 1311.08 1547.9 L1311.08 1568.04 L1305.19 1568.04 L1305.19 1546.72 Q1305.19 1541.56 1303.38 1539.11 Q1301.56 1536.63 1297.78 1536.63 Q1293.29 1536.63 1290.65 1539.68 Q1288.01 1542.71 1288.01 1547.9 L1288.01 1568.04 L1282.12 1568.04 L1282.12 1532.4 L1288.01 1532.4 L1288.01 1537.93 Q1290.01 1534.66 1292.81 1533.1 Q1295.61 1531.54 1299.46 1531.54 Q1303.35 1531.54 1306.05 1533.51 Q1308.79 1535.48 1310.09 1539.24 Z" fill="#000000" fill-rule="evenodd" fill-opacity="1" /><path clip-path="url(#clip550)" d="M1362.04 1550.12 Q1354.94 1550.12 1352.2 1551.75 Q1349.47 1553.37 1349.47 1557.29 Q1349.47 1560.4 1351.5 1562.25 Q1353.57 1564.07 1357.1 1564.07 Q1361.97 1564.07 1364.9 1560.63 Q1367.86 1557.16 1367.86 1551.43 L1367.86 1550.12 L1362.04 1550.12 M1373.72 1547.71 L1373.72 1568.04 L1367.86 1568.04 L1367.86 1562.63 Q1365.86 1565.88 1362.87 1567.44 Q1359.87 1568.97 1355.55 1568.97 Q1350.07 1568.97 1346.82 1565.91 Q1343.61 1562.82 1343.61 1557.67 Q1343.61 1551.65 1347.62 1548.6 Q1351.66 1545.54 1359.65 1545.54 L1367.86 1545.54 L1367.86 1544.97 Q1367.86 1540.93 1365.19 1538.73 Q1362.55 1536.5 1357.74 1536.5 Q1354.69 1536.5 1351.79 1537.23 Q1348.89 1537.97 1346.22 1539.43 L1346.22 1534.02 Q1349.43 1532.78 1352.46 1532.17 Q1355.48 1531.54 1358.35 1531.54 Q1366.08 1531.54 1369.9 1535.55 Q1373.72 1539.56 1373.72 1547.71 Z" fill="#000000" fill-rule="evenodd" fill-opacity="1" /><path clip-path="url(#clip550)" d="M1391.58 1522.27 L1391.58 1532.4 L1403.64 1532.4 L1403.64 1536.95 L1391.58 1536.95 L1391.58 1556.3 Q1391.58 1560.66 1392.75 1561.9 Q1393.96 1563.14 1397.62 1563.14 L1403.64 1563.14 L1403.64 1568.04 L1397.62 1568.04 Q1390.84 1568.04 1388.27 1565.53 Q1385.69 1562.98 1385.69 1556.3 L1385.69 1536.95 L1381.39 1536.95 L1381.39 1532.4 L1385.69 1532.4 L1385.69 1522.27 L1391.58 1522.27 Z" fill="#000000" fill-rule="evenodd" fill-opacity="1" /><path clip-path="url(#clip550)" d="M1411.34 1532.4 L1417.2 1532.4 L1417.2 1568.04 L1411.34 1568.04 L1411.34 1532.4 M1411.34 1518.52 L1417.2 1518.52 L1417.2 1525.93 L1411.34 1525.93 L1411.34 1518.52 Z" fill="#000000" fill-rule="evenodd" fill-opacity="1" /><path clip-path="url(#clip550)" d="M1443.26 1536.5 Q1438.55 1536.5 1435.82 1540.19 Q1433.08 1543.85 1433.08 1550.25 Q1433.08 1556.65 1435.79 1560.34 Q1438.52 1564 1443.26 1564 Q1447.94 1564 1450.68 1560.31 Q1453.42 1556.62 1453.42 1550.25 Q1453.42 1543.92 1450.68 1540.23 Q1447.94 1536.5 1443.26 1536.5 M1443.26 1531.54 Q1450.9 1531.54 1455.26 1536.5 Q1459.62 1541.47 1459.62 1550.25 Q1459.62 1559 1455.26 1564 Q1450.9 1568.97 1443.26 1568.97 Q1435.59 1568.97 1431.23 1564 Q1426.9 1559 1426.9 1550.25 Q1426.9 1541.47 1431.23 1536.5 Q1435.59 1531.54 1443.26 1531.54 Z" fill="#000000" fill-rule="evenodd" fill-opacity="1" /><path clip-path="url(#clip550)" d="M1498.96 1546.53 L1498.96 1568.04 L1493.11 1568.04 L1493.11 1546.72 Q1493.11 1541.66 1491.13 1539.14 Q1489.16 1536.63 1485.21 1536.63 Q1480.47 1536.63 1477.74 1539.65 Q1475 1542.68 1475 1547.9 L1475 1568.04 L1469.11 1568.04 L1469.11 1532.4 L1475 1532.4 L1475 1537.93 Q1477.1 1534.72 1479.93 1533.13 Q1482.8 1531.54 1486.52 1531.54 Q1492.66 1531.54 1495.81 1535.36 Q1498.96 1539.14 1498.96 1546.53 Z" fill="#000000" fill-rule="evenodd" fill-opacity="1" /><path clip-path="url(#clip550)" d="M1561.86 1548.76 L1561.86 1551.62 L1534.93 1551.62 Q1535.31 1557.67 1538.56 1560.85 Q1541.84 1564 1547.66 1564 Q1551.04 1564 1554.19 1563.17 Q1557.37 1562.35 1560.49 1560.69 L1560.49 1566.23 Q1557.34 1567.57 1554.03 1568.27 Q1550.72 1568.97 1547.31 1568.97 Q1538.78 1568.97 1533.79 1564 Q1528.82 1559.04 1528.82 1550.57 Q1528.82 1541.82 1533.53 1536.69 Q1538.27 1531.54 1546.29 1531.54 Q1553.49 1531.54 1557.66 1536.18 Q1561.86 1540.8 1561.86 1548.76 M1556 1547.04 Q1555.94 1542.23 1553.3 1539.37 Q1550.69 1536.5 1546.36 1536.5 Q1541.46 1536.5 1538.5 1539.27 Q1535.57 1542.04 1535.12 1547.07 L1556 1547.04 Z" fill="#000000" fill-rule="evenodd" fill-opacity="1" /><path clip-path="url(#clip550)" d="M1592.13 1537.87 Q1591.14 1537.3 1589.96 1537.04 Q1588.82 1536.76 1587.42 1536.76 Q1582.45 1536.76 1579.78 1540 Q1577.14 1543.22 1577.14 1549.27 L1577.14 1568.04 L1571.25 1568.04 L1571.25 1532.4 L1577.14 1532.4 L1577.14 1537.93 Q1578.98 1534.69 1581.94 1533.13 Q1584.9 1531.54 1589.13 1531.54 Q1589.74 1531.54 1590.47 1531.63 Q1591.2 1531.7 1592.1 1531.85 L1592.13 1537.87 Z" fill="#000000" fill-rule="evenodd" fill-opacity="1" /><path clip-path="url(#clip550)" d="M1617.78 1537.87 Q1616.79 1537.3 1615.62 1537.04 Q1614.47 1536.76 1613.07 1536.76 Q1608.1 1536.76 1605.43 1540 Q1602.79 1543.22 1602.79 1549.27 L1602.79 1568.04 L1596.9 1568.04 L1596.9 1532.4 L1602.79 1532.4 L1602.79 1537.93 Q1604.64 1534.69 1607.6 1533.13 Q1610.56 1531.54 1614.79 1531.54 Q1615.39 1531.54 1616.13 1531.63 Q1616.86 1531.7 1617.75 1531.85 L1617.78 1537.87 Z" fill="#000000" fill-rule="evenodd" fill-opacity="1" /><path clip-path="url(#clip550)" d="M1636.3 1536.5 Q1631.59 1536.5 1628.86 1540.19 Q1626.12 1543.85 1626.12 1550.25 Q1626.12 1556.65 1628.83 1560.34 Q1631.56 1564 1636.3 1564 Q1640.98 1564 1643.72 1560.31 Q1646.46 1556.62 1646.46 1550.25 Q1646.46 1543.92 1643.72 1540.23 Q1640.98 1536.5 1636.3 1536.5 M1636.3 1531.54 Q1643.94 1531.54 1648.3 1536.5 Q1652.66 1541.47 1652.66 1550.25 Q1652.66 1559 1648.3 1564 Q1643.94 1568.97 1636.3 1568.97 Q1628.63 1568.97 1624.27 1564 Q1619.95 1559 1619.95 1550.25 Q1619.95 1541.47 1624.27 1536.5 Q1628.63 1531.54 1636.3 1531.54 Z" fill="#000000" fill-rule="evenodd" fill-opacity="1" /><path clip-path="url(#clip550)" d="M1683.03 1537.87 Q1682.04 1537.3 1680.86 1537.04 Q1679.72 1536.76 1678.32 1536.76 Q1673.35 1536.76 1670.68 1540 Q1668.04 1543.22 1668.04 1549.27 L1668.04 1568.04 L1662.15 1568.04 L1662.15 1532.4 L1668.04 1532.4 L1668.04 1537.93 Q1669.88 1534.69 1672.84 1533.13 Q1675.8 1531.54 1680.04 1531.54 Q1680.64 1531.54 1681.37 1531.63 Q1682.11 1531.7 1683 1531.85 L1683.03 1537.87 Z" fill="#000000" fill-rule="evenodd" fill-opacity="1" /><path clip-path="url(#clip550)" d="M1720.3 1520.52 L1725.71 1520.52 L1709.16 1574.09 L1703.75 1574.09 L1720.3 1520.52 Z" fill="#000000" fill-rule="evenodd" fill-opacity="1" /><path clip-path="url(#clip550)" d="M1762.73 1523.77 Q1760.18 1523.77 1758.43 1525.55 Q1756.68 1527.3 1756.68 1529.85 Q1756.68 1532.36 1758.43 1534.11 Q1760.18 1535.83 1762.73 1535.83 Q1765.27 1535.83 1767.02 1534.11 Q1768.78 1532.36 1768.78 1529.85 Q1768.78 1527.34 1766.99 1525.55 Q1765.24 1523.77 1762.73 1523.77 M1762.73 1519.66 Q1764.76 1519.66 1766.64 1520.46 Q1768.52 1521.22 1769.89 1522.69 Q1771.35 1524.12 1772.09 1525.93 Q1772.82 1527.75 1772.82 1529.85 Q1772.82 1534.05 1769.86 1536.98 Q1766.93 1539.88 1762.66 1539.88 Q1758.37 1539.88 1755.5 1537.01 Q1752.64 1534.15 1752.64 1529.85 Q1752.64 1525.58 1755.57 1522.62 Q1758.49 1519.66 1762.73 1519.66 Z" fill="#000000" fill-rule="evenodd" fill-opacity="1" /><polyline clip-path="url(#clip552)" style="stroke:#000000; stroke-linecap:butt; stroke-linejoin:round; stroke-width:2; stroke-opacity:0.1; fill:none" points="
  232.389,1386.4 2352.76,1386.4 
  "/>
<polyline clip-path="url(#clip552)" style="stroke:#000000; stroke-linecap:butt; stroke-linejoin:round; stroke-width:2; stroke-opacity:0.1; fill:none" points="
  232.389,1122.14 2352.76,1122.14 
  "/>
<polyline clip-path="url(#clip552)" style="stroke:#000000; stroke-linecap:butt; stroke-linejoin:round; stroke-width:2; stroke-opacity:0.1; fill:none" points="
  232.389,857.887 2352.76,857.887 
  "/>
<polyline clip-path="url(#clip552)" style="stroke:#000000; stroke-linecap:butt; stroke-linejoin:round; stroke-width:2; stroke-opacity:0.1; fill:none" points="
  232.389,593.633 2352.76,593.633 
  "/>
<polyline clip-path="url(#clip552)" style="stroke:#000000; stroke-linecap:butt; stroke-linejoin:round; stroke-width:2; stroke-opacity:0.1; fill:none" points="
  232.389,329.379 2352.76,329.379 
  "/>
<polyline clip-path="url(#clip550)" style="stroke:#000000; stroke-linecap:butt; stroke-linejoin:round; stroke-width:4; stroke-opacity:1; fill:none" points="
  232.389,1423.18 232.389,123.472 
  "/>
<polyline clip-path="url(#clip550)" style="stroke:#000000; stroke-linecap:butt; stroke-linejoin:round; stroke-width:4; stroke-opacity:1; fill:none" points="
  232.389,1386.4 251.287,1386.4 
  "/>
<polyline clip-path="url(#clip550)" style="stroke:#000000; stroke-linecap:butt; stroke-linejoin:round; stroke-width:4; stroke-opacity:1; fill:none" points="
  232.389,1122.14 251.287,1122.14 
  "/>
<polyline clip-path="url(#clip550)" style="stroke:#000000; stroke-linecap:butt; stroke-linejoin:round; stroke-width:4; stroke-opacity:1; fill:none" points="
  232.389,857.887 251.287,857.887 
  "/>
<polyline clip-path="url(#clip550)" style="stroke:#000000; stroke-linecap:butt; stroke-linejoin:round; stroke-width:4; stroke-opacity:1; fill:none" points="
  232.389,593.633 251.287,593.633 
  "/>
<polyline clip-path="url(#clip550)" style="stroke:#000000; stroke-linecap:butt; stroke-linejoin:round; stroke-width:4; stroke-opacity:1; fill:none" points="
  232.389,329.379 251.287,329.379 
  "/>
<path clip-path="url(#clip550)" d="M184.445 1372.19 Q180.834 1372.19 179.005 1375.76 Q177.2 1379.3 177.2 1386.43 Q177.2 1393.54 179.005 1397.1 Q180.834 1400.64 184.445 1400.64 Q188.079 1400.64 189.885 1397.1 Q191.713 1393.54 191.713 1386.43 Q191.713 1379.3 189.885 1375.76 Q188.079 1372.19 184.445 1372.19 M184.445 1368.49 Q190.255 1368.49 193.311 1373.1 Q196.389 1377.68 196.389 1386.43 Q196.389 1395.16 193.311 1399.76 Q190.255 1404.35 184.445 1404.35 Q178.635 1404.35 175.556 1399.76 Q172.501 1395.16 172.501 1386.43 Q172.501 1377.68 175.556 1373.1 Q178.635 1368.49 184.445 1368.49 Z" fill="#000000" fill-rule="evenodd" fill-opacity="1" /><path clip-path="url(#clip550)" d="M149.306 1135.49 L165.626 1135.49 L165.626 1139.42 L143.681 1139.42 L143.681 1135.49 Q146.343 1132.73 150.927 1128.1 Q155.533 1123.45 156.714 1122.11 Q158.959 1119.58 159.839 1117.85 Q160.741 1116.09 160.741 1114.4 Q160.741 1111.64 158.797 1109.91 Q156.876 1108.17 153.774 1108.17 Q151.575 1108.17 149.121 1108.94 Q146.691 1109.7 143.913 1111.25 L143.913 1106.53 Q146.737 1105.39 149.191 1104.82 Q151.644 1104.24 153.681 1104.24 Q159.052 1104.24 162.246 1106.92 Q165.44 1109.61 165.44 1114.1 Q165.44 1116.23 164.63 1118.15 Q163.843 1120.05 161.737 1122.64 Q161.158 1123.31 158.056 1126.53 Q154.954 1129.72 149.306 1135.49 Z" fill="#000000" fill-rule="evenodd" fill-opacity="1" /><path clip-path="url(#clip550)" d="M175.487 1104.86 L193.843 1104.86 L193.843 1108.8 L179.769 1108.8 L179.769 1117.27 Q180.788 1116.92 181.806 1116.76 Q182.825 1116.57 183.843 1116.57 Q189.63 1116.57 193.01 1119.75 Q196.389 1122.92 196.389 1128.33 Q196.389 1133.91 192.917 1137.01 Q189.445 1140.09 183.126 1140.09 Q180.95 1140.09 178.681 1139.72 Q176.436 1139.35 174.028 1138.61 L174.028 1133.91 Q176.112 1135.05 178.334 1135.6 Q180.556 1136.16 183.033 1136.16 Q187.038 1136.16 189.375 1134.05 Q191.713 1131.94 191.713 1128.33 Q191.713 1124.72 189.375 1122.62 Q187.038 1120.51 183.033 1120.51 Q181.158 1120.51 179.283 1120.93 Q177.431 1121.34 175.487 1122.22 L175.487 1104.86 Z" fill="#000000" fill-rule="evenodd" fill-opacity="1" /><path clip-path="url(#clip550)" d="M144.329 840.607 L162.686 840.607 L162.686 844.542 L148.612 844.542 L148.612 853.015 Q149.63 852.667 150.649 852.505 Q151.667 852.32 152.686 852.32 Q158.473 852.32 161.852 855.491 Q165.232 858.663 165.232 864.079 Q165.232 869.658 161.76 872.76 Q158.288 875.839 151.968 875.839 Q149.792 875.839 147.524 875.468 Q145.279 875.098 142.871 874.357 L142.871 869.658 Q144.954 870.792 147.177 871.348 Q149.399 871.903 151.876 871.903 Q155.88 871.903 158.218 869.797 Q160.556 867.691 160.556 864.079 Q160.556 860.468 158.218 858.362 Q155.88 856.255 151.876 856.255 Q150.001 856.255 148.126 856.672 Q146.274 857.089 144.329 857.968 L144.329 840.607 Z" fill="#000000" fill-rule="evenodd" fill-opacity="1" /><path clip-path="url(#clip550)" d="M184.445 843.686 Q180.834 843.686 179.005 847.251 Q177.2 850.792 177.2 857.922 Q177.2 865.028 179.005 868.593 Q180.834 872.135 184.445 872.135 Q188.079 872.135 189.885 868.593 Q191.713 865.028 191.713 857.922 Q191.713 850.792 189.885 847.251 Q188.079 843.686 184.445 843.686 M184.445 839.982 Q190.255 839.982 193.311 844.589 Q196.389 849.172 196.389 857.922 Q196.389 866.649 193.311 871.255 Q190.255 875.839 184.445 875.839 Q178.635 875.839 175.556 871.255 Q172.501 866.649 172.501 857.922 Q172.501 849.172 175.556 844.589 Q178.635 839.982 184.445 839.982 Z" fill="#000000" fill-rule="evenodd" fill-opacity="1" /><path clip-path="url(#clip550)" d="M144.098 576.353 L166.32 576.353 L166.32 578.344 L153.774 610.913 L148.89 610.913 L160.695 580.288 L144.098 580.288 L144.098 576.353 Z" fill="#000000" fill-rule="evenodd" fill-opacity="1" /><path clip-path="url(#clip550)" d="M175.487 576.353 L193.843 576.353 L193.843 580.288 L179.769 580.288 L179.769 588.76 Q180.788 588.413 181.806 588.251 Q182.825 588.066 183.843 588.066 Q189.63 588.066 193.01 591.237 Q196.389 594.409 196.389 599.825 Q196.389 605.404 192.917 608.506 Q189.445 611.584 183.126 611.584 Q180.95 611.584 178.681 611.214 Q176.436 610.844 174.028 610.103 L174.028 605.404 Q176.112 606.538 178.334 607.094 Q180.556 607.649 183.033 607.649 Q187.038 607.649 189.375 605.543 Q191.713 603.436 191.713 599.825 Q191.713 596.214 189.375 594.108 Q187.038 592.001 183.033 592.001 Q181.158 592.001 179.283 592.418 Q177.431 592.835 175.487 593.714 L175.487 576.353 Z" fill="#000000" fill-rule="evenodd" fill-opacity="1" /><path clip-path="url(#clip550)" d="M114.931 342.724 L122.57 342.724 L122.57 316.358 L114.26 318.025 L114.26 313.766 L122.524 312.099 L127.2 312.099 L127.2 342.724 L134.839 342.724 L134.839 346.659 L114.931 346.659 L114.931 342.724 Z" fill="#000000" fill-rule="evenodd" fill-opacity="1" /><path clip-path="url(#clip550)" d="M154.283 315.178 Q150.672 315.178 148.843 318.742 Q147.038 322.284 147.038 329.414 Q147.038 336.52 148.843 340.085 Q150.672 343.627 154.283 343.627 Q157.917 343.627 159.723 340.085 Q161.552 336.52 161.552 329.414 Q161.552 322.284 159.723 318.742 Q157.917 315.178 154.283 315.178 M154.283 311.474 Q160.093 311.474 163.149 316.08 Q166.227 320.664 166.227 329.414 Q166.227 338.141 163.149 342.747 Q160.093 347.33 154.283 347.33 Q148.473 347.33 145.394 342.747 Q142.339 338.141 142.339 329.414 Q142.339 320.664 145.394 316.08 Q148.473 311.474 154.283 311.474 Z" fill="#000000" fill-rule="evenodd" fill-opacity="1" /><path clip-path="url(#clip550)" d="M184.445 315.178 Q180.834 315.178 179.005 318.742 Q177.2 322.284 177.2 329.414 Q177.2 336.52 179.005 340.085 Q180.834 343.627 184.445 343.627 Q188.079 343.627 189.885 340.085 Q191.713 336.52 191.713 329.414 Q191.713 322.284 189.885 318.742 Q188.079 315.178 184.445 315.178 M184.445 311.474 Q190.255 311.474 193.311 316.08 Q196.389 320.664 196.389 329.414 Q196.389 338.141 193.311 342.747 Q190.255 347.33 184.445 347.33 Q178.635 347.33 175.556 342.747 Q172.501 338.141 172.501 329.414 Q172.501 320.664 175.556 316.08 Q178.635 311.474 184.445 311.474 Z" fill="#000000" fill-rule="evenodd" fill-opacity="1" /><path clip-path="url(#clip550)" d="M46.0847 1065.93 Q46.0847 1073.02 47.7079 1075.76 Q49.3312 1078.5 53.2461 1078.5 Q56.3653 1078.5 58.2114 1076.46 Q60.0256 1074.39 60.0256 1070.86 Q60.0256 1065.99 56.5881 1063.06 Q53.1188 1060.1 47.3897 1060.1 L46.0847 1060.1 L46.0847 1065.93 M43.6657 1054.24 L64.0042 1054.24 L64.0042 1060.1 L58.5933 1060.1 Q61.8398 1062.11 63.3994 1065.1 Q64.9272 1068.09 64.9272 1072.42 Q64.9272 1077.89 61.8716 1081.14 Q58.7843 1084.35 53.6281 1084.35 Q47.6125 1084.35 44.5569 1080.34 Q41.5014 1076.3 41.5014 1068.31 L41.5014 1060.1 L40.9285 1060.1 Q36.8862 1060.1 34.6901 1062.77 Q32.4621 1065.42 32.4621 1070.22 Q32.4621 1073.28 33.1941 1076.17 Q33.9262 1079.07 35.3903 1081.74 L29.9795 1081.74 Q28.7381 1078.53 28.1334 1075.51 Q27.4968 1072.48 27.4968 1069.62 Q27.4968 1061.88 31.5072 1058.06 Q35.5176 1054.24 43.6657 1054.24 Z" fill="#000000" fill-rule="evenodd" fill-opacity="1" /><path clip-path="url(#clip550)" d="M46.212 1016.59 Q39.7508 1016.59 36.0905 1019.27 Q32.3984 1021.91 32.3984 1026.55 Q32.3984 1031.2 36.0905 1033.87 Q39.7508 1036.52 46.212 1036.52 Q52.6732 1036.52 56.3653 1033.87 Q60.0256 1031.2 60.0256 1026.55 Q60.0256 1021.91 56.3653 1019.27 Q52.6732 1016.59 46.212 1016.59 M33.7671 1036.52 Q30.5842 1034.67 29.0564 1031.87 Q27.4968 1029.04 27.4968 1025.12 Q27.4968 1018.63 32.6531 1014.59 Q37.8093 1010.51 46.212 1010.51 Q54.6147 1010.51 59.771 1014.59 Q64.9272 1018.63 64.9272 1025.12 Q64.9272 1029.04 63.3994 1031.87 Q61.8398 1034.67 58.657 1036.52 L64.0042 1036.52 L64.0042 1042.4 L14.479 1042.4 L14.479 1036.52 L33.7671 1036.52 Z" fill="#000000" fill-rule="evenodd" fill-opacity="1" /><path clip-path="url(#clip550)" d="M29.4065 978.079 L34.9447 978.079 Q33.6716 980.562 33.035 983.235 Q32.3984 985.909 32.3984 988.773 Q32.3984 993.134 33.7352 995.33 Q35.072 997.494 37.7456 997.494 Q39.7826 997.494 40.9603 995.935 Q42.1061 994.375 43.1565 989.665 L43.6021 987.659 Q44.9389 981.421 47.3897 978.811 Q49.8086 976.169 54.1691 976.169 Q59.1344 976.169 62.0308 980.116 Q64.9272 984.031 64.9272 990.906 Q64.9272 993.77 64.3543 996.89 Q63.8132 999.977 62.6992 1003.41 L56.6518 1003.41 Q58.3387 1000.17 59.198 997.017 Q60.0256 993.866 60.0256 990.779 Q60.0256 986.641 58.6251 984.413 Q57.1929 982.185 54.6147 982.185 Q52.2276 982.185 50.9545 983.808 Q49.6813 985.4 48.5037 990.842 L48.0262 992.879 Q46.8804 998.322 44.5251 1000.74 Q42.138 1003.16 38.0002 1003.16 Q32.9713 1003.16 30.2341 999.595 Q27.4968 996.03 27.4968 989.474 Q27.4968 986.227 27.9743 983.362 Q28.4517 980.498 29.4065 978.079 Z" fill="#000000" fill-rule="evenodd" fill-opacity="1" /><path clip-path="url(#clip550)" d="M32.4621 953.03 Q32.4621 957.741 36.1542 960.478 Q39.8145 963.215 46.212 963.215 Q52.6095 963.215 56.3017 960.51 Q59.9619 957.772 59.9619 953.03 Q59.9619 948.351 56.2698 945.614 Q52.5777 942.877 46.212 942.877 Q39.8781 942.877 36.186 945.614 Q32.4621 948.351 32.4621 953.03 M27.4968 953.03 Q27.4968 945.391 32.4621 941.031 Q37.4273 936.67 46.212 936.67 Q54.9649 936.67 59.9619 941.031 Q64.9272 945.391 64.9272 953.03 Q64.9272 960.701 59.9619 965.061 Q54.9649 969.39 46.212 969.39 Q37.4273 969.39 32.4621 965.061 Q27.4968 960.701 27.4968 953.03 Z" fill="#000000" fill-rule="evenodd" fill-opacity="1" /><path clip-path="url(#clip550)" d="M14.479 926.962 L14.479 921.106 L64.0042 921.106 L64.0042 926.962 L14.479 926.962 Z" fill="#000000" fill-rule="evenodd" fill-opacity="1" /><path clip-path="url(#clip550)" d="M49.9359 909.457 L28.3562 909.457 L28.3562 903.6 L49.7131 903.6 Q54.7739 903.6 57.3202 901.627 Q59.8346 899.653 59.8346 895.707 Q59.8346 890.964 56.8109 888.227 Q53.7872 885.458 48.5673 885.458 L28.3562 885.458 L28.3562 879.601 L64.0042 879.601 L64.0042 885.458 L58.5296 885.458 Q61.7762 887.59 63.3676 890.423 Q64.9272 893.224 64.9272 896.948 Q64.9272 903.091 61.1078 906.274 Q57.2883 909.457 49.9359 909.457 M27.4968 894.72 L27.4968 894.72 Z" fill="#000000" fill-rule="evenodd" fill-opacity="1" /><path clip-path="url(#clip550)" d="M18.2347 861.746 L28.3562 861.746 L28.3562 849.683 L32.9077 849.683 L32.9077 861.746 L52.2594 861.746 Q56.6199 861.746 57.8613 860.568 Q59.1026 859.359 59.1026 855.698 L59.1026 849.683 L64.0042 849.683 L64.0042 855.698 Q64.0042 862.478 61.4897 865.056 Q58.9434 867.634 52.2594 867.634 L32.9077 867.634 L32.9077 871.931 L28.3562 871.931 L28.3562 867.634 L18.2347 867.634 L18.2347 861.746 Z" fill="#000000" fill-rule="evenodd" fill-opacity="1" /><path clip-path="url(#clip550)" d="M44.7161 811.488 L47.5806 811.488 L47.5806 838.415 Q53.6281 838.033 56.8109 834.787 Q59.9619 831.509 59.9619 825.684 Q59.9619 822.31 59.1344 819.159 Q58.3069 815.976 56.6518 812.857 L62.1899 812.857 Q63.5267 816.008 64.227 819.318 Q64.9272 822.628 64.9272 826.034 Q64.9272 834.564 59.9619 839.561 Q54.9967 844.526 46.5303 844.526 Q37.7774 844.526 32.6531 839.816 Q27.4968 835.073 27.4968 827.053 Q27.4968 819.859 32.1438 815.69 Q36.7589 811.488 44.7161 811.488 M42.9973 817.345 Q38.1912 817.409 35.3266 820.05 Q32.4621 822.66 32.4621 826.989 Q32.4621 831.89 35.2312 834.851 Q38.0002 837.779 43.0292 838.224 L42.9973 817.345 Z" fill="#000000" fill-rule="evenodd" fill-opacity="1" /><path clip-path="url(#clip550)" d="M14.479 763.109 L19.3487 763.109 L19.3487 768.711 Q19.3487 771.862 20.6219 773.103 Q21.895 774.313 25.2052 774.313 L28.3562 774.313 L28.3562 764.669 L32.9077 764.669 L32.9077 774.313 L64.0042 774.313 L64.0042 780.201 L32.9077 780.201 L32.9077 785.803 L28.3562 785.803 L28.3562 780.201 L25.8736 780.201 Q19.9216 780.201 17.2162 777.432 Q14.479 774.663 14.479 768.647 L14.479 763.109 Z" fill="#000000" fill-rule="evenodd" fill-opacity="1" /><path clip-path="url(#clip550)" d="M33.8307 737.551 Q33.2578 738.537 33.0032 739.715 Q32.7167 740.861 32.7167 742.261 Q32.7167 747.227 35.9632 749.9 Q39.1779 752.542 45.2253 752.542 L64.0042 752.542 L64.0042 758.43 L28.3562 758.43 L28.3562 752.542 L33.8944 752.542 Q30.6479 750.696 29.0883 747.736 Q27.4968 744.776 27.4968 740.543 Q27.4968 739.938 27.5923 739.206 Q27.656 738.474 27.8151 737.583 L33.8307 737.551 Z" fill="#000000" fill-rule="evenodd" fill-opacity="1" /><path clip-path="url(#clip550)" d="M44.7161 702.348 L47.5806 702.348 L47.5806 729.275 Q53.6281 728.893 56.8109 725.647 Q59.9619 722.369 59.9619 716.544 Q59.9619 713.17 59.1344 710.019 Q58.3069 706.836 56.6518 703.717 L62.1899 703.717 Q63.5267 706.868 64.227 710.178 Q64.9272 713.488 64.9272 716.894 Q64.9272 725.424 59.9619 730.421 Q54.9967 735.386 46.5303 735.386 Q37.7774 735.386 32.6531 730.676 Q27.4968 725.933 27.4968 717.913 Q27.4968 710.719 32.1438 706.55 Q36.7589 702.348 44.7161 702.348 M42.9973 708.205 Q38.1912 708.268 35.3266 710.91 Q32.4621 713.52 32.4621 717.849 Q32.4621 722.75 35.2312 725.71 Q38.0002 728.639 43.0292 729.084 L42.9973 708.205 Z" fill="#000000" fill-rule="evenodd" fill-opacity="1" /><path clip-path="url(#clip550)" d="M46.212 689.235 Q52.6732 689.235 56.3653 686.593 Q60.0256 683.92 60.0256 679.273 Q60.0256 674.626 56.3653 671.952 Q52.6732 669.279 46.212 669.279 Q39.7508 669.279 36.0905 671.952 Q32.3984 674.626 32.3984 679.273 Q32.3984 683.92 36.0905 686.593 Q39.7508 689.235 46.212 689.235 M58.657 669.279 Q61.8398 671.125 63.3994 673.957 Q64.9272 676.758 64.9272 680.705 Q64.9272 687.166 59.771 691.24 Q54.6147 695.282 46.212 695.282 Q37.8093 695.282 32.6531 691.24 Q27.4968 687.166 27.4968 680.705 Q27.4968 676.758 29.0564 673.957 Q30.5842 671.125 33.7671 669.279 L28.3562 669.279 L28.3562 663.422 L77.5631 663.422 L77.5631 669.279 L58.657 669.279 Z" fill="#000000" fill-rule="evenodd" fill-opacity="1" /><path clip-path="url(#clip550)" d="M49.9359 651.964 L28.3562 651.964 L28.3562 646.107 L49.7131 646.107 Q54.7739 646.107 57.3202 644.134 Q59.8346 642.161 59.8346 638.214 Q59.8346 633.471 56.8109 630.734 Q53.7872 627.965 48.5673 627.965 L28.3562 627.965 L28.3562 622.109 L64.0042 622.109 L64.0042 627.965 L58.5296 627.965 Q61.7762 630.098 63.3676 632.93 Q64.9272 635.731 64.9272 639.455 Q64.9272 645.598 61.1078 648.781 Q57.2883 651.964 49.9359 651.964 M27.4968 637.227 L27.4968 637.227 Z" fill="#000000" fill-rule="evenodd" fill-opacity="1" /><path clip-path="url(#clip550)" d="M44.7161 579.554 L47.5806 579.554 L47.5806 606.481 Q53.6281 606.099 56.8109 602.852 Q59.9619 599.574 59.9619 593.749 Q59.9619 590.376 59.1344 587.225 Q58.3069 584.042 56.6518 580.923 L62.1899 580.923 Q63.5267 584.074 64.227 587.384 Q64.9272 590.694 64.9272 594.1 Q64.9272 602.63 59.9619 607.627 Q54.9967 612.592 46.5303 612.592 Q37.7774 612.592 32.6531 607.881 Q27.4968 603.139 27.4968 595.118 Q27.4968 587.925 32.1438 583.755 Q36.7589 579.554 44.7161 579.554 M42.9973 585.41 Q38.1912 585.474 35.3266 588.116 Q32.4621 590.726 32.4621 595.054 Q32.4621 599.956 35.2312 602.916 Q38.0002 605.844 43.0292 606.29 L42.9973 585.41 Z" fill="#000000" fill-rule="evenodd" fill-opacity="1" /><path clip-path="url(#clip550)" d="M42.4881 540.309 L64.0042 540.309 L64.0042 546.166 L42.679 546.166 Q37.6183 546.166 35.1038 548.139 Q32.5894 550.112 32.5894 554.059 Q32.5894 558.802 35.6131 561.539 Q38.6368 564.276 43.8567 564.276 L64.0042 564.276 L64.0042 570.164 L28.3562 570.164 L28.3562 564.276 L33.8944 564.276 Q30.6797 562.175 29.0883 559.343 Q27.4968 556.478 27.4968 552.754 Q27.4968 546.611 31.3163 543.46 Q35.1038 540.309 42.4881 540.309 Z" fill="#000000" fill-rule="evenodd" fill-opacity="1" /><path clip-path="url(#clip550)" d="M29.7248 502.974 L35.1993 502.974 Q33.8307 505.457 33.1623 507.972 Q32.4621 510.454 32.4621 513 Q32.4621 518.698 36.0905 521.849 Q39.6872 525 46.212 525 Q52.7369 525 56.3653 521.849 Q59.9619 518.698 59.9619 513 Q59.9619 510.454 59.2935 507.972 Q58.5933 505.457 57.2247 502.974 L62.6355 502.974 Q63.7814 505.425 64.3543 508.067 Q64.9272 510.677 64.9272 513.637 Q64.9272 521.69 59.8664 526.432 Q54.8057 531.175 46.212 531.175 Q37.491 531.175 32.4939 526.4 Q27.4968 521.594 27.4968 513.255 Q27.4968 510.55 28.0697 507.972 Q28.6108 505.393 29.7248 502.974 Z" fill="#000000" fill-rule="evenodd" fill-opacity="1" /><path clip-path="url(#clip550)" d="M67.3143 477.957 Q73.68 480.44 75.6216 482.795 Q77.5631 485.15 77.5631 489.097 L77.5631 493.776 L72.6615 493.776 L72.6615 490.338 Q72.6615 487.92 71.5157 486.583 Q70.3699 485.246 66.1048 483.623 L63.4312 482.572 L28.3562 496.991 L28.3562 490.784 L56.238 479.644 L28.3562 468.504 L28.3562 462.298 L67.3143 477.957 Z" fill="#000000" fill-rule="evenodd" fill-opacity="1" /><path clip-path="url(#clip550)" d="M381.382 48.0275 L381.382 51.6733 L347.112 51.6733 Q347.598 59.3701 351.73 63.421 Q355.902 67.4314 363.315 67.4314 Q367.609 67.4314 371.62 66.3781 Q375.671 65.3249 379.641 63.2184 L379.641 70.267 Q375.63 71.9684 371.417 72.8596 Q367.204 73.7508 362.87 73.7508 Q352.013 73.7508 345.654 67.4314 Q339.334 61.1119 339.334 50.3365 Q339.334 39.1965 345.329 32.6746 Q351.365 26.1121 361.574 26.1121 Q370.729 26.1121 376.035 32.0264 Q381.382 37.9003 381.382 48.0275 M373.929 45.84 Q373.848 39.7232 370.486 36.0774 Q367.164 32.4315 361.655 32.4315 Q355.416 32.4315 351.649 35.9558 Q347.922 39.4801 347.355 45.8805 L373.929 45.84 Z" fill="#000000" fill-rule="evenodd" fill-opacity="1" /><path clip-path="url(#clip550)" d="M419.907 34.1734 Q418.651 33.4443 417.152 33.1202 Q415.694 32.7556 413.911 32.7556 Q407.592 32.7556 404.189 36.8875 Q400.827 40.9789 400.827 48.6757 L400.827 72.576 L393.333 72.576 L393.333 27.2059 L400.827 27.2059 L400.827 34.2544 Q403.176 30.1225 406.944 28.1376 Q410.711 26.1121 416.099 26.1121 Q416.868 26.1121 417.8 26.2337 Q418.732 26.3147 419.866 26.5172 L419.907 34.1734 Z" fill="#000000" fill-rule="evenodd" fill-opacity="1" /><path clip-path="url(#clip550)" d="M452.557 34.1734 Q451.301 33.4443 449.802 33.1202 Q448.344 32.7556 446.562 32.7556 Q440.242 32.7556 436.839 36.8875 Q433.477 40.9789 433.477 48.6757 L433.477 72.576 L425.983 72.576 L425.983 27.2059 L433.477 27.2059 L433.477 34.2544 Q435.827 30.1225 439.594 28.1376 Q443.361 26.1121 448.749 26.1121 Q449.519 26.1121 450.45 26.2337 Q451.382 26.3147 452.516 26.5172 L452.557 34.1734 Z" fill="#000000" fill-rule="evenodd" fill-opacity="1" /><path clip-path="url(#clip550)" d="M476.133 32.4315 Q470.138 32.4315 466.654 37.1306 Q463.17 41.7891 463.17 49.9314 Q463.17 58.0738 466.614 62.7728 Q470.097 67.4314 476.133 67.4314 Q482.088 67.4314 485.572 62.7323 Q489.056 58.0333 489.056 49.9314 Q489.056 41.8701 485.572 37.1711 Q482.088 32.4315 476.133 32.4315 M476.133 26.1121 Q485.855 26.1121 491.405 32.4315 Q496.955 38.7509 496.955 49.9314 Q496.955 61.0714 491.405 67.4314 Q485.855 73.7508 476.133 73.7508 Q466.37 73.7508 460.821 67.4314 Q455.311 61.0714 455.311 49.9314 Q455.311 38.7509 460.821 32.4315 Q466.37 26.1121 476.133 26.1121 Z" fill="#000000" fill-rule="evenodd" fill-opacity="1" /><path clip-path="url(#clip550)" d="M535.6 34.1734 Q534.345 33.4443 532.846 33.1202 Q531.387 32.7556 529.605 32.7556 Q523.286 32.7556 519.883 36.8875 Q516.521 40.9789 516.521 48.6757 L516.521 72.576 L509.026 72.576 L509.026 27.2059 L516.521 27.2059 L516.521 34.2544 Q518.87 30.1225 522.638 28.1376 Q526.405 26.1121 531.793 26.1121 Q532.562 26.1121 533.494 26.2337 Q534.426 26.3147 535.56 26.5172 L535.6 34.1734 Z" fill="#000000" fill-rule="evenodd" fill-opacity="1" /><path clip-path="url(#clip550)" d="M599.645 34.0924 L599.645 9.54393 L607.099 9.54393 L607.099 72.576 L599.645 72.576 L599.645 65.7705 Q597.296 69.8214 593.69 71.8063 Q590.126 73.7508 585.102 73.7508 Q576.879 73.7508 571.694 67.1883 Q566.549 60.6258 566.549 49.9314 Q566.549 39.2371 571.694 32.6746 Q576.879 26.1121 585.102 26.1121 Q590.126 26.1121 593.69 28.0971 Q597.296 30.0415 599.645 34.0924 M574.246 49.9314 Q574.246 58.1548 577.608 62.8538 Q581.011 67.5124 586.925 67.5124 Q592.84 67.5124 596.242 62.8538 Q599.645 58.1548 599.645 49.9314 Q599.645 41.7081 596.242 37.0496 Q592.84 32.3505 586.925 32.3505 Q581.011 32.3505 577.608 37.0496 Q574.246 41.7081 574.246 49.9314 Z" fill="#000000" fill-rule="evenodd" fill-opacity="1" /><path clip-path="url(#clip550)" d="M622.452 27.2059 L629.905 27.2059 L629.905 72.576 L622.452 72.576 L622.452 27.2059 M622.452 9.54393 L629.905 9.54393 L629.905 18.9825 L622.452 18.9825 L622.452 9.54393 Z" fill="#000000" fill-rule="evenodd" fill-opacity="1" /><path clip-path="url(#clip550)" d="M674.425 28.5427 L674.425 35.5912 Q671.265 33.9709 667.862 33.1607 Q664.46 32.3505 660.814 32.3505 Q655.264 32.3505 652.469 34.0519 Q649.714 35.7533 649.714 39.156 Q649.714 41.7486 651.699 43.2475 Q653.684 44.7058 659.68 46.0426 L662.232 46.6097 Q670.171 48.3111 673.493 51.4303 Q676.855 54.509 676.855 60.0587 Q676.855 66.3781 671.832 70.0644 Q666.85 73.7508 658.1 73.7508 Q654.454 73.7508 650.484 73.0216 Q646.555 72.3329 642.18 70.9151 L642.18 63.2184 Q646.312 65.3654 650.322 66.4591 Q654.332 67.5124 658.262 67.5124 Q663.528 67.5124 666.364 65.73 Q669.199 63.9071 669.199 60.6258 Q669.199 57.5877 667.133 55.9673 Q665.108 54.3469 658.181 52.8481 L655.588 52.2405 Q648.661 50.7821 645.582 47.7845 Q642.504 44.7463 642.504 39.4801 Q642.504 33.0797 647.041 29.5959 Q651.578 26.1121 659.923 26.1121 Q664.055 26.1121 667.7 26.7198 Q671.346 27.3274 674.425 28.5427 Z" fill="#000000" fill-rule="evenodd" fill-opacity="1" /><path clip-path="url(#clip550)" d="M696.097 14.324 L696.097 27.2059 L711.45 27.2059 L711.45 32.9987 L696.097 32.9987 L696.097 57.6282 Q696.097 63.1779 697.596 64.7578 Q699.135 66.3376 703.794 66.3376 L711.45 66.3376 L711.45 72.576 L703.794 72.576 Q695.166 72.576 691.884 69.3758 Q688.603 66.1351 688.603 57.6282 L688.603 32.9987 L683.134 32.9987 L683.134 27.2059 L688.603 27.2059 L688.603 14.324 L696.097 14.324 Z" fill="#000000" fill-rule="evenodd" fill-opacity="1" /><path clip-path="url(#clip550)" d="M747.544 34.1734 Q746.288 33.4443 744.789 33.1202 Q743.331 32.7556 741.548 32.7556 Q735.229 32.7556 731.826 36.8875 Q728.464 40.9789 728.464 48.6757 L728.464 72.576 L720.97 72.576 L720.97 27.2059 L728.464 27.2059 L728.464 34.2544 Q730.813 30.1225 734.581 28.1376 Q738.348 26.1121 743.736 26.1121 Q744.506 26.1121 745.437 26.2337 Q746.369 26.3147 747.503 26.5172 L747.544 34.1734 Z" fill="#000000" fill-rule="evenodd" fill-opacity="1" /><path clip-path="url(#clip550)" d="M755.362 27.2059 L762.816 27.2059 L762.816 72.576 L755.362 72.576 L755.362 27.2059 M755.362 9.54393 L762.816 9.54393 L762.816 18.9825 L755.362 18.9825 L755.362 9.54393 Z" fill="#000000" fill-rule="evenodd" fill-opacity="1" /><path clip-path="url(#clip550)" d="M810.981 49.9314 Q810.981 41.7081 807.578 37.0496 Q804.216 32.3505 798.302 32.3505 Q792.387 32.3505 788.984 37.0496 Q785.622 41.7081 785.622 49.9314 Q785.622 58.1548 788.984 62.8538 Q792.387 67.5124 798.302 67.5124 Q804.216 67.5124 807.578 62.8538 Q810.981 58.1548 810.981 49.9314 M785.622 34.0924 Q787.972 30.0415 791.537 28.0971 Q795.142 26.1121 800.124 26.1121 Q808.388 26.1121 813.533 32.6746 Q818.718 39.2371 818.718 49.9314 Q818.718 60.6258 813.533 67.1883 Q808.388 73.7508 800.124 73.7508 Q795.142 73.7508 791.537 71.8063 Q787.972 69.8214 785.622 65.7705 L785.622 72.576 L778.128 72.576 L778.128 9.54393 L785.622 9.54393 L785.622 34.0924 Z" fill="#000000" fill-rule="evenodd" fill-opacity="1" /><path clip-path="url(#clip550)" d="M830.304 54.671 L830.304 27.2059 L837.757 27.2059 L837.757 54.3874 Q837.757 60.8284 840.269 64.0691 Q842.78 67.2693 847.804 67.2693 Q853.839 67.2693 857.323 63.421 Q860.848 59.5726 860.848 52.9291 L860.848 27.2059 L868.301 27.2059 L868.301 72.576 L860.848 72.576 L860.848 65.6084 Q858.133 69.7404 854.528 71.7658 Q850.963 73.7508 846.224 73.7508 Q838.405 73.7508 834.355 68.8897 Q830.304 64.0286 830.304 54.671 M849.059 26.1121 L849.059 26.1121 Z" fill="#000000" fill-rule="evenodd" fill-opacity="1" /><path clip-path="url(#clip550)" d="M891.027 14.324 L891.027 27.2059 L906.38 27.2059 L906.38 32.9987 L891.027 32.9987 L891.027 57.6282 Q891.027 63.1779 892.526 64.7578 Q894.065 66.3376 898.723 66.3376 L906.38 66.3376 L906.38 72.576 L898.723 72.576 Q890.095 72.576 886.814 69.3758 Q883.533 66.1351 883.533 57.6282 L883.533 32.9987 L878.064 32.9987 L878.064 27.2059 L883.533 27.2059 L883.533 14.324 L891.027 14.324 Z" fill="#000000" fill-rule="evenodd" fill-opacity="1" /><path clip-path="url(#clip550)" d="M916.183 27.2059 L923.637 27.2059 L923.637 72.576 L916.183 72.576 L916.183 27.2059 M916.183 9.54393 L923.637 9.54393 L923.637 18.9825 L916.183 18.9825 L916.183 9.54393 Z" fill="#000000" fill-rule="evenodd" fill-opacity="1" /><path clip-path="url(#clip550)" d="M956.813 32.4315 Q950.818 32.4315 947.334 37.1306 Q943.851 41.7891 943.851 49.9314 Q943.851 58.0738 947.294 62.7728 Q950.778 67.4314 956.813 67.4314 Q962.768 67.4314 966.252 62.7323 Q969.736 58.0333 969.736 49.9314 Q969.736 41.8701 966.252 37.1711 Q962.768 32.4315 956.813 32.4315 M956.813 26.1121 Q966.536 26.1121 972.085 32.4315 Q977.635 38.7509 977.635 49.9314 Q977.635 61.0714 972.085 67.4314 Q966.536 73.7508 956.813 73.7508 Q947.051 73.7508 941.501 67.4314 Q935.992 61.0714 935.992 49.9314 Q935.992 38.7509 941.501 32.4315 Q947.051 26.1121 956.813 26.1121 Z" fill="#000000" fill-rule="evenodd" fill-opacity="1" /><path clip-path="url(#clip550)" d="M1027.7 45.1919 L1027.7 72.576 L1020.25 72.576 L1020.25 45.4349 Q1020.25 38.994 1017.74 35.7938 Q1015.23 32.5936 1010.2 32.5936 Q1004.17 32.5936 1000.68 36.4419 Q997.201 40.2903 997.201 46.9338 L997.201 72.576 L989.707 72.576 L989.707 27.2059 L997.201 27.2059 L997.201 34.2544 Q999.875 30.163 1003.48 28.1376 Q1007.13 26.1121 1011.87 26.1121 Q1019.68 26.1121 1023.69 30.9732 Q1027.7 35.7938 1027.7 45.1919 Z" fill="#000000" fill-rule="evenodd" fill-opacity="1" /><path clip-path="url(#clip550)" d="M1044.47 62.2867 L1053.02 62.2867 L1053.02 69.2543 L1046.38 82.2172 L1041.15 82.2172 L1044.47 69.2543 L1044.47 62.2867 Z" fill="#000000" fill-rule="evenodd" fill-opacity="1" /><path clip-path="url(#clip550)" d="M1130.64 35.9153 Q1133.43 30.8922 1137.32 28.5022 Q1141.21 26.1121 1146.48 26.1121 Q1153.57 26.1121 1157.41 31.0947 Q1161.26 36.0368 1161.26 45.1919 L1161.26 72.576 L1153.77 72.576 L1153.77 45.4349 Q1153.77 38.913 1151.46 35.7533 Q1149.15 32.5936 1144.41 32.5936 Q1138.62 32.5936 1135.26 36.4419 Q1131.89 40.2903 1131.89 46.9338 L1131.89 72.576 L1124.4 72.576 L1124.4 45.4349 Q1124.4 38.8725 1122.09 35.7533 Q1119.78 32.5936 1114.96 32.5936 Q1109.25 32.5936 1105.89 36.4824 Q1102.52 40.3308 1102.52 46.9338 L1102.52 72.576 L1095.03 72.576 L1095.03 27.2059 L1102.52 27.2059 L1102.52 34.2544 Q1105.08 30.082 1108.64 28.0971 Q1112.21 26.1121 1117.11 26.1121 Q1122.05 26.1121 1125.49 28.6237 Q1128.98 31.1352 1130.64 35.9153 Z" fill="#000000" fill-rule="evenodd" fill-opacity="1" /><path clip-path="url(#clip550)" d="M1214.94 48.0275 L1214.94 51.6733 L1180.67 51.6733 Q1181.15 59.3701 1185.28 63.421 Q1189.46 67.4314 1196.87 67.4314 Q1201.16 67.4314 1205.17 66.3781 Q1209.23 65.3249 1213.2 63.2184 L1213.2 70.267 Q1209.18 71.9684 1204.97 72.8596 Q1200.76 73.7508 1196.42 73.7508 Q1185.57 73.7508 1179.21 67.4314 Q1172.89 61.1119 1172.89 50.3365 Q1172.89 39.1965 1178.88 32.6746 Q1184.92 26.1121 1195.13 26.1121 Q1204.28 26.1121 1209.59 32.0264 Q1214.94 37.9003 1214.94 48.0275 M1207.48 45.84 Q1207.4 39.7232 1204.04 36.0774 Q1200.72 32.4315 1195.21 32.4315 Q1188.97 32.4315 1185.2 35.9558 Q1181.48 39.4801 1180.91 45.8805 L1207.48 45.84 Z" fill="#000000" fill-rule="evenodd" fill-opacity="1" /><path clip-path="url(#clip550)" d="M1247.79 49.7694 Q1238.76 49.7694 1235.27 51.8354 Q1231.79 53.9013 1231.79 58.8839 Q1231.79 62.8538 1234.38 65.2034 Q1237.01 67.5124 1241.51 67.5124 Q1247.71 67.5124 1251.44 63.1374 Q1255.2 58.7219 1255.2 51.4303 L1255.2 49.7694 L1247.79 49.7694 M1262.66 46.6907 L1262.66 72.576 L1255.2 72.576 L1255.2 65.6895 Q1252.65 69.8214 1248.84 71.8063 Q1245.04 73.7508 1239.53 73.7508 Q1232.56 73.7508 1228.43 69.8619 Q1224.34 65.9325 1224.34 59.3701 Q1224.34 51.7138 1229.44 47.825 Q1234.58 43.9361 1244.75 43.9361 L1255.2 43.9361 L1255.2 43.2069 Q1255.2 38.0623 1251.8 35.2672 Q1248.44 32.4315 1242.32 32.4315 Q1238.43 32.4315 1234.75 33.3632 Q1231.06 34.295 1227.66 36.1584 L1227.66 29.2718 Q1231.75 27.692 1235.6 26.9223 Q1239.45 26.1121 1243.09 26.1121 Q1252.93 26.1121 1257.8 31.2163 Q1262.66 36.3204 1262.66 46.6907 Z" fill="#000000" fill-rule="evenodd" fill-opacity="1" /><path clip-path="url(#clip550)" d="M1315.72 45.1919 L1315.72 72.576 L1308.27 72.576 L1308.27 45.4349 Q1308.27 38.994 1305.76 35.7938 Q1303.25 32.5936 1298.22 32.5936 Q1292.19 32.5936 1288.7 36.4419 Q1285.22 40.2903 1285.22 46.9338 L1285.22 72.576 L1277.73 72.576 L1277.73 27.2059 L1285.22 27.2059 L1285.22 34.2544 Q1287.89 30.163 1291.5 28.1376 Q1295.14 26.1121 1299.88 26.1121 Q1307.7 26.1121 1311.71 30.9732 Q1315.72 35.7938 1315.72 45.1919 Z" fill="#000000" fill-rule="evenodd" fill-opacity="1" /><path clip-path="url(#clip550)" d="M1331.56 34.9026 L1383.5 34.9026 L1383.5 41.7081 L1331.56 41.7081 L1331.56 34.9026 M1331.56 51.4303 L1383.5 51.4303 L1383.5 58.3168 L1331.56 58.3168 L1331.56 51.4303 Z" fill="#000000" fill-rule="evenodd" fill-opacity="1" /><path clip-path="url(#clip550)" d="M1418.66 17.4837 Q1412.34 17.4837 1409.14 23.7221 Q1405.98 29.92 1405.98 42.3968 Q1405.98 54.833 1409.14 61.0714 Q1412.34 67.2693 1418.66 67.2693 Q1425.02 67.2693 1428.18 61.0714 Q1431.38 54.833 1431.38 42.3968 Q1431.38 29.92 1428.18 23.7221 Q1425.02 17.4837 1418.66 17.4837 M1418.66 11.0023 Q1428.82 11.0023 1434.17 19.0636 Q1439.56 27.0843 1439.56 42.3968 Q1439.56 57.6687 1434.17 65.73 Q1428.82 73.7508 1418.66 73.7508 Q1408.49 73.7508 1403.1 65.73 Q1397.75 57.6687 1397.75 42.3968 Q1397.75 27.0843 1403.1 19.0636 Q1408.49 11.0023 1418.66 11.0023 Z" fill="#000000" fill-rule="evenodd" fill-opacity="1" /><path clip-path="url(#clip550)" d="M1453.94 62.2867 L1462.49 62.2867 L1462.49 72.576 L1453.94 72.576 L1453.94 62.2867 Z" fill="#000000" fill-rule="evenodd" fill-opacity="1" /><path clip-path="url(#clip550)" d="M1487.36 65.6895 L1515.92 65.6895 L1515.92 72.576 L1477.52 72.576 L1477.52 65.6895 Q1482.18 60.8689 1490.2 52.7671 Q1498.26 44.6248 1500.32 42.2752 Q1504.25 37.8598 1505.79 34.8216 Q1507.37 31.7429 1507.37 28.7857 Q1507.37 23.9651 1503.97 20.927 Q1500.61 17.8888 1495.18 17.8888 Q1491.33 17.8888 1487.04 19.2256 Q1482.78 20.5624 1477.92 23.2765 L1477.92 15.0127 Q1482.86 13.0277 1487.16 12.015 Q1491.45 11.0023 1495.02 11.0023 Q1504.41 11.0023 1510 15.7013 Q1515.6 20.4004 1515.6 28.2591 Q1515.6 31.9859 1514.18 35.3482 Q1512.8 38.6699 1509.11 43.2069 Q1508.1 44.3817 1502.67 50.0125 Q1497.24 55.6027 1487.36 65.6895 Z" fill="#000000" fill-rule="evenodd" fill-opacity="1" /><path clip-path="url(#clip550)" d="M1533.34 71.3202 L1533.34 63.8666 Q1536.42 65.3249 1539.58 66.0946 Q1542.74 66.8642 1545.77 66.8642 Q1553.88 66.8642 1558.13 61.436 Q1562.42 55.9673 1563.03 44.8678 Q1560.68 48.3516 1557.08 50.215 Q1553.47 52.0784 1549.1 52.0784 Q1540.02 52.0784 1534.72 46.6097 Q1529.45 41.1005 1529.45 31.5808 Q1529.45 22.2638 1534.96 16.633 Q1540.47 11.0023 1549.62 11.0023 Q1560.11 11.0023 1565.62 19.0636 Q1571.17 27.0843 1571.17 42.3968 Q1571.17 56.6965 1564.37 65.2439 Q1557.6 73.7508 1546.14 73.7508 Q1543.06 73.7508 1539.9 73.1431 Q1536.74 72.5355 1533.34 71.3202 M1549.62 45.678 Q1555.13 45.678 1558.33 41.9107 Q1561.57 38.1433 1561.57 31.5808 Q1561.57 25.0589 1558.33 21.2916 Q1555.13 17.4837 1549.62 17.4837 Q1544.11 17.4837 1540.87 21.2916 Q1537.67 25.0589 1537.67 31.5808 Q1537.67 38.1433 1540.87 41.9107 Q1544.11 45.678 1549.62 45.678 Z" fill="#000000" fill-rule="evenodd" fill-opacity="1" /><path clip-path="url(#clip550)" d="M1583.81 12.096 L1622.7 12.096 L1622.7 15.5798 L1600.75 72.576 L1592.2 72.576 L1612.86 18.9825 L1583.81 18.9825 L1583.81 12.096 Z" fill="#000000" fill-rule="evenodd" fill-opacity="1" /><path clip-path="url(#clip550)" d="M1661.14 19.2256 L1640.48 51.5113 L1661.14 51.5113 L1661.14 19.2256 M1659 12.096 L1669.29 12.096 L1669.29 51.5113 L1677.91 51.5113 L1677.91 58.3168 L1669.29 58.3168 L1669.29 72.576 L1661.14 72.576 L1661.14 58.3168 L1633.84 58.3168 L1633.84 50.4176 L1659 12.096 Z" fill="#000000" fill-rule="evenodd" fill-opacity="1" /><path clip-path="url(#clip550)" d="M1703.31 16.2279 Q1700.07 16.2279 1697.85 18.4964 Q1695.62 20.7244 1695.62 23.9651 Q1695.62 27.1654 1697.85 29.3934 Q1700.07 31.5808 1703.31 31.5808 Q1706.55 31.5808 1708.78 29.3934 Q1711.01 27.1654 1711.01 23.9651 Q1711.01 20.7649 1708.74 18.4964 Q1706.51 16.2279 1703.31 16.2279 M1703.31 11.0023 Q1705.91 11.0023 1708.3 12.015 Q1710.69 12.9872 1712.43 14.8506 Q1714.29 16.6735 1715.22 18.9825 Q1716.16 21.2916 1716.16 23.9651 Q1716.16 29.3123 1712.39 33.0392 Q1708.66 36.7255 1703.23 36.7255 Q1697.76 36.7255 1694.12 33.0797 Q1690.47 29.4339 1690.47 23.9651 Q1690.47 18.5369 1694.2 14.7696 Q1697.93 11.0023 1703.31 11.0023 Z" fill="#000000" fill-rule="evenodd" fill-opacity="1" /><path clip-path="url(#clip550)" d="M1733.78 62.2867 L1742.32 62.2867 L1742.32 69.2543 L1735.68 82.2172 L1730.46 82.2172 L1733.78 69.2543 L1733.78 62.2867 Z" fill="#000000" fill-rule="evenodd" fill-opacity="1" /><path clip-path="url(#clip550)" d="M1813.54 28.5427 L1813.54 35.5912 Q1810.38 33.9709 1806.98 33.1607 Q1803.57 32.3505 1799.93 32.3505 Q1794.38 32.3505 1791.58 34.0519 Q1788.83 35.7533 1788.83 39.156 Q1788.83 41.7486 1790.81 43.2475 Q1792.8 44.7058 1798.79 46.0426 L1801.35 46.6097 Q1809.29 48.3111 1812.61 51.4303 Q1815.97 54.509 1815.97 60.0587 Q1815.97 66.3781 1810.95 70.0644 Q1805.96 73.7508 1797.21 73.7508 Q1793.57 73.7508 1789.6 73.0216 Q1785.67 72.3329 1781.29 70.9151 L1781.29 63.2184 Q1785.43 65.3654 1789.44 66.4591 Q1793.45 67.5124 1797.38 67.5124 Q1802.64 67.5124 1805.48 65.73 Q1808.31 63.9071 1808.31 60.6258 Q1808.31 57.5877 1806.25 55.9673 Q1804.22 54.3469 1797.3 52.8481 L1794.7 52.2405 Q1787.78 50.7821 1784.7 47.7845 Q1781.62 44.7463 1781.62 39.4801 Q1781.62 33.0797 1786.16 29.5959 Q1790.69 26.1121 1799.04 26.1121 Q1803.17 26.1121 1806.81 26.7198 Q1810.46 27.3274 1813.54 28.5427 Z" fill="#000000" fill-rule="evenodd" fill-opacity="1" /><path clip-path="url(#clip550)" d="M1835.21 14.324 L1835.21 27.2059 L1850.56 27.2059 L1850.56 32.9987 L1835.21 32.9987 L1835.21 57.6282 Q1835.21 63.1779 1836.71 64.7578 Q1838.25 66.3376 1842.91 66.3376 L1850.56 66.3376 L1850.56 72.576 L1842.91 72.576 Q1834.28 72.576 1831 69.3758 Q1827.72 66.1351 1827.72 57.6282 L1827.72 32.9987 L1822.25 32.9987 L1822.25 27.2059 L1827.72 27.2059 L1827.72 14.324 L1835.21 14.324 Z" fill="#000000" fill-rule="evenodd" fill-opacity="1" /><path clip-path="url(#clip550)" d="M1890.22 34.0924 L1890.22 9.54393 L1897.68 9.54393 L1897.68 72.576 L1890.22 72.576 L1890.22 65.7705 Q1887.87 69.8214 1884.27 71.8063 Q1880.7 73.7508 1875.68 73.7508 Q1867.46 73.7508 1862.27 67.1883 Q1857.13 60.6258 1857.13 49.9314 Q1857.13 39.2371 1862.27 32.6746 Q1867.46 26.1121 1875.68 26.1121 Q1880.7 26.1121 1884.27 28.0971 Q1887.87 30.0415 1890.22 34.0924 M1864.82 49.9314 Q1864.82 58.1548 1868.19 62.8538 Q1871.59 67.5124 1877.5 67.5124 Q1883.42 67.5124 1886.82 62.8538 Q1890.22 58.1548 1890.22 49.9314 Q1890.22 41.7081 1886.82 37.0496 Q1883.42 32.3505 1877.5 32.3505 Q1871.59 32.3505 1868.19 37.0496 Q1864.82 41.7081 1864.82 49.9314 Z" fill="#000000" fill-rule="evenodd" fill-opacity="1" /><path clip-path="url(#clip550)" d="M1914 34.9026 L1965.93 34.9026 L1965.93 41.7081 L1914 41.7081 L1914 34.9026 M1914 51.4303 L1965.93 51.4303 L1965.93 58.3168 L1914 58.3168 L1914 51.4303 Z" fill="#000000" fill-rule="evenodd" fill-opacity="1" /><path clip-path="url(#clip550)" d="M1990.64 65.6895 L2019.2 65.6895 L2019.2 72.576 L1980.8 72.576 L1980.8 65.6895 Q1985.46 60.8689 1993.48 52.7671 Q2001.54 44.6248 2003.61 42.2752 Q2007.54 37.8598 2009.08 34.8216 Q2010.66 31.7429 2010.66 28.7857 Q2010.66 23.9651 2007.25 20.927 Q2003.89 17.8888 1998.46 17.8888 Q1994.61 17.8888 1990.32 19.2256 Q1986.07 20.5624 1981.21 23.2765 L1981.21 15.0127 Q1986.15 13.0277 1990.44 12.015 Q1994.74 11.0023 1998.3 11.0023 Q2007.7 11.0023 2013.29 15.7013 Q2018.88 20.4004 2018.88 28.2591 Q2018.88 31.9859 2017.46 35.3482 Q2016.08 38.6699 2012.4 43.2069 Q2011.39 44.3817 2005.96 50.0125 Q2000.53 55.6027 1990.64 65.6895 Z" fill="#000000" fill-rule="evenodd" fill-opacity="1" /><path clip-path="url(#clip550)" d="M2036.38 62.2867 L2044.93 62.2867 L2044.93 72.576 L2036.38 72.576 L2036.38 62.2867 Z" fill="#000000" fill-rule="evenodd" fill-opacity="1" /><path clip-path="url(#clip550)" d="M2062.83 12.096 L2094.96 12.096 L2094.96 18.9825 L2070.33 18.9825 L2070.33 33.8088 Q2072.11 33.2012 2073.89 32.9176 Q2075.67 32.5936 2077.46 32.5936 Q2087.58 32.5936 2093.5 38.1433 Q2099.41 43.6931 2099.41 53.1722 Q2099.41 62.9348 2093.34 68.3631 Q2087.26 73.7508 2076.2 73.7508 Q2072.39 73.7508 2068.42 73.1026 Q2064.49 72.4545 2060.28 71.1582 L2060.28 62.9348 Q2063.93 64.9198 2067.81 65.892 Q2071.7 66.8642 2076.04 66.8642 Q2083.05 66.8642 2087.14 63.1779 Q2091.23 59.4916 2091.23 53.1722 Q2091.23 46.8528 2087.14 43.1664 Q2083.05 39.4801 2076.04 39.4801 Q2072.76 39.4801 2069.48 40.2093 Q2066.23 40.9384 2062.83 42.4778 L2062.83 12.096 Z" fill="#000000" fill-rule="evenodd" fill-opacity="1" /><path clip-path="url(#clip550)" d="M2138.02 19.2256 L2117.36 51.5113 L2138.02 51.5113 L2138.02 19.2256 M2135.87 12.096 L2146.16 12.096 L2146.16 51.5113 L2154.79 51.5113 L2154.79 58.3168 L2146.16 58.3168 L2146.16 72.576 L2138.02 72.576 L2138.02 58.3168 L2110.71 58.3168 L2110.71 50.4176 L2135.87 12.096 Z" fill="#000000" fill-rule="evenodd" fill-opacity="1" /><path clip-path="url(#clip550)" d="M2168.56 71.3202 L2168.56 63.8666 Q2171.64 65.3249 2174.8 66.0946 Q2177.96 66.8642 2181 66.8642 Q2189.1 66.8642 2193.35 61.436 Q2197.65 55.9673 2198.25 44.8678 Q2195.9 48.3516 2192.3 50.215 Q2188.69 52.0784 2184.32 52.0784 Q2175.24 52.0784 2169.94 46.6097 Q2164.67 41.1005 2164.67 31.5808 Q2164.67 22.2638 2170.18 16.633 Q2175.69 11.0023 2184.85 11.0023 Q2195.34 11.0023 2200.85 19.0636 Q2206.4 27.0843 2206.4 42.3968 Q2206.4 56.6965 2199.59 65.2439 Q2192.83 73.7508 2181.36 73.7508 Q2178.28 73.7508 2175.12 73.1431 Q2171.96 72.5355 2168.56 71.3202 M2184.85 45.678 Q2190.35 45.678 2193.55 41.9107 Q2196.8 38.1433 2196.8 31.5808 Q2196.8 25.0589 2193.55 21.2916 Q2190.35 17.4837 2184.85 17.4837 Q2179.34 17.4837 2176.1 21.2916 Q2172.89 25.0589 2172.89 31.5808 Q2172.89 38.1433 2176.1 41.9107 Q2179.34 45.678 2184.85 45.678 Z" fill="#000000" fill-rule="evenodd" fill-opacity="1" /><path clip-path="url(#clip550)" d="M2232.97 16.2279 Q2229.73 16.2279 2227.5 18.4964 Q2225.27 20.7244 2225.27 23.9651 Q2225.27 27.1654 2227.5 29.3934 Q2229.73 31.5808 2232.97 31.5808 Q2236.21 31.5808 2238.44 29.3934 Q2240.67 27.1654 2240.67 23.9651 Q2240.67 20.7649 2238.4 18.4964 Q2236.17 16.2279 2232.97 16.2279 M2232.97 11.0023 Q2235.56 11.0023 2237.95 12.015 Q2240.34 12.9872 2242.08 14.8506 Q2243.95 16.6735 2244.88 18.9825 Q2245.81 21.2916 2245.81 23.9651 Q2245.81 29.3123 2242.04 33.0392 Q2238.32 36.7255 2232.89 36.7255 Q2227.42 36.7255 2223.77 33.0797 Q2220.13 29.4339 2220.13 23.9651 Q2220.13 18.5369 2223.86 14.7696 Q2227.58 11.0023 2232.97 11.0023 Z" fill="#000000" fill-rule="evenodd" fill-opacity="1" /><path clip-path="url(#clip552)" d="
M349.013 1365.26 L349.013 1386.4 L474.821 1386.4 L474.821 1365.26 L349.013 1365.26 L349.013 1365.26  Z
  " fill="#009af9" fill-rule="evenodd" fill-opacity="1"/>
<polyline clip-path="url(#clip552)" style="stroke:#000000; stroke-linecap:butt; stroke-linejoin:round; stroke-width:4; stroke-opacity:1; fill:none" points="
  349.013,1365.26 349.013,1386.4 474.821,1386.4 474.821,1365.26 349.013,1365.26 
  "/>
<path clip-path="url(#clip552)" d="
M474.821 1291.26 L474.821 1386.4 L600.629 1386.4 L600.629 1291.26 L474.821 1291.26 L474.821 1291.26  Z
  " fill="#009af9" fill-rule="evenodd" fill-opacity="1"/>
<polyline clip-path="url(#clip552)" style="stroke:#000000; stroke-linecap:butt; stroke-linejoin:round; stroke-width:4; stroke-opacity:1; fill:none" points="
  474.821,1291.26 474.821,1386.4 600.629,1386.4 600.629,1291.26 474.821,1291.26 
  "/>
<path clip-path="url(#clip552)" d="
M600.629 1143.28 L600.629 1386.4 L726.437 1386.4 L726.437 1143.28 L600.629 1143.28 L600.629 1143.28  Z
  " fill="#009af9" fill-rule="evenodd" fill-opacity="1"/>
<polyline clip-path="url(#clip552)" style="stroke:#000000; stroke-linecap:butt; stroke-linejoin:round; stroke-width:4; stroke-opacity:1; fill:none" points="
  600.629,1143.28 600.629,1386.4 726.437,1386.4 726.437,1143.28 600.629,1143.28 
  "/>
<path clip-path="url(#clip552)" d="
M726.437 942.449 L726.437 1386.4 L852.245 1386.4 L852.245 942.449 L726.437 942.449 L726.437 942.449  Z
  " fill="#009af9" fill-rule="evenodd" fill-opacity="1"/>
<polyline clip-path="url(#clip552)" style="stroke:#000000; stroke-linecap:butt; stroke-linejoin:round; stroke-width:4; stroke-opacity:1; fill:none" points="
  726.437,942.449 726.437,1386.4 852.245,1386.4 852.245,942.449 726.437,942.449 
  "/>
<path clip-path="url(#clip552)" d="
M852.245 657.054 L852.245 1386.4 L978.053 1386.4 L978.053 657.054 L852.245 657.054 L852.245 657.054  Z
  " fill="#009af9" fill-rule="evenodd" fill-opacity="1"/>
<polyline clip-path="url(#clip552)" style="stroke:#000000; stroke-linecap:butt; stroke-linejoin:round; stroke-width:4; stroke-opacity:1; fill:none" points="
  852.245,657.054 852.245,1386.4 978.053,1386.4 978.053,657.054 852.245,657.054 
  "/>
<path clip-path="url(#clip552)" d="
M978.053 392.8 L978.053 1386.4 L1103.86 1386.4 L1103.86 392.8 L978.053 392.8 L978.053 392.8  Z
  " fill="#009af9" fill-rule="evenodd" fill-opacity="1"/>
<polyline clip-path="url(#clip552)" style="stroke:#000000; stroke-linecap:butt; stroke-linejoin:round; stroke-width:4; stroke-opacity:1; fill:none" points="
  978.053,392.8 978.053,1386.4 1103.86,1386.4 1103.86,392.8 978.053,392.8 
  "/>
<path clip-path="url(#clip552)" d="
M1103.86 318.809 L1103.86 1386.4 L1229.67 1386.4 L1229.67 318.809 L1103.86 318.809 L1103.86 318.809  Z
  " fill="#009af9" fill-rule="evenodd" fill-opacity="1"/>
<polyline clip-path="url(#clip552)" style="stroke:#000000; stroke-linecap:butt; stroke-linejoin:round; stroke-width:4; stroke-opacity:1; fill:none" points="
  1103.86,318.809 1103.86,1386.4 1229.67,1386.4 1229.67,318.809 1103.86,318.809 
  "/>
<path clip-path="url(#clip552)" d="
M1229.67 202.537 L1229.67 1386.4 L1355.48 1386.4 L1355.48 202.537 L1229.67 202.537 L1229.67 202.537  Z
  " fill="#009af9" fill-rule="evenodd" fill-opacity="1"/>
<polyline clip-path="url(#clip552)" style="stroke:#000000; stroke-linecap:butt; stroke-linejoin:round; stroke-width:4; stroke-opacity:1; fill:none" points="
  1229.67,202.537 1229.67,1386.4 1355.48,1386.4 1355.48,202.537 1229.67,202.537 
  "/>
<path clip-path="url(#clip552)" d="
M1355.48 160.256 L1355.48 1386.4 L1481.28 1386.4 L1481.28 160.256 L1355.48 160.256 L1355.48 160.256  Z
  " fill="#009af9" fill-rule="evenodd" fill-opacity="1"/>
<polyline clip-path="url(#clip552)" style="stroke:#000000; stroke-linecap:butt; stroke-linejoin:round; stroke-width:4; stroke-opacity:1; fill:none" points="
  1355.48,160.256 1355.48,1386.4 1481.28,1386.4 1481.28,160.256 1355.48,160.256 
  "/>
<path clip-path="url(#clip552)" d="
M1481.28 614.773 L1481.28 1386.4 L1607.09 1386.4 L1607.09 614.773 L1481.28 614.773 L1481.28 614.773  Z
  " fill="#009af9" fill-rule="evenodd" fill-opacity="1"/>
<polyline clip-path="url(#clip552)" style="stroke:#000000; stroke-linecap:butt; stroke-linejoin:round; stroke-width:4; stroke-opacity:1; fill:none" points="
  1481.28,614.773 1481.28,1386.4 1607.09,1386.4 1607.09,614.773 1481.28,614.773 
  "/>
<path clip-path="url(#clip552)" d="
M1607.09 815.607 L1607.09 1386.4 L1732.9 1386.4 L1732.9 815.607 L1607.09 815.607 L1607.09 815.607  Z
  " fill="#009af9" fill-rule="evenodd" fill-opacity="1"/>
<polyline clip-path="url(#clip552)" style="stroke:#000000; stroke-linecap:butt; stroke-linejoin:round; stroke-width:4; stroke-opacity:1; fill:none" points="
  1607.09,815.607 1607.09,1386.4 1732.9,1386.4 1732.9,815.607 1607.09,815.607 
  "/>
<path clip-path="url(#clip552)" d="
M1732.9 984.729 L1732.9 1386.4 L1858.71 1386.4 L1858.71 984.729 L1732.9 984.729 L1732.9 984.729  Z
  " fill="#009af9" fill-rule="evenodd" fill-opacity="1"/>
<polyline clip-path="url(#clip552)" style="stroke:#000000; stroke-linecap:butt; stroke-linejoin:round; stroke-width:4; stroke-opacity:1; fill:none" points="
  1732.9,984.729 1732.9,1386.4 1858.71,1386.4 1858.71,984.729 1732.9,984.729 
  "/>
<path clip-path="url(#clip552)" d="
M1858.71 1206.7 L1858.71 1386.4 L1984.52 1386.4 L1984.52 1206.7 L1858.71 1206.7 L1858.71 1206.7  Z
  " fill="#009af9" fill-rule="evenodd" fill-opacity="1"/>
<polyline clip-path="url(#clip552)" style="stroke:#000000; stroke-linecap:butt; stroke-linejoin:round; stroke-width:4; stroke-opacity:1; fill:none" points="
  1858.71,1206.7 1858.71,1386.4 1984.52,1386.4 1984.52,1206.7 1858.71,1206.7 
  "/>
<path clip-path="url(#clip552)" d="
M1984.52 1333.54 L1984.52 1386.4 L2110.32 1386.4 L2110.32 1333.54 L1984.52 1333.54 L1984.52 1333.54  Z
  " fill="#009af9" fill-rule="evenodd" fill-opacity="1"/>
<polyline clip-path="url(#clip552)" style="stroke:#000000; stroke-linecap:butt; stroke-linejoin:round; stroke-width:4; stroke-opacity:1; fill:none" points="
  1984.52,1333.54 1984.52,1386.4 2110.32,1386.4 2110.32,1333.54 1984.52,1333.54 
  "/>
<path clip-path="url(#clip552)" d="
M2110.32 1375.83 L2110.32 1386.4 L2236.13 1386.4 L2236.13 1375.83 L2110.32 1375.83 L2110.32 1375.83  Z
  " fill="#009af9" fill-rule="evenodd" fill-opacity="1"/>
<polyline clip-path="url(#clip552)" style="stroke:#000000; stroke-linecap:butt; stroke-linejoin:round; stroke-width:4; stroke-opacity:1; fill:none" points="
  2110.32,1375.83 2110.32,1386.4 2236.13,1386.4 2236.13,1375.83 2110.32,1375.83 
  "/>
<circle clip-path="url(#clip552)" style="fill:#009af9; stroke:none; fill-opacity:0" cx="411.917" cy="1365.26" r="2"/>
<circle clip-path="url(#clip552)" style="fill:#009af9; stroke:none; fill-opacity:0" cx="537.725" cy="1291.26" r="2"/>
<circle clip-path="url(#clip552)" style="fill:#009af9; stroke:none; fill-opacity:0" cx="663.533" cy="1143.28" r="2"/>
<circle clip-path="url(#clip552)" style="fill:#009af9; stroke:none; fill-opacity:0" cx="789.341" cy="942.449" r="2"/>
<circle clip-path="url(#clip552)" style="fill:#009af9; stroke:none; fill-opacity:0" cx="915.149" cy="657.054" r="2"/>
<circle clip-path="url(#clip552)" style="fill:#009af9; stroke:none; fill-opacity:0" cx="1040.96" cy="392.8" r="2"/>
<circle clip-path="url(#clip552)" style="fill:#009af9; stroke:none; fill-opacity:0" cx="1166.76" cy="318.809" r="2"/>
<circle clip-path="url(#clip552)" style="fill:#009af9; stroke:none; fill-opacity:0" cx="1292.57" cy="202.537" r="2"/>
<circle clip-path="url(#clip552)" style="fill:#009af9; stroke:none; fill-opacity:0" cx="1418.38" cy="160.256" r="2"/>
<circle clip-path="url(#clip552)" style="fill:#009af9; stroke:none; fill-opacity:0" cx="1544.19" cy="614.773" r="2"/>
<circle clip-path="url(#clip552)" style="fill:#009af9; stroke:none; fill-opacity:0" cx="1670" cy="815.607" r="2"/>
<circle clip-path="url(#clip552)" style="fill:#009af9; stroke:none; fill-opacity:0" cx="1795.8" cy="984.729" r="2"/>
<circle clip-path="url(#clip552)" style="fill:#009af9; stroke:none; fill-opacity:0" cx="1921.61" cy="1206.7" r="2"/>
<circle clip-path="url(#clip552)" style="fill:#009af9; stroke:none; fill-opacity:0" cx="2047.42" cy="1333.54" r="2"/>
<circle clip-path="url(#clip552)" style="fill:#009af9; stroke:none; fill-opacity:0" cx="2173.23" cy="1375.83" r="2"/>
</svg>
