<?xml version="1.0" encoding="utf-8"?>
<svg xmlns="http://www.w3.org/2000/svg" xmlns:xlink="http://www.w3.org/1999/xlink" width="600" height="400" viewBox="0 0 2400 1600">
<defs>
  <clipPath id="clip390">
    <rect x="0" y="0" width="2400" height="1600"/>
  </clipPath>
</defs>
<path clip-path="url(#clip390)" d="
M0 1600 L2400 1600 L2400 0 L0 0  Z
  " fill="#ffffff" fill-rule="evenodd" fill-opacity="1"/>
<defs>
  <clipPath id="clip391">
    <rect x="480" y="0" width="1681" height="1600"/>
  </clipPath>
</defs>
<path clip-path="url(#clip390)" d="
M219.866 1423.18 L2352.76 1423.18 L2352.76 123.472 L219.866 123.472  Z
  " fill="#ffffff" fill-rule="evenodd" fill-opacity="1"/>
<defs>
  <clipPath id="clip392">
    <rect x="219" y="123" width="2134" height="1301"/>
  </clipPath>
</defs>
<polyline clip-path="url(#clip392)" style="stroke:#000000; stroke-linecap:butt; stroke-linejoin:round; stroke-width:2; stroke-opacity:0.1; fill:none" points="
  280.231,1423.18 280.231,123.472 
  "/>
<polyline clip-path="url(#clip392)" style="stroke:#000000; stroke-linecap:butt; stroke-linejoin:round; stroke-width:2; stroke-opacity:0.1; fill:none" points="
  463.155,1423.18 463.155,123.472 
  "/>
<polyline clip-path="url(#clip392)" style="stroke:#000000; stroke-linecap:butt; stroke-linejoin:round; stroke-width:2; stroke-opacity:0.1; fill:none" points="
  646.078,1423.18 646.078,123.472 
  "/>
<polyline clip-path="url(#clip392)" style="stroke:#000000; stroke-linecap:butt; stroke-linejoin:round; stroke-width:2; stroke-opacity:0.1; fill:none" points="
  829.002,1423.18 829.002,123.472 
  "/>
<polyline clip-path="url(#clip392)" style="stroke:#000000; stroke-linecap:butt; stroke-linejoin:round; stroke-width:2; stroke-opacity:0.1; fill:none" points="
  1011.93,1423.18 1011.93,123.472 
  "/>
<polyline clip-path="url(#clip392)" style="stroke:#000000; stroke-linecap:butt; stroke-linejoin:round; stroke-width:2; stroke-opacity:0.1; fill:none" points="
  1194.85,1423.18 1194.85,123.472 
  "/>
<polyline clip-path="url(#clip392)" style="stroke:#000000; stroke-linecap:butt; stroke-linejoin:round; stroke-width:2; stroke-opacity:0.1; fill:none" points="
  1377.77,1423.18 1377.77,123.472 
  "/>
<polyline clip-path="url(#clip392)" style="stroke:#000000; stroke-linecap:butt; stroke-linejoin:round; stroke-width:2; stroke-opacity:0.1; fill:none" points="
  1560.7,1423.18 1560.7,123.472 
  "/>
<polyline clip-path="url(#clip392)" style="stroke:#000000; stroke-linecap:butt; stroke-linejoin:round; stroke-width:2; stroke-opacity:0.1; fill:none" points="
  1743.62,1423.18 1743.62,123.472 
  "/>
<polyline clip-path="url(#clip392)" style="stroke:#000000; stroke-linecap:butt; stroke-linejoin:round; stroke-width:2; stroke-opacity:0.1; fill:none" points="
  1926.54,1423.18 1926.54,123.472 
  "/>
<polyline clip-path="url(#clip392)" style="stroke:#000000; stroke-linecap:butt; stroke-linejoin:round; stroke-width:2; stroke-opacity:0.1; fill:none" points="
  2109.47,1423.18 2109.47,123.472 
  "/>
<polyline clip-path="url(#clip392)" style="stroke:#000000; stroke-linecap:butt; stroke-linejoin:round; stroke-width:2; stroke-opacity:0.1; fill:none" points="
  2292.39,1423.18 2292.39,123.472 
  "/>
<polyline clip-path="url(#clip390)" style="stroke:#000000; stroke-linecap:butt; stroke-linejoin:round; stroke-width:4; stroke-opacity:1; fill:none" points="
  219.866,1423.18 2352.76,1423.18 
  "/>
<polyline clip-path="url(#clip390)" style="stroke:#000000; stroke-linecap:butt; stroke-linejoin:round; stroke-width:4; stroke-opacity:1; fill:none" points="
  280.231,1423.18 280.231,1404.28 
  "/>
<polyline clip-path="url(#clip390)" style="stroke:#000000; stroke-linecap:butt; stroke-linejoin:round; stroke-width:4; stroke-opacity:1; fill:none" points="
  463.155,1423.18 463.155,1404.28 
  "/>
<polyline clip-path="url(#clip390)" style="stroke:#000000; stroke-linecap:butt; stroke-linejoin:round; stroke-width:4; stroke-opacity:1; fill:none" points="
  646.078,1423.18 646.078,1404.28 
  "/>
<polyline clip-path="url(#clip390)" style="stroke:#000000; stroke-linecap:butt; stroke-linejoin:round; stroke-width:4; stroke-opacity:1; fill:none" points="
  829.002,1423.18 829.002,1404.28 
  "/>
<polyline clip-path="url(#clip390)" style="stroke:#000000; stroke-linecap:butt; stroke-linejoin:round; stroke-width:4; stroke-opacity:1; fill:none" points="
  1011.93,1423.18 1011.93,1404.28 
  "/>
<polyline clip-path="url(#clip390)" style="stroke:#000000; stroke-linecap:butt; stroke-linejoin:round; stroke-width:4; stroke-opacity:1; fill:none" points="
  1194.85,1423.18 1194.85,1404.28 
  "/>
<polyline clip-path="url(#clip390)" style="stroke:#000000; stroke-linecap:butt; stroke-linejoin:round; stroke-width:4; stroke-opacity:1; fill:none" points="
  1377.77,1423.18 1377.77,1404.28 
  "/>
<polyline clip-path="url(#clip390)" style="stroke:#000000; stroke-linecap:butt; stroke-linejoin:round; stroke-width:4; stroke-opacity:1; fill:none" points="
  1560.7,1423.18 1560.7,1404.28 
  "/>
<polyline clip-path="url(#clip390)" style="stroke:#000000; stroke-linecap:butt; stroke-linejoin:round; stroke-width:4; stroke-opacity:1; fill:none" points="
  1743.62,1423.18 1743.62,1404.28 
  "/>
<polyline clip-path="url(#clip390)" style="stroke:#000000; stroke-linecap:butt; stroke-linejoin:round; stroke-width:4; stroke-opacity:1; fill:none" points="
  1926.54,1423.18 1926.54,1404.28 
  "/>
<polyline clip-path="url(#clip390)" style="stroke:#000000; stroke-linecap:butt; stroke-linejoin:round; stroke-width:4; stroke-opacity:1; fill:none" points="
  2109.47,1423.18 2109.47,1404.28 
  "/>
<polyline clip-path="url(#clip390)" style="stroke:#000000; stroke-linecap:butt; stroke-linejoin:round; stroke-width:4; stroke-opacity:1; fill:none" points="
  2292.39,1423.18 2292.39,1404.28 
  "/>
<path clip-path="url(#clip390)" d="M280.231 1452.37 Q276.62 1452.37 274.791 1455.94 Q272.986 1459.48 272.986 1466.61 Q272.986 1473.71 274.791 1477.28 Q276.62 1480.82 280.231 1480.82 Q283.865 1480.82 285.671 1477.28 Q287.5 1473.71 287.5 1466.61 Q287.5 1459.48 285.671 1455.94 Q283.865 1452.37 280.231 1452.37 M280.231 1448.67 Q286.041 1448.67 289.097 1453.27 Q292.175 1457.86 292.175 1466.61 Q292.175 1475.33 289.097 1479.94 Q286.041 1484.52 280.231 1484.52 Q274.421 1484.52 271.342 1479.94 Q268.287 1475.33 268.287 1466.61 Q268.287 1457.86 271.342 1453.27 Q274.421 1448.67 280.231 1448.67 Z" fill="#000000" fill-rule="evenodd" fill-opacity="1" /><path clip-path="url(#clip390)" d="M438.34 1479.92 L445.979 1479.92 L445.979 1453.55 L437.669 1455.22 L437.669 1450.96 L445.933 1449.29 L450.608 1449.29 L450.608 1479.92 L458.247 1479.92 L458.247 1483.85 L438.34 1483.85 L438.34 1479.92 Z" fill="#000000" fill-rule="evenodd" fill-opacity="1" /><path clip-path="url(#clip390)" d="M467.738 1449.29 L486.094 1449.29 L486.094 1453.23 L472.02 1453.23 L472.02 1461.7 Q473.039 1461.35 474.057 1461.19 Q475.076 1461 476.094 1461 Q481.881 1461 485.261 1464.18 Q488.641 1467.35 488.641 1472.76 Q488.641 1478.34 485.168 1481.44 Q481.696 1484.52 475.377 1484.52 Q473.201 1484.52 470.932 1484.15 Q468.687 1483.78 466.28 1483.04 L466.28 1478.34 Q468.363 1479.48 470.585 1480.03 Q472.807 1480.59 475.284 1480.59 Q479.289 1480.59 481.627 1478.48 Q483.965 1476.38 483.965 1472.76 Q483.965 1469.15 481.627 1467.05 Q479.289 1464.94 475.284 1464.94 Q473.409 1464.94 471.534 1465.36 Q469.682 1465.77 467.738 1466.65 L467.738 1449.29 Z" fill="#000000" fill-rule="evenodd" fill-opacity="1" /><path clip-path="url(#clip390)" d="M634.921 1465.22 Q638.277 1465.94 640.152 1468.2 Q642.051 1470.47 642.051 1473.81 Q642.051 1478.92 638.532 1481.72 Q635.014 1484.52 628.532 1484.52 Q626.356 1484.52 624.041 1484.08 Q621.75 1483.67 619.296 1482.81 L619.296 1478.3 Q621.241 1479.43 623.555 1480.01 Q625.87 1480.59 628.393 1480.59 Q632.791 1480.59 635.083 1478.85 Q637.398 1477.12 637.398 1473.81 Q637.398 1470.75 635.245 1469.04 Q633.115 1467.3 629.296 1467.3 L625.268 1467.3 L625.268 1463.46 L629.481 1463.46 Q632.93 1463.46 634.759 1462.09 Q636.588 1460.7 636.588 1458.11 Q636.588 1455.45 634.69 1454.04 Q632.815 1452.6 629.296 1452.6 Q627.375 1452.6 625.176 1453.02 Q622.977 1453.44 620.338 1454.31 L620.338 1450.15 Q623 1449.41 625.315 1449.04 Q627.653 1448.67 629.713 1448.67 Q635.037 1448.67 638.139 1451.1 Q641.24 1453.5 641.24 1457.63 Q641.24 1460.5 639.597 1462.49 Q637.953 1464.45 634.921 1465.22 Z" fill="#000000" fill-rule="evenodd" fill-opacity="1" /><path clip-path="url(#clip390)" d="M660.916 1452.37 Q657.305 1452.37 655.476 1455.94 Q653.671 1459.48 653.671 1466.61 Q653.671 1473.71 655.476 1477.28 Q657.305 1480.82 660.916 1480.82 Q664.55 1480.82 666.356 1477.28 Q668.185 1473.71 668.185 1466.61 Q668.185 1459.48 666.356 1455.94 Q664.55 1452.37 660.916 1452.37 M660.916 1448.67 Q666.726 1448.67 669.782 1453.27 Q672.861 1457.86 672.861 1466.61 Q672.861 1475.33 669.782 1479.94 Q666.726 1484.52 660.916 1484.52 Q655.106 1484.52 652.027 1479.94 Q648.972 1475.33 648.972 1466.61 Q648.972 1457.86 652.027 1453.27 Q655.106 1448.67 660.916 1448.67 Z" fill="#000000" fill-rule="evenodd" fill-opacity="1" /><path clip-path="url(#clip390)" d="M817.671 1453.37 L805.866 1471.81 L817.671 1471.81 L817.671 1453.37 M816.444 1449.29 L822.324 1449.29 L822.324 1471.81 L827.254 1471.81 L827.254 1475.7 L822.324 1475.7 L822.324 1483.85 L817.671 1483.85 L817.671 1475.7 L802.069 1475.7 L802.069 1471.19 L816.444 1449.29 Z" fill="#000000" fill-rule="evenodd" fill-opacity="1" /><path clip-path="url(#clip390)" d="M835.032 1449.29 L853.388 1449.29 L853.388 1453.23 L839.314 1453.23 L839.314 1461.7 Q840.333 1461.35 841.351 1461.19 Q842.37 1461 843.388 1461 Q849.175 1461 852.555 1464.18 Q855.935 1467.35 855.935 1472.76 Q855.935 1478.34 852.463 1481.44 Q848.99 1484.52 842.671 1484.52 Q840.495 1484.52 838.226 1484.15 Q835.981 1483.78 833.574 1483.04 L833.574 1478.34 Q835.657 1479.48 837.879 1480.03 Q840.101 1480.59 842.578 1480.59 Q846.583 1480.59 848.921 1478.48 Q851.259 1476.38 851.259 1472.76 Q851.259 1469.15 848.921 1467.05 Q846.583 1464.94 842.578 1464.94 Q840.703 1464.94 838.828 1465.36 Q836.976 1465.77 835.032 1466.65 L835.032 1449.29 Z" fill="#000000" fill-rule="evenodd" fill-opacity="1" /><path clip-path="url(#clip390)" d="M997.331 1464.71 Q994.183 1464.71 992.331 1466.86 Q990.502 1469.01 990.502 1472.76 Q990.502 1476.49 992.331 1478.67 Q994.183 1480.82 997.331 1480.82 Q1000.48 1480.82 1002.31 1478.67 Q1004.16 1476.49 1004.16 1472.76 Q1004.16 1469.01 1002.31 1466.86 Q1000.48 1464.71 997.331 1464.71 M1006.61 1450.06 L1006.61 1454.31 Q1004.85 1453.48 1003.05 1453.04 Q1001.27 1452.6 999.507 1452.6 Q994.877 1452.6 992.423 1455.73 Q989.993 1458.85 989.646 1465.17 Q991.011 1463.16 993.072 1462.09 Q995.132 1461 997.609 1461 Q1002.82 1461 1005.83 1464.18 Q1008.86 1467.32 1008.86 1472.76 Q1008.86 1478.09 1005.71 1481.31 Q1002.56 1484.52 997.331 1484.52 Q991.335 1484.52 988.164 1479.94 Q984.993 1475.33 984.993 1466.61 Q984.993 1458.41 988.882 1453.55 Q992.771 1448.67 999.322 1448.67 Q1001.08 1448.67 1002.86 1449.01 Q1004.67 1449.36 1006.61 1450.06 Z" fill="#000000" fill-rule="evenodd" fill-opacity="1" /><path clip-path="url(#clip390)" d="M1026.91 1452.37 Q1023.3 1452.37 1021.47 1455.94 Q1019.67 1459.48 1019.67 1466.61 Q1019.67 1473.71 1021.47 1477.28 Q1023.3 1480.82 1026.91 1480.82 Q1030.55 1480.82 1032.35 1477.28 Q1034.18 1473.71 1034.18 1466.61 Q1034.18 1459.48 1032.35 1455.94 Q1030.55 1452.37 1026.91 1452.37 M1026.91 1448.67 Q1032.72 1448.67 1035.78 1453.27 Q1038.86 1457.86 1038.86 1466.61 Q1038.86 1475.33 1035.78 1479.94 Q1032.72 1484.52 1026.91 1484.52 Q1021.1 1484.52 1018.03 1479.94 Q1014.97 1475.33 1014.97 1466.61 Q1014.97 1457.86 1018.03 1453.27 Q1021.1 1448.67 1026.91 1448.67 Z" fill="#000000" fill-rule="evenodd" fill-opacity="1" /><path clip-path="url(#clip390)" d="M1168.7 1449.29 L1190.93 1449.29 L1190.93 1451.28 L1178.38 1483.85 L1173.5 1483.85 L1185.3 1453.23 L1168.7 1453.23 L1168.7 1449.29 Z" fill="#000000" fill-rule="evenodd" fill-opacity="1" /><path clip-path="url(#clip390)" d="M1200.09 1449.29 L1218.45 1449.29 L1218.45 1453.23 L1204.37 1453.23 L1204.37 1461.7 Q1205.39 1461.35 1206.41 1461.19 Q1207.43 1461 1208.45 1461 Q1214.24 1461 1217.62 1464.18 Q1220.99 1467.35 1220.99 1472.76 Q1220.99 1478.34 1217.52 1481.44 Q1214.05 1484.52 1207.73 1484.52 Q1205.56 1484.52 1203.29 1484.15 Q1201.04 1483.78 1198.63 1483.04 L1198.63 1478.34 Q1200.72 1479.48 1202.94 1480.03 Q1205.16 1480.59 1207.64 1480.59 Q1211.64 1480.59 1213.98 1478.48 Q1216.32 1476.38 1216.32 1472.76 Q1216.32 1469.15 1213.98 1467.05 Q1211.64 1464.94 1207.64 1464.94 Q1205.76 1464.94 1203.89 1465.36 Q1202.04 1465.77 1200.09 1466.65 L1200.09 1449.29 Z" fill="#000000" fill-rule="evenodd" fill-opacity="1" /><path clip-path="url(#clip390)" d="M1352.9 1483.13 L1352.9 1478.88 Q1354.66 1479.71 1356.47 1480.15 Q1358.27 1480.59 1360.01 1480.59 Q1364.64 1480.59 1367.07 1477.49 Q1369.52 1474.36 1369.87 1468.02 Q1368.53 1470.01 1366.47 1471.07 Q1364.4 1472.14 1361.9 1472.14 Q1356.72 1472.14 1353.69 1469.01 Q1350.68 1465.87 1350.68 1460.43 Q1350.68 1455.1 1353.83 1451.88 Q1356.97 1448.67 1362.21 1448.67 Q1368.2 1448.67 1371.35 1453.27 Q1374.52 1457.86 1374.52 1466.61 Q1374.52 1474.78 1370.63 1479.66 Q1366.77 1484.52 1360.22 1484.52 Q1358.46 1484.52 1356.65 1484.18 Q1354.84 1483.83 1352.9 1483.13 M1362.21 1468.48 Q1365.35 1468.48 1367.18 1466.33 Q1369.03 1464.18 1369.03 1460.43 Q1369.03 1456.7 1367.18 1454.55 Q1365.35 1452.37 1362.21 1452.37 Q1359.06 1452.37 1357.21 1454.55 Q1355.38 1456.7 1355.38 1460.43 Q1355.38 1464.18 1357.21 1466.33 Q1359.06 1468.48 1362.21 1468.48 Z" fill="#000000" fill-rule="evenodd" fill-opacity="1" /><path clip-path="url(#clip390)" d="M1392.92 1452.37 Q1389.31 1452.37 1387.48 1455.94 Q1385.68 1459.48 1385.68 1466.61 Q1385.68 1473.71 1387.48 1477.28 Q1389.31 1480.82 1392.92 1480.82 Q1396.56 1480.82 1398.36 1477.28 Q1400.19 1473.71 1400.19 1466.61 Q1400.19 1459.48 1398.36 1455.94 Q1396.56 1452.37 1392.92 1452.37 M1392.92 1448.67 Q1398.73 1448.67 1401.79 1453.27 Q1404.87 1457.86 1404.87 1466.61 Q1404.87 1475.33 1401.79 1479.94 Q1398.73 1484.52 1392.92 1484.52 Q1387.11 1484.52 1384.03 1479.94 Q1380.98 1475.33 1380.98 1466.61 Q1380.98 1457.86 1384.03 1453.27 Q1387.11 1448.67 1392.92 1448.67 Z" fill="#000000" fill-rule="evenodd" fill-opacity="1" /><path clip-path="url(#clip390)" d="M1520.8 1479.92 L1528.44 1479.92 L1528.44 1453.55 L1520.13 1455.22 L1520.13 1450.96 L1528.39 1449.29 L1533.07 1449.29 L1533.07 1479.92 L1540.71 1479.92 L1540.71 1483.85 L1520.8 1483.85 L1520.8 1479.92 Z" fill="#000000" fill-rule="evenodd" fill-opacity="1" /><path clip-path="url(#clip390)" d="M1560.15 1452.37 Q1556.54 1452.37 1554.71 1455.94 Q1552.91 1459.48 1552.91 1466.61 Q1552.91 1473.71 1554.71 1477.28 Q1556.54 1480.82 1560.15 1480.82 Q1563.79 1480.82 1565.59 1477.28 Q1567.42 1473.71 1567.42 1466.61 Q1567.42 1459.48 1565.59 1455.94 Q1563.79 1452.37 1560.15 1452.37 M1560.15 1448.67 Q1565.96 1448.67 1569.02 1453.27 Q1572.1 1457.86 1572.1 1466.61 Q1572.1 1475.33 1569.02 1479.94 Q1565.96 1484.52 1560.15 1484.52 Q1554.34 1484.52 1551.26 1479.94 Q1548.21 1475.33 1548.21 1466.61 Q1548.21 1457.86 1551.26 1453.27 Q1554.34 1448.67 1560.15 1448.67 Z" fill="#000000" fill-rule="evenodd" fill-opacity="1" /><path clip-path="url(#clip390)" d="M1580.36 1449.29 L1598.72 1449.29 L1598.72 1453.23 L1584.64 1453.23 L1584.64 1461.7 Q1585.66 1461.35 1586.68 1461.19 Q1587.7 1461 1588.72 1461 Q1594.5 1461 1597.88 1464.18 Q1601.26 1467.35 1601.26 1472.76 Q1601.26 1478.34 1597.79 1481.44 Q1594.32 1484.52 1588 1484.52 Q1585.82 1484.52 1583.56 1484.15 Q1581.31 1483.78 1578.9 1483.04 L1578.9 1478.34 Q1580.99 1479.48 1583.21 1480.03 Q1585.43 1480.59 1587.91 1480.59 Q1591.91 1480.59 1594.25 1478.48 Q1596.59 1476.38 1596.59 1472.76 Q1596.59 1469.15 1594.25 1467.05 Q1591.91 1464.94 1587.91 1464.94 Q1586.03 1464.94 1584.16 1465.36 Q1582.31 1465.77 1580.36 1466.65 L1580.36 1449.29 Z" fill="#000000" fill-rule="evenodd" fill-opacity="1" /><path clip-path="url(#clip390)" d="M1703.23 1479.92 L1710.87 1479.92 L1710.87 1453.55 L1702.56 1455.22 L1702.56 1450.96 L1710.82 1449.29 L1715.5 1449.29 L1715.5 1479.92 L1723.13 1479.92 L1723.13 1483.85 L1703.23 1483.85 L1703.23 1479.92 Z" fill="#000000" fill-rule="evenodd" fill-opacity="1" /><path clip-path="url(#clip390)" d="M1736.61 1479.92 L1752.93 1479.92 L1752.93 1483.85 L1730.98 1483.85 L1730.98 1479.92 Q1733.64 1477.16 1738.23 1472.53 Q1742.83 1467.88 1744.01 1466.54 Q1746.26 1464.01 1747.14 1462.28 Q1748.04 1460.52 1748.04 1458.83 Q1748.04 1456.07 1746.1 1454.34 Q1744.18 1452.6 1741.07 1452.6 Q1738.87 1452.6 1736.42 1453.37 Q1733.99 1454.13 1731.21 1455.68 L1731.21 1450.96 Q1734.04 1449.82 1736.49 1449.25 Q1738.94 1448.67 1740.98 1448.67 Q1746.35 1448.67 1749.55 1451.35 Q1752.74 1454.04 1752.74 1458.53 Q1752.74 1460.66 1751.93 1462.58 Q1751.14 1464.48 1749.04 1467.07 Q1748.46 1467.74 1745.36 1470.96 Q1742.25 1474.15 1736.61 1479.92 Z" fill="#000000" fill-rule="evenodd" fill-opacity="1" /><path clip-path="url(#clip390)" d="M1772.74 1452.37 Q1769.13 1452.37 1767.3 1455.94 Q1765.5 1459.48 1765.5 1466.61 Q1765.5 1473.71 1767.3 1477.28 Q1769.13 1480.82 1772.74 1480.82 Q1776.37 1480.82 1778.18 1477.28 Q1780.01 1473.71 1780.01 1466.61 Q1780.01 1459.48 1778.18 1455.94 Q1776.37 1452.37 1772.74 1452.37 M1772.74 1448.67 Q1778.55 1448.67 1781.61 1453.27 Q1784.68 1457.86 1784.68 1466.61 Q1784.68 1475.33 1781.61 1479.94 Q1778.55 1484.52 1772.74 1484.52 Q1766.93 1484.52 1763.85 1479.94 Q1760.8 1475.33 1760.8 1466.61 Q1760.8 1457.86 1763.85 1453.27 Q1766.93 1448.67 1772.74 1448.67 Z" fill="#000000" fill-rule="evenodd" fill-opacity="1" /><path clip-path="url(#clip390)" d="M1886.65 1479.92 L1894.29 1479.92 L1894.29 1453.55 L1885.98 1455.22 L1885.98 1450.96 L1894.24 1449.29 L1898.92 1449.29 L1898.92 1479.92 L1906.56 1479.92 L1906.56 1483.85 L1886.65 1483.85 L1886.65 1479.92 Z" fill="#000000" fill-rule="evenodd" fill-opacity="1" /><path clip-path="url(#clip390)" d="M1930.17 1465.22 Q1933.52 1465.94 1935.4 1468.2 Q1937.3 1470.47 1937.3 1473.81 Q1937.3 1478.92 1933.78 1481.72 Q1930.26 1484.52 1923.78 1484.52 Q1921.6 1484.52 1919.29 1484.08 Q1917 1483.67 1914.54 1482.81 L1914.54 1478.3 Q1916.49 1479.43 1918.8 1480.01 Q1921.12 1480.59 1923.64 1480.59 Q1928.04 1480.59 1930.33 1478.85 Q1932.64 1477.12 1932.64 1473.81 Q1932.64 1470.75 1930.49 1469.04 Q1928.36 1467.3 1924.54 1467.3 L1920.51 1467.3 L1920.51 1463.46 L1924.73 1463.46 Q1928.18 1463.46 1930 1462.09 Q1931.83 1460.7 1931.83 1458.11 Q1931.83 1455.45 1929.94 1454.04 Q1928.06 1452.6 1924.54 1452.6 Q1922.62 1452.6 1920.42 1453.02 Q1918.22 1453.44 1915.58 1454.31 L1915.58 1450.15 Q1918.25 1449.41 1920.56 1449.04 Q1922.9 1448.67 1924.96 1448.67 Q1930.28 1448.67 1933.38 1451.1 Q1936.49 1453.5 1936.49 1457.63 Q1936.49 1460.5 1934.84 1462.49 Q1933.2 1464.45 1930.17 1465.22 Z" fill="#000000" fill-rule="evenodd" fill-opacity="1" /><path clip-path="url(#clip390)" d="M1946.21 1449.29 L1964.56 1449.29 L1964.56 1453.23 L1950.49 1453.23 L1950.49 1461.7 Q1951.51 1461.35 1952.53 1461.19 Q1953.55 1461 1954.56 1461 Q1960.35 1461 1963.73 1464.18 Q1967.11 1467.35 1967.11 1472.76 Q1967.11 1478.34 1963.64 1481.44 Q1960.17 1484.52 1953.85 1484.52 Q1951.67 1484.52 1949.4 1484.15 Q1947.16 1483.78 1944.75 1483.04 L1944.75 1478.34 Q1946.83 1479.48 1949.06 1480.03 Q1951.28 1480.59 1953.75 1480.59 Q1957.76 1480.59 1960.1 1478.48 Q1962.43 1476.38 1962.43 1472.76 Q1962.43 1469.15 1960.1 1467.05 Q1957.76 1464.94 1953.75 1464.94 Q1951.88 1464.94 1950 1465.36 Q1948.15 1465.77 1946.21 1466.65 L1946.21 1449.29 Z" fill="#000000" fill-rule="evenodd" fill-opacity="1" /><path clip-path="url(#clip390)" d="M2069.07 1479.92 L2076.71 1479.92 L2076.71 1453.55 L2068.4 1455.22 L2068.4 1450.96 L2076.67 1449.29 L2081.34 1449.29 L2081.34 1479.92 L2088.98 1479.92 L2088.98 1483.85 L2069.07 1483.85 L2069.07 1479.92 Z" fill="#000000" fill-rule="evenodd" fill-opacity="1" /><path clip-path="url(#clip390)" d="M2098.47 1449.29 L2116.83 1449.29 L2116.83 1453.23 L2102.75 1453.23 L2102.75 1461.7 Q2103.77 1461.35 2104.79 1461.19 Q2105.81 1461 2106.83 1461 Q2112.62 1461 2116 1464.18 Q2119.37 1467.35 2119.37 1472.76 Q2119.37 1478.34 2115.9 1481.44 Q2112.43 1484.52 2106.11 1484.52 Q2103.94 1484.52 2101.67 1484.15 Q2099.42 1483.78 2097.01 1483.04 L2097.01 1478.34 Q2099.1 1479.48 2101.32 1480.03 Q2103.54 1480.59 2106.02 1480.59 Q2110.02 1480.59 2112.36 1478.48 Q2114.7 1476.38 2114.7 1472.76 Q2114.7 1469.15 2112.36 1467.05 Q2110.02 1464.94 2106.02 1464.94 Q2104.14 1464.94 2102.27 1465.36 Q2100.42 1465.77 2098.47 1466.65 L2098.47 1449.29 Z" fill="#000000" fill-rule="evenodd" fill-opacity="1" /><path clip-path="url(#clip390)" d="M2138.59 1452.37 Q2134.98 1452.37 2133.15 1455.94 Q2131.34 1459.48 2131.34 1466.61 Q2131.34 1473.71 2133.15 1477.28 Q2134.98 1480.82 2138.59 1480.82 Q2142.22 1480.82 2144.03 1477.28 Q2145.86 1473.71 2145.86 1466.61 Q2145.86 1459.48 2144.03 1455.94 Q2142.22 1452.37 2138.59 1452.37 M2138.59 1448.67 Q2144.4 1448.67 2147.45 1453.27 Q2150.53 1457.86 2150.53 1466.61 Q2150.53 1475.33 2147.45 1479.94 Q2144.4 1484.52 2138.59 1484.52 Q2132.78 1484.52 2129.7 1479.94 Q2126.64 1475.33 2126.64 1466.61 Q2126.64 1457.86 2129.7 1453.27 Q2132.78 1448.67 2138.59 1448.67 Z" fill="#000000" fill-rule="evenodd" fill-opacity="1" /><path clip-path="url(#clip390)" d="M2252.5 1479.92 L2260.13 1479.92 L2260.13 1453.55 L2251.82 1455.22 L2251.82 1450.96 L2260.09 1449.29 L2264.76 1449.29 L2264.76 1479.92 L2272.4 1479.92 L2272.4 1483.85 L2252.5 1483.85 L2252.5 1479.92 Z" fill="#000000" fill-rule="evenodd" fill-opacity="1" /><path clip-path="url(#clip390)" d="M2292.43 1464.71 Q2289.28 1464.71 2287.43 1466.86 Q2285.6 1469.01 2285.6 1472.76 Q2285.6 1476.49 2287.43 1478.67 Q2289.28 1480.82 2292.43 1480.82 Q2295.57 1480.82 2297.4 1478.67 Q2299.25 1476.49 2299.25 1472.76 Q2299.25 1469.01 2297.4 1466.86 Q2295.57 1464.71 2292.43 1464.71 M2301.71 1450.06 L2301.71 1454.31 Q2299.95 1453.48 2298.14 1453.04 Q2296.36 1452.6 2294.6 1452.6 Q2289.97 1452.6 2287.52 1455.73 Q2285.09 1458.85 2284.74 1465.17 Q2286.11 1463.16 2288.17 1462.09 Q2290.23 1461 2292.7 1461 Q2297.91 1461 2300.92 1464.18 Q2303.95 1467.32 2303.95 1472.76 Q2303.95 1478.09 2300.81 1481.31 Q2297.66 1484.52 2292.43 1484.52 Q2286.43 1484.52 2283.26 1479.94 Q2280.09 1475.33 2280.09 1466.61 Q2280.09 1458.41 2283.98 1453.55 Q2287.87 1448.67 2294.42 1448.67 Q2296.18 1448.67 2297.96 1449.01 Q2299.76 1449.36 2301.71 1450.06 Z" fill="#000000" fill-rule="evenodd" fill-opacity="1" /><path clip-path="url(#clip390)" d="M2312.06 1449.29 L2330.41 1449.29 L2330.41 1453.23 L2316.34 1453.23 L2316.34 1461.7 Q2317.36 1461.35 2318.37 1461.19 Q2319.39 1461 2320.41 1461 Q2326.2 1461 2329.58 1464.18 Q2332.96 1467.35 2332.96 1472.76 Q2332.96 1478.34 2329.49 1481.44 Q2326.01 1484.52 2319.69 1484.52 Q2317.52 1484.52 2315.25 1484.15 Q2313 1483.78 2310.6 1483.04 L2310.6 1478.34 Q2312.68 1479.48 2314.9 1480.03 Q2317.12 1480.59 2319.6 1480.59 Q2323.61 1480.59 2325.94 1478.48 Q2328.28 1476.38 2328.28 1472.76 Q2328.28 1469.15 2325.94 1467.05 Q2323.61 1464.94 2319.6 1464.94 Q2317.73 1464.94 2315.85 1465.36 Q2314 1465.77 2312.06 1466.65 L2312.06 1449.29 Z" fill="#000000" fill-rule="evenodd" fill-opacity="1" /><path clip-path="url(#clip390)" d="M1245.06 1551.46 L1243.66 1544.11 Q1242.23 1536.57 1236.56 1536.57 Q1232.3 1536.57 1230.36 1540.07 Q1227.91 1544.46 1227.91 1550.25 Q1227.91 1557.25 1230.29 1560.6 Q1232.71 1564 1236.56 1564 Q1240.83 1564 1243.12 1557.22 L1245.06 1551.46 M1248.34 1541.72 L1251.49 1532.4 L1256.71 1532.4 L1250.19 1551.72 L1251.46 1558.69 Q1251.75 1560.25 1252.86 1561.55 Q1254.16 1563.08 1255.18 1563.08 L1257.98 1563.08 L1257.98 1568.04 L1254.48 1568.04 Q1251.49 1568.04 1248.82 1565.37 Q1247.51 1564.03 1246.97 1561.23 Q1245.51 1564.77 1242.52 1567.53 Q1241.11 1568.84 1236.56 1568.84 Q1229.08 1568.84 1225.45 1564 Q1221.73 1559 1221.73 1550.25 Q1221.73 1540.89 1225.77 1536.5 Q1230.26 1531.6 1236.56 1531.6 Q1246.46 1531.6 1248.34 1541.72 Z" fill="#000000" fill-rule="evenodd" fill-opacity="1" /><path clip-path="url(#clip390)" d="M1298.37 1520.52 L1303.78 1520.52 L1287.23 1574.09 L1281.82 1574.09 L1298.37 1520.52 Z" fill="#000000" fill-rule="evenodd" fill-opacity="1" /><path clip-path="url(#clip390)" d="M1340.8 1523.77 Q1338.26 1523.77 1336.5 1525.55 Q1334.75 1527.3 1334.75 1529.85 Q1334.75 1532.36 1336.5 1534.11 Q1338.26 1535.83 1340.8 1535.83 Q1343.35 1535.83 1345.1 1534.11 Q1346.85 1532.36 1346.85 1529.85 Q1346.85 1527.34 1345.07 1525.55 Q1343.32 1523.77 1340.8 1523.77 M1340.8 1519.66 Q1342.84 1519.66 1344.72 1520.46 Q1346.59 1521.22 1347.96 1522.69 Q1349.43 1524.12 1350.16 1525.93 Q1350.89 1527.75 1350.89 1529.85 Q1350.89 1534.05 1347.93 1536.98 Q1345 1539.88 1340.74 1539.88 Q1336.44 1539.88 1333.58 1537.01 Q1330.71 1534.15 1330.71 1529.85 Q1330.71 1525.58 1333.64 1522.62 Q1336.57 1519.66 1340.8 1519.66 Z" fill="#000000" fill-rule="evenodd" fill-opacity="1" /><polyline clip-path="url(#clip392)" style="stroke:#000000; stroke-linecap:butt; stroke-linejoin:round; stroke-width:2; stroke-opacity:0.1; fill:none" points="
  219.866,1386.4 2352.76,1386.4 
  "/>
<polyline clip-path="url(#clip392)" style="stroke:#000000; stroke-linecap:butt; stroke-linejoin:round; stroke-width:2; stroke-opacity:0.1; fill:none" points="
  219.866,1173.29 2352.76,1173.29 
  "/>
<polyline clip-path="url(#clip392)" style="stroke:#000000; stroke-linecap:butt; stroke-linejoin:round; stroke-width:2; stroke-opacity:0.1; fill:none" points="
  219.866,960.178 2352.76,960.178 
  "/>
<polyline clip-path="url(#clip392)" style="stroke:#000000; stroke-linecap:butt; stroke-linejoin:round; stroke-width:2; stroke-opacity:0.1; fill:none" points="
  219.866,747.069 2352.76,747.069 
  "/>
<polyline clip-path="url(#clip392)" style="stroke:#000000; stroke-linecap:butt; stroke-linejoin:round; stroke-width:2; stroke-opacity:0.1; fill:none" points="
  219.866,533.96 2352.76,533.96 
  "/>
<polyline clip-path="url(#clip392)" style="stroke:#000000; stroke-linecap:butt; stroke-linejoin:round; stroke-width:2; stroke-opacity:0.1; fill:none" points="
  219.866,320.851 2352.76,320.851 
  "/>
<polyline clip-path="url(#clip390)" style="stroke:#000000; stroke-linecap:butt; stroke-linejoin:round; stroke-width:4; stroke-opacity:1; fill:none" points="
  219.866,1423.18 219.866,123.472 
  "/>
<polyline clip-path="url(#clip390)" style="stroke:#000000; stroke-linecap:butt; stroke-linejoin:round; stroke-width:4; stroke-opacity:1; fill:none" points="
  219.866,1386.4 238.764,1386.4 
  "/>
<polyline clip-path="url(#clip390)" style="stroke:#000000; stroke-linecap:butt; stroke-linejoin:round; stroke-width:4; stroke-opacity:1; fill:none" points="
  219.866,1173.29 238.764,1173.29 
  "/>
<polyline clip-path="url(#clip390)" style="stroke:#000000; stroke-linecap:butt; stroke-linejoin:round; stroke-width:4; stroke-opacity:1; fill:none" points="
  219.866,960.178 238.764,960.178 
  "/>
<polyline clip-path="url(#clip390)" style="stroke:#000000; stroke-linecap:butt; stroke-linejoin:round; stroke-width:4; stroke-opacity:1; fill:none" points="
  219.866,747.069 238.764,747.069 
  "/>
<polyline clip-path="url(#clip390)" style="stroke:#000000; stroke-linecap:butt; stroke-linejoin:round; stroke-width:4; stroke-opacity:1; fill:none" points="
  219.866,533.96 238.764,533.96 
  "/>
<polyline clip-path="url(#clip390)" style="stroke:#000000; stroke-linecap:butt; stroke-linejoin:round; stroke-width:4; stroke-opacity:1; fill:none" points="
  219.866,320.851 238.764,320.851 
  "/>
<path clip-path="url(#clip390)" d="M126.691 1372.19 Q123.08 1372.19 121.251 1375.76 Q119.445 1379.3 119.445 1386.43 Q119.445 1393.54 121.251 1397.1 Q123.08 1400.64 126.691 1400.64 Q130.325 1400.64 132.13 1397.1 Q133.959 1393.54 133.959 1386.43 Q133.959 1379.3 132.13 1375.76 Q130.325 1372.19 126.691 1372.19 M126.691 1368.49 Q132.501 1368.49 135.556 1373.1 Q138.635 1377.68 138.635 1386.43 Q138.635 1395.16 135.556 1399.76 Q132.501 1404.35 126.691 1404.35 Q120.88 1404.35 117.802 1399.76 Q114.746 1395.16 114.746 1386.43 Q114.746 1377.68 117.802 1373.1 Q120.88 1368.49 126.691 1368.49 Z" fill="#000000" fill-rule="evenodd" fill-opacity="1" /><path clip-path="url(#clip390)" d="M146.853 1397.8 L151.737 1397.8 L151.737 1403.68 L146.853 1403.68 L146.853 1397.8 Z" fill="#000000" fill-rule="evenodd" fill-opacity="1" /><path clip-path="url(#clip390)" d="M171.922 1372.19 Q168.311 1372.19 166.482 1375.76 Q164.677 1379.3 164.677 1386.43 Q164.677 1393.54 166.482 1397.1 Q168.311 1400.64 171.922 1400.64 Q175.556 1400.64 177.362 1397.1 Q179.19 1393.54 179.19 1386.43 Q179.19 1379.3 177.362 1375.76 Q175.556 1372.19 171.922 1372.19 M171.922 1368.49 Q177.732 1368.49 180.788 1373.1 Q183.866 1377.68 183.866 1386.43 Q183.866 1395.16 180.788 1399.76 Q177.732 1404.35 171.922 1404.35 Q166.112 1404.35 163.033 1399.76 Q159.978 1395.16 159.978 1386.43 Q159.978 1377.68 163.033 1373.1 Q166.112 1368.49 171.922 1368.49 Z" fill="#000000" fill-rule="evenodd" fill-opacity="1" /><path clip-path="url(#clip390)" d="M127.917 1159.09 Q124.306 1159.09 122.478 1162.65 Q120.672 1166.19 120.672 1173.32 Q120.672 1180.43 122.478 1183.99 Q124.306 1187.53 127.917 1187.53 Q131.552 1187.53 133.357 1183.99 Q135.186 1180.43 135.186 1173.32 Q135.186 1166.19 133.357 1162.65 Q131.552 1159.09 127.917 1159.09 M127.917 1155.38 Q133.728 1155.38 136.783 1159.99 Q139.862 1164.57 139.862 1173.32 Q139.862 1182.05 136.783 1186.65 Q133.728 1191.24 127.917 1191.24 Q122.107 1191.24 119.029 1186.65 Q115.973 1182.05 115.973 1173.32 Q115.973 1164.57 119.029 1159.99 Q122.107 1155.38 127.917 1155.38 Z" fill="#000000" fill-rule="evenodd" fill-opacity="1" /><path clip-path="url(#clip390)" d="M148.079 1184.69 L152.964 1184.69 L152.964 1190.57 L148.079 1190.57 L148.079 1184.69 Z" fill="#000000" fill-rule="evenodd" fill-opacity="1" /><path clip-path="url(#clip390)" d="M163.959 1186.63 L171.598 1186.63 L171.598 1160.27 L163.288 1161.93 L163.288 1157.67 L171.552 1156.01 L176.227 1156.01 L176.227 1186.63 L183.866 1186.63 L183.866 1190.57 L163.959 1190.57 L163.959 1186.63 Z" fill="#000000" fill-rule="evenodd" fill-opacity="1" /><path clip-path="url(#clip390)" d="M128.288 945.977 Q124.677 945.977 122.848 949.541 Q121.043 953.083 121.043 960.213 Q121.043 967.319 122.848 970.884 Q124.677 974.426 128.288 974.426 Q131.922 974.426 133.728 970.884 Q135.556 967.319 135.556 960.213 Q135.556 953.083 133.728 949.541 Q131.922 945.977 128.288 945.977 M128.288 942.273 Q134.098 942.273 137.154 946.879 Q140.232 951.463 140.232 960.213 Q140.232 968.939 137.154 973.546 Q134.098 978.129 128.288 978.129 Q122.478 978.129 119.399 973.546 Q116.343 968.939 116.343 960.213 Q116.343 951.463 119.399 946.879 Q122.478 942.273 128.288 942.273 Z" fill="#000000" fill-rule="evenodd" fill-opacity="1" /><path clip-path="url(#clip390)" d="M148.45 971.578 L153.334 971.578 L153.334 977.458 L148.45 977.458 L148.45 971.578 Z" fill="#000000" fill-rule="evenodd" fill-opacity="1" /><path clip-path="url(#clip390)" d="M167.547 973.523 L183.866 973.523 L183.866 977.458 L161.922 977.458 L161.922 973.523 Q164.584 970.768 169.167 966.139 Q173.774 961.486 174.954 960.143 Q177.2 957.62 178.079 955.884 Q178.982 954.125 178.982 952.435 Q178.982 949.68 177.038 947.944 Q175.116 946.208 172.014 946.208 Q169.815 946.208 167.362 946.972 Q164.931 947.736 162.153 949.287 L162.153 944.565 Q164.977 943.43 167.431 942.852 Q169.885 942.273 171.922 942.273 Q177.292 942.273 180.487 944.958 Q183.681 947.643 183.681 952.134 Q183.681 954.264 182.871 956.185 Q182.084 958.083 179.977 960.676 Q179.399 961.347 176.297 964.564 Q173.195 967.759 167.547 973.523 Z" fill="#000000" fill-rule="evenodd" fill-opacity="1" /><path clip-path="url(#clip390)" d="M127.339 732.868 Q123.728 732.868 121.899 736.433 Q120.093 739.974 120.093 747.104 Q120.093 754.21 121.899 757.775 Q123.728 761.317 127.339 761.317 Q130.973 761.317 132.779 757.775 Q134.607 754.21 134.607 747.104 Q134.607 739.974 132.779 736.433 Q130.973 732.868 127.339 732.868 M127.339 729.164 Q133.149 729.164 136.204 733.771 Q139.283 738.354 139.283 747.104 Q139.283 755.831 136.204 760.437 Q133.149 765.02 127.339 765.02 Q121.529 765.02 118.45 760.437 Q115.394 755.831 115.394 747.104 Q115.394 738.354 118.45 733.771 Q121.529 729.164 127.339 729.164 Z" fill="#000000" fill-rule="evenodd" fill-opacity="1" /><path clip-path="url(#clip390)" d="M147.501 758.469 L152.385 758.469 L152.385 764.349 L147.501 764.349 L147.501 758.469 Z" fill="#000000" fill-rule="evenodd" fill-opacity="1" /><path clip-path="url(#clip390)" d="M176.737 745.715 Q180.093 746.433 181.968 748.701 Q183.866 750.97 183.866 754.303 Q183.866 759.419 180.348 762.219 Q176.829 765.02 170.348 765.02 Q168.172 765.02 165.857 764.581 Q163.565 764.164 161.112 763.307 L161.112 758.794 Q163.056 759.928 165.371 760.507 Q167.686 761.085 170.209 761.085 Q174.607 761.085 176.899 759.349 Q179.214 757.613 179.214 754.303 Q179.214 751.247 177.061 749.534 Q174.931 747.798 171.112 747.798 L167.084 747.798 L167.084 743.956 L171.297 743.956 Q174.746 743.956 176.575 742.59 Q178.403 741.201 178.403 738.608 Q178.403 735.946 176.505 734.534 Q174.63 733.099 171.112 733.099 Q169.19 733.099 166.991 733.516 Q164.792 733.933 162.153 734.812 L162.153 730.646 Q164.815 729.905 167.13 729.534 Q169.468 729.164 171.528 729.164 Q176.852 729.164 179.954 731.595 Q183.056 734.002 183.056 738.122 Q183.056 740.993 181.413 742.983 Q179.769 744.951 176.737 745.715 Z" fill="#000000" fill-rule="evenodd" fill-opacity="1" /><path clip-path="url(#clip390)" d="M126.205 519.759 Q122.593 519.759 120.765 523.324 Q118.959 526.865 118.959 533.995 Q118.959 541.101 120.765 544.666 Q122.593 548.208 126.205 548.208 Q129.839 548.208 131.644 544.666 Q133.473 541.101 133.473 533.995 Q133.473 526.865 131.644 523.324 Q129.839 519.759 126.205 519.759 M126.205 516.055 Q132.015 516.055 135.07 520.662 Q138.149 525.245 138.149 533.995 Q138.149 542.722 135.07 547.328 Q132.015 551.912 126.205 551.912 Q120.394 551.912 117.316 547.328 Q114.26 542.722 114.26 533.995 Q114.26 525.245 117.316 520.662 Q120.394 516.055 126.205 516.055 Z" fill="#000000" fill-rule="evenodd" fill-opacity="1" /><path clip-path="url(#clip390)" d="M146.366 545.361 L151.251 545.361 L151.251 551.24 L146.366 551.24 L146.366 545.361 Z" fill="#000000" fill-rule="evenodd" fill-opacity="1" /><path clip-path="url(#clip390)" d="M174.283 520.754 L162.477 539.203 L174.283 539.203 L174.283 520.754 M173.056 516.68 L178.936 516.68 L178.936 539.203 L183.866 539.203 L183.866 543.092 L178.936 543.092 L178.936 551.24 L174.283 551.24 L174.283 543.092 L158.681 543.092 L158.681 538.578 L173.056 516.68 Z" fill="#000000" fill-rule="evenodd" fill-opacity="1" /><path clip-path="url(#clip390)" d="M127.686 306.65 Q124.075 306.65 122.246 310.215 Q120.441 313.756 120.441 320.886 Q120.441 327.993 122.246 331.557 Q124.075 335.099 127.686 335.099 Q131.32 335.099 133.126 331.557 Q134.954 327.993 134.954 320.886 Q134.954 313.756 133.126 310.215 Q131.32 306.65 127.686 306.65 M127.686 302.946 Q133.496 302.946 136.552 307.553 Q139.63 312.136 139.63 320.886 Q139.63 329.613 136.552 334.219 Q133.496 338.803 127.686 338.803 Q121.876 338.803 118.797 334.219 Q115.742 329.613 115.742 320.886 Q115.742 312.136 118.797 307.553 Q121.876 302.946 127.686 302.946 Z" fill="#000000" fill-rule="evenodd" fill-opacity="1" /><path clip-path="url(#clip390)" d="M147.848 332.252 L152.732 332.252 L152.732 338.131 L147.848 338.131 L147.848 332.252 Z" fill="#000000" fill-rule="evenodd" fill-opacity="1" /><path clip-path="url(#clip390)" d="M162.964 303.571 L181.32 303.571 L181.32 307.507 L167.246 307.507 L167.246 315.979 Q168.264 315.631 169.283 315.469 Q170.302 315.284 171.32 315.284 Q177.107 315.284 180.487 318.456 Q183.866 321.627 183.866 327.043 Q183.866 332.622 180.394 335.724 Q176.922 338.803 170.602 338.803 Q168.427 338.803 166.158 338.432 Q163.913 338.062 161.505 337.321 L161.505 332.622 Q163.589 333.756 165.811 334.312 Q168.033 334.867 170.51 334.867 Q174.514 334.867 176.852 332.761 Q179.19 330.655 179.19 327.043 Q179.19 323.432 176.852 321.326 Q174.514 319.219 170.51 319.219 Q168.635 319.219 166.76 319.636 Q164.908 320.053 162.964 320.932 L162.964 303.571 Z" fill="#000000" fill-rule="evenodd" fill-opacity="1" /><path clip-path="url(#clip390)" d="M28.3562 988.36 L28.3562 982.503 L56.1743 975.183 L28.3562 967.894 L28.3562 960.987 L56.1743 953.666 L28.3562 946.378 L28.3562 940.521 L64.0042 949.847 L64.0042 956.754 L34.7856 964.424 L64.0042 972.127 L64.0042 979.034 L28.3562 988.36 Z" fill="#000000" fill-rule="evenodd" fill-opacity="1" /><path clip-path="url(#clip390)" d="M44.7161 901.149 L47.5806 901.149 L47.5806 928.076 Q53.6281 927.694 56.8109 924.448 Q59.9619 921.17 59.9619 915.345 Q59.9619 911.971 59.1344 908.82 Q58.3069 905.637 56.6518 902.518 L62.1899 902.518 Q63.5267 905.669 64.227 908.979 Q64.9272 912.289 64.9272 915.695 Q64.9272 924.225 59.9619 929.222 Q54.9967 934.187 46.5303 934.187 Q37.7774 934.187 32.6531 929.477 Q27.4968 924.734 27.4968 916.714 Q27.4968 909.52 32.1438 905.351 Q36.7589 901.149 44.7161 901.149 M42.9973 907.006 Q38.1912 907.069 35.3266 909.711 Q32.4621 912.321 32.4621 916.65 Q32.4621 921.551 35.2312 924.512 Q38.0002 927.44 43.0292 927.885 L42.9973 907.006 Z" fill="#000000" fill-rule="evenodd" fill-opacity="1" /><path clip-path="url(#clip390)" d="M28.3562 891.537 L28.3562 885.681 L64.0042 885.681 L64.0042 891.537 L28.3562 891.537 M14.479 891.537 L14.479 885.681 L21.895 885.681 L21.895 891.537 L14.479 891.537 Z" fill="#000000" fill-rule="evenodd" fill-opacity="1" /><path clip-path="url(#clip390)" d="M45.7664 849.969 Q39.4007 849.969 35.8996 852.611 Q32.3984 855.221 32.3984 859.963 Q32.3984 864.674 35.8996 867.316 Q39.4007 869.926 45.7664 869.926 Q52.1003 869.926 55.6014 867.316 Q59.1026 864.674 59.1026 859.963 Q59.1026 855.221 55.6014 852.611 Q52.1003 849.969 45.7664 849.969 M59.58 844.113 Q68.683 844.113 73.1071 848.155 Q77.5631 852.197 77.5631 860.536 Q77.5631 863.624 77.0857 866.361 Q76.6401 869.098 75.6852 871.676 L69.9879 871.676 Q71.3884 869.098 72.0568 866.584 Q72.7252 864.069 72.7252 861.459 Q72.7252 855.698 69.7015 852.834 Q66.7096 849.969 60.6303 849.969 L57.7339 849.969 Q60.885 851.783 62.4446 854.616 Q64.0042 857.449 64.0042 861.396 Q64.0042 867.952 59.0071 871.963 Q54.01 875.973 45.7664 875.973 Q37.491 875.973 32.4939 871.963 Q27.4968 867.952 27.4968 861.396 Q27.4968 857.449 29.0564 854.616 Q30.616 851.783 33.7671 849.969 L28.3562 849.969 L28.3562 844.113 L59.58 844.113 Z" fill="#000000" fill-rule="evenodd" fill-opacity="1" /><path clip-path="url(#clip390)" d="M42.4881 802.417 L64.0042 802.417 L64.0042 808.274 L42.679 808.274 Q37.6183 808.274 35.1038 810.247 Q32.5894 812.22 32.5894 816.167 Q32.5894 820.91 35.6131 823.647 Q38.6368 826.384 43.8567 826.384 L64.0042 826.384 L64.0042 832.272 L14.479 832.272 L14.479 826.384 L33.8944 826.384 Q30.6797 824.283 29.0883 821.451 Q27.4968 818.586 27.4968 814.862 Q27.4968 808.719 31.3163 805.568 Q35.1038 802.417 42.4881 802.417 Z" fill="#000000" fill-rule="evenodd" fill-opacity="1" /><path clip-path="url(#clip390)" d="M18.2347 784.943 L28.3562 784.943 L28.3562 772.88 L32.9077 772.88 L32.9077 784.943 L52.2594 784.943 Q56.6199 784.943 57.8613 783.766 Q59.1026 782.556 59.1026 778.896 L59.1026 772.88 L64.0042 772.88 L64.0042 778.896 Q64.0042 785.675 61.4897 788.254 Q58.9434 790.832 52.2594 790.832 L32.9077 790.832 L32.9077 795.129 L28.3562 795.129 L28.3562 790.832 L18.2347 790.832 L18.2347 784.943 Z" fill="#000000" fill-rule="evenodd" fill-opacity="1" /><path clip-path="url(#clip390)" d="M29.4065 742.452 L34.9447 742.452 Q33.6716 744.935 33.035 747.609 Q32.3984 750.282 32.3984 753.147 Q32.3984 757.507 33.7352 759.703 Q35.072 761.868 37.7456 761.868 Q39.7826 761.868 40.9603 760.308 Q42.1061 758.749 43.1565 754.038 L43.6021 752.033 Q44.9389 745.794 47.3897 743.184 Q49.8086 740.543 54.1691 740.543 Q59.1344 740.543 62.0308 744.489 Q64.9272 748.404 64.9272 755.279 Q64.9272 758.144 64.3543 761.263 Q63.8132 764.35 62.6992 767.788 L56.6518 767.788 Q58.3387 764.541 59.198 761.39 Q60.0256 758.239 60.0256 755.152 Q60.0256 751.014 58.6251 748.786 Q57.1929 746.558 54.6147 746.558 Q52.2276 746.558 50.9545 748.181 Q49.6813 749.773 48.5037 755.216 L48.0262 757.253 Q46.8804 762.695 44.5251 765.114 Q42.138 767.533 38.0002 767.533 Q32.9713 767.533 30.2341 763.968 Q27.4968 760.404 27.4968 753.847 Q27.4968 750.6 27.9743 747.736 Q28.4517 744.871 29.4065 742.452 Z" fill="#000000" fill-rule="evenodd" fill-opacity="1" /><path clip-path="url(#clip390)" d="M16.4842 700.089 L16.4842 694.678 L70.0516 711.229 L70.0516 716.639 L16.4842 700.089 Z" fill="#000000" fill-rule="evenodd" fill-opacity="1" /><path clip-path="url(#clip390)" d="M46.0847 651.614 Q46.0847 658.711 47.7079 661.449 Q49.3312 664.186 53.2461 664.186 Q56.3653 664.186 58.2114 662.149 Q60.0256 660.08 60.0256 656.547 Q60.0256 651.677 56.5881 648.749 Q53.1188 645.789 47.3897 645.789 L46.0847 645.789 L46.0847 651.614 M43.6657 639.933 L64.0042 639.933 L64.0042 645.789 L58.5933 645.789 Q61.8398 647.794 63.3994 650.786 Q64.9272 653.778 64.9272 658.107 Q64.9272 663.581 61.8716 666.828 Q58.7843 670.042 53.6281 670.042 Q47.6125 670.042 44.5569 666.032 Q41.5014 661.99 41.5014 654.001 L41.5014 645.789 L40.9285 645.789 Q36.8862 645.789 34.6901 648.463 Q32.4621 651.104 32.4621 655.911 Q32.4621 658.966 33.1941 661.862 Q33.9262 664.759 35.3903 667.432 L29.9795 667.432 Q28.7381 664.218 28.1334 661.194 Q27.4968 658.17 27.4968 655.306 Q27.4968 647.571 31.5072 643.752 Q35.5176 639.933 43.6657 639.933 Z" fill="#000000" fill-rule="evenodd" fill-opacity="1" /><path clip-path="url(#clip390)" d="M55.9197 627.042 L55.9197 620.326 L64.0042 620.326 L64.0042 627.042 L55.9197 627.042 Z" fill="#000000" fill-rule="evenodd" fill-opacity="1" /><path clip-path="url(#clip390)" d="M49.9359 607.754 L28.3562 607.754 L28.3562 601.898 L49.7131 601.898 Q54.7739 601.898 57.3202 599.924 Q59.8346 597.951 59.8346 594.004 Q59.8346 589.262 56.8109 586.524 Q53.7872 583.755 48.5673 583.755 L28.3562 583.755 L28.3562 577.899 L64.0042 577.899 L64.0042 583.755 L58.5296 583.755 Q61.7762 585.888 63.3676 588.72 Q64.9272 591.521 64.9272 595.245 Q64.9272 601.388 61.1078 604.571 Q57.2883 607.754 49.9359 607.754 M27.4968 593.017 L27.4968 593.017 Z" fill="#000000" fill-rule="evenodd" fill-opacity="1" /><path clip-path="url(#clip390)" d="M55.9197 565.008 L55.9197 558.292 L64.0042 558.292 L64.0042 565.008 L55.9197 565.008 Z" fill="#000000" fill-rule="evenodd" fill-opacity="1" /><path clip-path="url(#clip390)" d="M571.792 69.7809 L571.792 89.8329 L564.298 89.8329 L564.298 27.4894 Q564.298 9.01731 581.555 9.01731 Q599.136 9.01731 599.136 24.6133 Q599.136 35.7128 592.168 39.7637 Q603.511 43.4095 603.511 54.2254 Q603.511 73.4267 583.986 73.4267 Q575.398 73.4267 571.792 69.7809 M571.792 60.0587 Q576.289 67.0668 584.269 67.0668 Q595.936 67.0668 595.936 54.3469 Q595.936 42.9234 577.14 43.8146 L577.14 36.928 Q591.844 36.928 591.844 23.9651 Q591.844 15.0937 582.365 15.0937 Q571.792 15.0937 571.792 27.7325 L571.792 60.0587 Z" fill="#000000" fill-rule="evenodd" fill-opacity="1" /><path clip-path="url(#clip390)" d="M618.256 34.9026 L670.189 34.9026 L670.189 41.7081 L618.256 41.7081 L618.256 34.9026 M618.256 51.4303 L670.189 51.4303 L670.189 58.3168 L618.256 58.3168 L618.256 51.4303 Z" fill="#000000" fill-rule="evenodd" fill-opacity="1" /><path clip-path="url(#clip390)" d="M689.269 65.6895 L702.637 65.6895 L702.637 19.5497 L688.094 22.4663 L688.094 15.0127 L702.556 12.096 L710.738 12.096 L710.738 65.6895 L724.106 65.6895 L724.106 72.576 L689.269 72.576 L689.269 65.6895 Z" fill="#000000" fill-rule="evenodd" fill-opacity="1" /><path clip-path="url(#clip390)" d="M758.134 17.4837 Q751.815 17.4837 748.614 23.7221 Q745.455 29.92 745.455 42.3968 Q745.455 54.833 748.614 61.0714 Q751.815 67.2693 758.134 67.2693 Q764.494 67.2693 767.654 61.0714 Q770.854 54.833 770.854 42.3968 Q770.854 29.92 767.654 23.7221 Q764.494 17.4837 758.134 17.4837 M758.134 11.0023 Q768.302 11.0023 773.649 19.0636 Q779.037 27.0843 779.037 42.3968 Q779.037 57.6687 773.649 65.73 Q768.302 73.7508 758.134 73.7508 Q747.966 73.7508 742.578 65.73 Q737.231 57.6687 737.231 42.3968 Q737.231 27.0843 742.578 19.0636 Q747.966 11.0023 758.134 11.0023 Z" fill="#000000" fill-rule="evenodd" fill-opacity="1" /><path clip-path="url(#clip390)" d="M793.66 71.3202 L793.66 63.8666 Q796.739 65.3249 799.899 66.0946 Q803.058 66.8642 806.097 66.8642 Q814.198 66.8642 818.452 61.436 Q822.746 55.9673 823.353 44.8678 Q821.004 48.3516 817.399 50.215 Q813.793 52.0784 809.418 52.0784 Q800.344 52.0784 795.038 46.6097 Q789.772 41.1005 789.772 31.5808 Q789.772 22.2638 795.281 16.633 Q800.79 11.0023 809.945 11.0023 Q820.437 11.0023 825.946 19.0636 Q831.496 27.0843 831.496 42.3968 Q831.496 56.6965 824.69 65.2439 Q817.925 73.7508 806.461 73.7508 Q803.383 73.7508 800.223 73.1431 Q797.063 72.5355 793.66 71.3202 M809.945 45.678 Q815.454 45.678 818.654 41.9107 Q821.895 38.1433 821.895 31.5808 Q821.895 25.0589 818.654 21.2916 Q815.454 17.4837 809.945 17.4837 Q804.436 17.4837 801.195 21.2916 Q797.995 25.0589 797.995 31.5808 Q797.995 38.1433 801.195 41.9107 Q804.436 45.678 809.945 45.678 Z" fill="#000000" fill-rule="evenodd" fill-opacity="1" /><path clip-path="url(#clip390)" d="M858.07 16.2279 Q854.829 16.2279 852.601 18.4964 Q850.373 20.7244 850.373 23.9651 Q850.373 27.1654 852.601 29.3934 Q854.829 31.5808 858.07 31.5808 Q861.31 31.5808 863.538 29.3934 Q865.766 27.1654 865.766 23.9651 Q865.766 20.7649 863.498 18.4964 Q861.27 16.2279 858.07 16.2279 M858.07 11.0023 Q860.662 11.0023 863.052 12.015 Q865.442 12.9872 867.184 14.8506 Q869.048 16.6735 869.979 18.9825 Q870.911 21.2916 870.911 23.9651 Q870.911 29.3123 867.144 33.0392 Q863.417 36.7255 857.989 36.7255 Q852.52 36.7255 848.874 33.0797 Q845.228 29.4339 845.228 23.9651 Q845.228 18.5369 848.955 14.7696 Q852.682 11.0023 858.07 11.0023 Z" fill="#000000" fill-rule="evenodd" fill-opacity="1" /><path clip-path="url(#clip390)" d="M936.05 50.8226 Q936.05 56.6154 938.926 59.9372 Q941.802 63.2184 946.825 63.2184 Q951.808 63.2184 954.643 59.8967 Q957.519 56.5749 957.519 50.8226 Q957.519 45.1514 954.603 41.8296 Q951.686 38.4674 946.744 38.4674 Q941.842 38.4674 938.926 41.7891 Q936.05 45.1109 936.05 50.8226 M958.127 62.9348 Q955.697 66.054 952.537 67.5529 Q949.418 69.0112 945.245 69.0112 Q938.278 69.0112 933.903 63.9881 Q929.568 58.9245 929.568 50.8226 Q929.568 42.7208 933.943 37.6572 Q938.318 32.5936 945.245 32.5936 Q949.418 32.5936 952.577 34.1329 Q955.737 35.6318 958.127 38.7104 L958.127 33.4038 L963.92 33.4038 L963.92 63.2184 Q969.834 62.3272 973.156 57.8307 Q976.518 53.2937 976.518 46.1236 Q976.518 41.7891 975.222 37.9813 Q973.966 34.1734 971.374 30.9327 Q967.161 25.626 961.084 22.8309 Q955.048 19.9953 947.919 19.9953 Q942.936 19.9953 938.359 21.3321 Q933.781 22.6284 929.892 25.2209 Q923.532 29.3529 919.927 36.0774 Q916.362 42.7613 916.362 50.5796 Q916.362 57.0205 918.671 62.6513 Q921.021 68.282 925.436 72.576 Q929.69 76.7889 935.28 78.9764 Q940.87 81.2044 947.23 81.2044 Q952.456 81.2044 957.479 79.422 Q962.543 77.6801 966.756 74.3989 L970.401 78.8954 Q965.338 82.8248 959.342 84.8907 Q953.388 86.9972 947.23 86.9972 Q939.736 86.9972 933.092 84.3236 Q926.449 81.6905 921.264 76.6269 Q916.079 71.5633 913.365 64.9198 Q910.65 58.2358 910.65 50.5796 Q910.65 43.2069 913.405 36.523 Q916.16 29.839 921.264 24.7753 Q926.49 19.6307 933.336 16.9166 Q940.182 14.162 947.838 14.162 Q956.426 14.162 963.758 17.6862 Q971.13 21.2105 976.113 27.692 Q979.151 31.6619 980.731 36.3204 Q982.351 40.9789 982.351 45.9616 Q982.351 56.6154 975.911 62.7728 Q969.47 68.9302 958.127 69.1732 L958.127 62.9348 Z" fill="#000000" fill-rule="evenodd" fill-opacity="1" /><path clip-path="url(#clip390)" d="M1013.87 9.62495 Q1008.44 18.942 1005.81 28.0566 Q1003.17 37.1711 1003.17 46.5287 Q1003.17 55.8863 1005.81 65.0818 Q1008.48 74.2369 1013.87 83.5134 L1007.39 83.5134 Q1001.31 73.9938 998.272 64.7983 Q995.274 55.6027 995.274 46.5287 Q995.274 37.4952 998.272 28.3401 Q1001.27 19.1851 1007.39 9.62495 L1013.87 9.62495 Z" fill="#000000" fill-rule="evenodd" fill-opacity="1" /><path clip-path="url(#clip390)" d="M1054.17 39.9662 Q1060.05 41.222 1063.33 45.1919 Q1066.65 49.1618 1066.65 54.9951 Q1066.65 63.9476 1060.49 68.8492 Q1054.34 73.7508 1042.99 73.7508 Q1039.19 73.7508 1035.13 72.9811 Q1031.12 72.2519 1026.83 70.7531 L1026.83 62.8538 Q1030.23 64.8388 1034.28 65.8515 Q1038.33 66.8642 1042.75 66.8642 Q1050.45 66.8642 1054.46 63.826 Q1058.51 60.7879 1058.51 54.9951 Q1058.51 49.6479 1054.74 46.6502 Q1051.01 43.612 1044.33 43.612 L1037.28 43.612 L1037.28 36.8875 L1044.65 36.8875 Q1050.69 36.8875 1053.89 34.4975 Q1057.09 32.067 1057.09 27.5299 Q1057.09 22.8714 1053.77 20.4004 Q1050.49 17.8888 1044.33 17.8888 Q1040.97 17.8888 1037.12 18.618 Q1033.27 19.3471 1028.65 20.8865 L1028.65 13.5948 Q1033.31 12.2985 1037.36 11.6504 Q1041.45 11.0023 1045.06 11.0023 Q1054.38 11.0023 1059.8 15.2557 Q1065.23 19.4686 1065.23 26.6793 Q1065.23 31.7024 1062.36 35.1862 Q1059.48 38.6294 1054.17 39.9662 Z" fill="#000000" fill-rule="evenodd" fill-opacity="1" /><path clip-path="url(#clip390)" d="M1082.17 62.2867 L1090.71 62.2867 L1090.71 72.576 L1082.17 72.576 L1082.17 62.2867 Z" fill="#000000" fill-rule="evenodd" fill-opacity="1" /><path clip-path="url(#clip390)" d="M1109.95 65.6895 L1123.32 65.6895 L1123.32 19.5497 L1108.78 22.4663 L1108.78 15.0127 L1123.24 12.096 L1131.42 12.096 L1131.42 65.6895 L1144.79 65.6895 L1144.79 72.576 L1109.95 72.576 L1109.95 65.6895 Z" fill="#000000" fill-rule="evenodd" fill-opacity="1" /><path clip-path="url(#clip390)" d="M1179.83 39.075 Q1174.32 39.075 1171.08 42.8424 Q1167.88 46.6097 1167.88 53.1722 Q1167.88 59.6941 1171.08 63.502 Q1174.32 67.2693 1179.83 67.2693 Q1185.34 67.2693 1188.54 63.502 Q1191.78 59.6941 1191.78 53.1722 Q1191.78 46.6097 1188.54 42.8424 Q1185.34 39.075 1179.83 39.075 M1196.08 13.4328 L1196.08 20.8865 Q1193 19.4281 1189.84 18.6585 Q1186.72 17.8888 1183.64 17.8888 Q1175.54 17.8888 1171.25 23.3575 Q1166.99 28.8262 1166.38 39.8852 Q1168.77 36.3609 1172.38 34.4975 Q1175.98 32.5936 1180.32 32.5936 Q1189.43 32.5936 1194.7 38.1433 Q1200.01 43.6525 1200.01 53.1722 Q1200.01 62.4892 1194.5 68.12 Q1188.99 73.7508 1179.83 73.7508 Q1169.34 73.7508 1163.79 65.73 Q1158.24 57.6687 1158.24 42.3968 Q1158.24 28.0566 1165.05 19.5497 Q1171.85 11.0023 1183.32 11.0023 Q1186.4 11.0023 1189.51 11.6099 Q1192.67 12.2175 1196.08 13.4328 Z" fill="#000000" fill-rule="evenodd" fill-opacity="1" /><path clip-path="url(#clip390)" d="M1214.95 62.2867 L1223.5 62.2867 L1223.5 69.2543 L1216.86 82.2172 L1211.63 82.2172 L1214.95 69.2543 L1214.95 62.2867 Z" fill="#000000" fill-rule="evenodd" fill-opacity="1" /><path clip-path="url(#clip390)" d="M1241.89 65.6895 L1255.26 65.6895 L1255.26 19.5497 L1240.72 22.4663 L1240.72 15.0127 L1255.18 12.096 L1263.36 12.096 L1263.36 65.6895 L1276.73 65.6895 L1276.73 72.576 L1241.89 72.576 L1241.89 65.6895 Z" fill="#000000" fill-rule="evenodd" fill-opacity="1" /><path clip-path="url(#clip390)" d="M1293.26 62.2867 L1301.81 62.2867 L1301.81 72.576 L1293.26 72.576 L1293.26 62.2867 Z" fill="#000000" fill-rule="evenodd" fill-opacity="1" /><path clip-path="url(#clip390)" d="M1326.68 65.6895 L1355.24 65.6895 L1355.24 72.576 L1316.83 72.576 L1316.83 65.6895 Q1321.49 60.8689 1329.51 52.7671 Q1337.58 44.6248 1339.64 42.2752 Q1343.57 37.8598 1345.11 34.8216 Q1346.69 31.7429 1346.69 28.7857 Q1346.69 23.9651 1343.29 20.927 Q1339.92 17.8888 1334.5 17.8888 Q1330.65 17.8888 1326.35 19.2256 Q1322.1 20.5624 1317.24 23.2765 L1317.24 15.0127 Q1322.18 13.0277 1326.48 12.015 Q1330.77 11.0023 1334.33 11.0023 Q1343.73 11.0023 1349.32 15.7013 Q1354.91 20.4004 1354.91 28.2591 Q1354.91 31.9859 1353.5 35.3482 Q1352.12 38.6699 1348.43 43.2069 Q1347.42 44.3817 1341.99 50.0125 Q1336.56 55.6027 1326.68 65.6895 Z" fill="#000000" fill-rule="evenodd" fill-opacity="1" /><path clip-path="url(#clip390)" d="M1373.83 65.6895 L1387.2 65.6895 L1387.2 19.5497 L1372.66 22.4663 L1372.66 15.0127 L1387.12 12.096 L1395.3 12.096 L1395.3 65.6895 L1408.67 65.6895 L1408.67 72.576 L1373.83 72.576 L1373.83 65.6895 Z" fill="#000000" fill-rule="evenodd" fill-opacity="1" /><path clip-path="url(#clip390)" d="M1422.97 9.62495 L1429.45 9.62495 Q1435.53 19.1851 1438.52 28.3401 Q1441.56 37.4952 1441.56 46.5287 Q1441.56 55.6027 1438.52 64.7983 Q1435.53 73.9938 1429.45 83.5134 L1422.97 83.5134 Q1428.36 74.2369 1430.99 65.0818 Q1433.66 55.8863 1433.66 46.5287 Q1433.66 37.1711 1430.99 28.0566 Q1428.36 18.942 1422.97 9.62495 Z" fill="#000000" fill-rule="evenodd" fill-opacity="1" /><path clip-path="url(#clip390)" d="M1518.21 35.9153 Q1521 30.8922 1524.89 28.5022 Q1528.78 26.1121 1534.04 26.1121 Q1541.13 26.1121 1544.98 31.0947 Q1548.83 36.0368 1548.83 45.1919 L1548.83 72.576 L1541.34 72.576 L1541.34 45.4349 Q1541.34 38.913 1539.03 35.7533 Q1536.72 32.5936 1531.98 32.5936 Q1526.19 32.5936 1522.82 36.4419 Q1519.46 40.2903 1519.46 46.9338 L1519.46 72.576 L1511.97 72.576 L1511.97 45.4349 Q1511.97 38.8725 1509.66 35.7533 Q1507.35 32.5936 1502.53 32.5936 Q1496.82 32.5936 1493.45 36.4824 Q1490.09 40.3308 1490.09 46.9338 L1490.09 72.576 L1482.6 72.576 L1482.6 27.2059 L1490.09 27.2059 L1490.09 34.2544 Q1492.64 30.082 1496.21 28.0971 Q1499.77 26.1121 1504.68 26.1121 Q1509.62 26.1121 1513.06 28.6237 Q1516.54 31.1352 1518.21 35.9153 Z" fill="#000000" fill-rule="evenodd" fill-opacity="1" /><path clip-path="url(#clip390)" d="M1599.02 35.9153 Q1601.82 30.8922 1605.7 28.5022 Q1609.59 26.1121 1614.86 26.1121 Q1621.95 26.1121 1625.8 31.0947 Q1629.65 36.0368 1629.65 45.1919 L1629.65 72.576 L1622.15 72.576 L1622.15 45.4349 Q1622.15 38.913 1619.84 35.7533 Q1617.53 32.5936 1612.79 32.5936 Q1607 32.5936 1603.64 36.4419 Q1600.28 40.2903 1600.28 46.9338 L1600.28 72.576 L1592.78 72.576 L1592.78 45.4349 Q1592.78 38.8725 1590.47 35.7533 Q1588.16 32.5936 1583.34 32.5936 Q1577.63 32.5936 1574.27 36.4824 Q1570.91 40.3308 1570.91 46.9338 L1570.91 72.576 L1563.41 72.576 L1563.41 27.2059 L1570.91 27.2059 L1570.91 34.2544 Q1573.46 30.082 1577.02 28.0971 Q1580.59 26.1121 1585.49 26.1121 Q1590.43 26.1121 1593.88 28.6237 Q1597.36 31.1352 1599.02 35.9153 Z" fill="#000000" fill-rule="evenodd" fill-opacity="1" /><path clip-path="url(#clip390)" d="M1646.42 62.2867 L1654.96 62.2867 L1654.96 69.2543 L1648.32 82.2172 L1643.09 82.2172 L1646.42 69.2543 L1646.42 62.2867 Z" fill="#000000" fill-rule="evenodd" fill-opacity="1" /><path clip-path="url(#clip390)" d="M1692.92 27.2059 L1700.37 27.2059 L1709.69 62.6108 L1718.97 27.2059 L1727.76 27.2059 L1737.08 62.6108 L1746.35 27.2059 L1753.81 27.2059 L1741.94 72.576 L1733.15 72.576 L1723.38 35.3887 L1713.58 72.576 L1704.79 72.576 L1692.92 27.2059 Z" fill="#000000" fill-rule="evenodd" fill-opacity="1" /><path clip-path="url(#clip390)" d="M1803.92 48.0275 L1803.92 51.6733 L1769.64 51.6733 Q1770.13 59.3701 1774.26 63.421 Q1778.44 67.4314 1785.85 67.4314 Q1790.14 67.4314 1794.15 66.3781 Q1798.2 65.3249 1802.17 63.2184 L1802.17 70.267 Q1798.16 71.9684 1793.95 72.8596 Q1789.74 73.7508 1785.4 73.7508 Q1774.55 73.7508 1768.19 67.4314 Q1761.87 61.1119 1761.87 50.3365 Q1761.87 39.1965 1767.86 32.6746 Q1773.9 26.1121 1784.11 26.1121 Q1793.26 26.1121 1798.57 32.0264 Q1803.92 37.9003 1803.92 48.0275 M1796.46 45.84 Q1796.38 39.7232 1793.02 36.0774 Q1789.7 32.4315 1784.19 32.4315 Q1777.95 32.4315 1774.18 35.9558 Q1770.45 39.4801 1769.89 45.8805 L1796.46 45.84 Z" fill="#000000" fill-rule="evenodd" fill-opacity="1" /><path clip-path="url(#clip390)" d="M1816.15 27.2059 L1823.6 27.2059 L1823.6 72.576 L1816.15 72.576 L1816.15 27.2059 M1816.15 9.54393 L1823.6 9.54393 L1823.6 18.9825 L1816.15 18.9825 L1816.15 9.54393 Z" fill="#000000" fill-rule="evenodd" fill-opacity="1" /><path clip-path="url(#clip390)" d="M1869.05 49.3643 Q1869.05 41.2625 1865.69 36.8065 Q1862.37 32.3505 1856.33 32.3505 Q1850.34 32.3505 1846.98 36.8065 Q1843.65 41.2625 1843.65 49.3643 Q1843.65 57.4256 1846.98 61.8816 Q1850.34 66.3376 1856.33 66.3376 Q1862.37 66.3376 1865.69 61.8816 Q1869.05 57.4256 1869.05 49.3643 M1876.51 66.9452 Q1876.51 78.5308 1871.36 84.1616 Q1866.22 89.8329 1855.6 89.8329 Q1851.68 89.8329 1848.19 89.2252 Q1844.71 88.6581 1841.43 87.4428 L1841.43 80.1917 Q1844.71 81.9741 1847.91 82.8248 Q1851.11 83.6755 1854.43 83.6755 Q1861.76 83.6755 1865.41 79.8271 Q1869.05 76.0193 1869.05 68.282 L1869.05 64.5957 Q1866.74 68.6061 1863.14 70.5911 Q1859.53 72.576 1854.51 72.576 Q1846.17 72.576 1841.06 66.2161 Q1835.96 59.8562 1835.96 49.3643 Q1835.96 38.832 1841.06 32.472 Q1846.17 26.1121 1854.51 26.1121 Q1859.53 26.1121 1863.14 28.0971 Q1866.74 30.082 1869.05 34.0924 L1869.05 27.2059 L1876.51 27.2059 L1876.51 66.9452 Z" fill="#000000" fill-rule="evenodd" fill-opacity="1" /><path clip-path="url(#clip390)" d="M1929.57 45.1919 L1929.57 72.576 L1922.12 72.576 L1922.12 45.4349 Q1922.12 38.994 1919.61 35.7938 Q1917.1 32.5936 1912.07 32.5936 Q1906.04 32.5936 1902.55 36.4419 Q1899.07 40.2903 1899.07 46.9338 L1899.07 72.576 L1891.58 72.576 L1891.58 9.54393 L1899.07 9.54393 L1899.07 34.2544 Q1901.74 30.163 1905.35 28.1376 Q1909 26.1121 1913.74 26.1121 Q1921.55 26.1121 1925.56 30.9732 Q1929.57 35.7938 1929.57 45.1919 Z" fill="#000000" fill-rule="evenodd" fill-opacity="1" /><path clip-path="url(#clip390)" d="M1951.81 14.324 L1951.81 27.2059 L1967.17 27.2059 L1967.17 32.9987 L1951.81 32.9987 L1951.81 57.6282 Q1951.81 63.1779 1953.31 64.7578 Q1954.85 66.3376 1959.51 66.3376 L1967.17 66.3376 L1967.17 72.576 L1959.51 72.576 Q1950.88 72.576 1947.6 69.3758 Q1944.32 66.1351 1944.32 57.6282 L1944.32 32.9987 L1938.85 32.9987 L1938.85 27.2059 L1944.32 27.2059 L1944.32 14.324 L1951.81 14.324 Z" fill="#000000" fill-rule="evenodd" fill-opacity="1" /><path clip-path="url(#clip390)" d="M2005.89 28.5427 L2005.89 35.5912 Q2002.73 33.9709 1999.33 33.1607 Q1995.93 32.3505 1992.28 32.3505 Q1986.73 32.3505 1983.94 34.0519 Q1981.18 35.7533 1981.18 39.156 Q1981.18 41.7486 1983.17 43.2475 Q1985.15 44.7058 1991.15 46.0426 L1993.7 46.6097 Q2001.64 48.3111 2004.96 51.4303 Q2008.32 54.509 2008.32 60.0587 Q2008.32 66.3781 2003.3 70.0644 Q1998.32 73.7508 1989.57 73.7508 Q1985.92 73.7508 1981.95 73.0216 Q1978.02 72.3329 1973.65 70.9151 L1973.65 63.2184 Q1977.78 65.3654 1981.79 66.4591 Q1985.8 67.5124 1989.73 67.5124 Q1995 67.5124 1997.83 65.73 Q2000.67 63.9071 2000.67 60.6258 Q2000.67 57.5877 1998.6 55.9673 Q1996.58 54.3469 1989.65 52.8481 L1987.06 52.2405 Q1980.13 50.7821 1977.05 47.7845 Q1973.97 44.7463 1973.97 39.4801 Q1973.97 33.0797 1978.51 29.5959 Q1983.05 26.1121 1991.39 26.1121 Q1995.52 26.1121 1999.17 26.7198 Q2002.81 27.3274 2005.89 28.5427 Z" fill="#000000" fill-rule="evenodd" fill-opacity="1" /><circle clip-path="url(#clip392)" cx="280.231" cy="1383.47" r="14" fill="#009af9" fill-rule="evenodd" fill-opacity="1" stroke="#000000" stroke-opacity="1" stroke-width="3.2"/>
<circle clip-path="url(#clip392)" cx="463.155" cy="1299.41" r="14" fill="#009af9" fill-rule="evenodd" fill-opacity="1" stroke="#000000" stroke-opacity="1" stroke-width="3.2"/>
<circle clip-path="url(#clip392)" cx="646.078" cy="1348.1" r="14" fill="#009af9" fill-rule="evenodd" fill-opacity="1" stroke="#000000" stroke-opacity="1" stroke-width="3.2"/>
<circle clip-path="url(#clip392)" cx="829.002" cy="1379.95" r="14" fill="#009af9" fill-rule="evenodd" fill-opacity="1" stroke="#000000" stroke-opacity="1" stroke-width="3.2"/>
<circle clip-path="url(#clip392)" cx="1011.93" cy="1334.92" r="14" fill="#009af9" fill-rule="evenodd" fill-opacity="1" stroke="#000000" stroke-opacity="1" stroke-width="3.2"/>
<circle clip-path="url(#clip392)" cx="1194.85" cy="1355.85" r="14" fill="#009af9" fill-rule="evenodd" fill-opacity="1" stroke="#000000" stroke-opacity="1" stroke-width="3.2"/>
<circle clip-path="url(#clip392)" cx="1377.77" cy="1149.16" r="14" fill="#009af9" fill-rule="evenodd" fill-opacity="1" stroke="#000000" stroke-opacity="1" stroke-width="3.2"/>
<circle clip-path="url(#clip392)" cx="1560.7" cy="160.256" r="14" fill="#009af9" fill-rule="evenodd" fill-opacity="1" stroke="#000000" stroke-opacity="1" stroke-width="3.2"/>
<circle clip-path="url(#clip392)" cx="1743.62" cy="465.89" r="14" fill="#009af9" fill-rule="evenodd" fill-opacity="1" stroke="#000000" stroke-opacity="1" stroke-width="3.2"/>
<circle clip-path="url(#clip392)" cx="1926.54" cy="1311.31" r="14" fill="#009af9" fill-rule="evenodd" fill-opacity="1" stroke="#000000" stroke-opacity="1" stroke-width="3.2"/>
<circle clip-path="url(#clip392)" cx="2109.47" cy="1332.09" r="14" fill="#009af9" fill-rule="evenodd" fill-opacity="1" stroke="#000000" stroke-opacity="1" stroke-width="3.2"/>
<circle clip-path="url(#clip392)" cx="2292.39" cy="1386.4" r="14" fill="#009af9" fill-rule="evenodd" fill-opacity="1" stroke="#000000" stroke-opacity="1" stroke-width="3.2"/>
<path clip-path="url(#clip390)" d="
M1955.2 270.476 L2281.66 270.476 L2281.66 166.796 L1955.2 166.796  Z
  " fill="#ffffff" fill-rule="evenodd" fill-opacity="1"/>
<polyline clip-path="url(#clip390)" style="stroke:#000000; stroke-linecap:butt; stroke-linejoin:round; stroke-width:4; stroke-opacity:1; fill:none" points="
  1955.2,270.476 2281.66,270.476 2281.66,166.796 1955.2,166.796 1955.2,270.476 
  "/>
<circle clip-path="url(#clip390)" cx="2050" cy="218.636" r="23" fill="#009af9" fill-rule="evenodd" fill-opacity="1" stroke="#000000" stroke-opacity="1" stroke-width="5.12"/>
<path clip-path="url(#clip390)" d="M2144.79 209.99 L2149.05 209.99 L2154.38 230.221 L2159.68 209.99 L2164.7 209.99 L2170.03 230.221 L2175.33 209.99 L2179.59 209.99 L2172.8 235.916 L2167.78 235.916 L2162.2 214.666 L2156.6 235.916 L2151.58 235.916 L2144.79 209.99 Z" fill="#000000" fill-rule="evenodd" fill-opacity="1" /><path clip-path="url(#clip390)" d="M2205.74 243.786 L2205.74 247.096 L2181.11 247.096 L2181.11 243.786 L2205.74 243.786 Z" fill="#000000" fill-rule="evenodd" fill-opacity="1" /><path clip-path="url(#clip390)" d="M2224.86 223.856 L2223.85 218.508 Q2222.8 213.022 2218.68 213.022 Q2215.58 213.022 2214.17 215.569 Q2212.39 218.763 2212.39 222.976 Q2212.39 228.069 2214.12 230.499 Q2215.88 232.976 2218.68 232.976 Q2221.79 232.976 2223.45 228.045 L2224.86 223.856 M2227.25 216.772 L2229.54 209.99 L2233.34 209.99 L2228.59 224.041 L2229.52 229.11 Q2229.73 230.244 2230.54 231.194 Q2231.48 232.305 2232.23 232.305 L2234.26 232.305 L2234.26 235.916 L2231.72 235.916 Q2229.54 235.916 2227.6 233.971 Q2226.65 232.999 2226.25 230.962 Q2225.19 233.531 2223.01 235.545 Q2221.99 236.494 2218.68 236.494 Q2213.24 236.494 2210.6 232.976 Q2207.9 229.342 2207.9 222.976 Q2207.9 216.17 2210.84 212.976 Q2214.1 209.411 2218.68 209.411 Q2225.88 209.411 2227.25 216.772 Z" fill="#000000" fill-rule="evenodd" fill-opacity="1" /></svg>
