<?xml version="1.0" encoding="utf-8"?>
<svg xmlns="http://www.w3.org/2000/svg" xmlns:xlink="http://www.w3.org/1999/xlink" width="600" height="400" viewBox="0 0 2400 1600">
<defs>
  <clipPath id="clip470">
    <rect x="0" y="0" width="2400" height="1600"/>
  </clipPath>
</defs>
<path clip-path="url(#clip470)" d="
M0 1600 L2400 1600 L2400 0 L0 0  Z
  " fill="#ffffff" fill-rule="evenodd" fill-opacity="1"/>
<defs>
  <clipPath id="clip471">
    <rect x="480" y="0" width="1681" height="1600"/>
  </clipPath>
</defs>
<path clip-path="url(#clip470)" d="
M219.866 1423.18 L2352.76 1423.18 L2352.76 123.472 L219.866 123.472  Z
  " fill="#ffffff" fill-rule="evenodd" fill-opacity="1"/>
<defs>
  <clipPath id="clip472">
    <rect x="219" y="123" width="2134" height="1301"/>
  </clipPath>
</defs>
<polyline clip-path="url(#clip472)" style="stroke:#000000; stroke-linecap:butt; stroke-linejoin:round; stroke-width:2; stroke-opacity:0.1; fill:none" points="
  280.231,1423.18 280.231,123.472 
  "/>
<polyline clip-path="url(#clip472)" style="stroke:#000000; stroke-linecap:butt; stroke-linejoin:round; stroke-width:2; stroke-opacity:0.1; fill:none" points="
  447.911,1423.18 447.911,123.472 
  "/>
<polyline clip-path="url(#clip472)" style="stroke:#000000; stroke-linecap:butt; stroke-linejoin:round; stroke-width:2; stroke-opacity:0.1; fill:none" points="
  615.591,1423.18 615.591,123.472 
  "/>
<polyline clip-path="url(#clip472)" style="stroke:#000000; stroke-linecap:butt; stroke-linejoin:round; stroke-width:2; stroke-opacity:0.1; fill:none" points="
  783.271,1423.18 783.271,123.472 
  "/>
<polyline clip-path="url(#clip472)" style="stroke:#000000; stroke-linecap:butt; stroke-linejoin:round; stroke-width:2; stroke-opacity:0.1; fill:none" points="
  950.951,1423.18 950.951,123.472 
  "/>
<polyline clip-path="url(#clip472)" style="stroke:#000000; stroke-linecap:butt; stroke-linejoin:round; stroke-width:2; stroke-opacity:0.1; fill:none" points="
  1118.63,1423.18 1118.63,123.472 
  "/>
<polyline clip-path="url(#clip472)" style="stroke:#000000; stroke-linecap:butt; stroke-linejoin:round; stroke-width:2; stroke-opacity:0.1; fill:none" points="
  1286.31,1423.18 1286.31,123.472 
  "/>
<polyline clip-path="url(#clip472)" style="stroke:#000000; stroke-linecap:butt; stroke-linejoin:round; stroke-width:2; stroke-opacity:0.1; fill:none" points="
  1453.99,1423.18 1453.99,123.472 
  "/>
<polyline clip-path="url(#clip472)" style="stroke:#000000; stroke-linecap:butt; stroke-linejoin:round; stroke-width:2; stroke-opacity:0.1; fill:none" points="
  1621.67,1423.18 1621.67,123.472 
  "/>
<polyline clip-path="url(#clip472)" style="stroke:#000000; stroke-linecap:butt; stroke-linejoin:round; stroke-width:2; stroke-opacity:0.1; fill:none" points="
  1789.35,1423.18 1789.35,123.472 
  "/>
<polyline clip-path="url(#clip472)" style="stroke:#000000; stroke-linecap:butt; stroke-linejoin:round; stroke-width:2; stroke-opacity:0.1; fill:none" points="
  1957.03,1423.18 1957.03,123.472 
  "/>
<polyline clip-path="url(#clip472)" style="stroke:#000000; stroke-linecap:butt; stroke-linejoin:round; stroke-width:2; stroke-opacity:0.1; fill:none" points="
  2124.71,1423.18 2124.71,123.472 
  "/>
<polyline clip-path="url(#clip470)" style="stroke:#000000; stroke-linecap:butt; stroke-linejoin:round; stroke-width:4; stroke-opacity:1; fill:none" points="
  219.866,1423.18 2352.76,1423.18 
  "/>
<polyline clip-path="url(#clip470)" style="stroke:#000000; stroke-linecap:butt; stroke-linejoin:round; stroke-width:4; stroke-opacity:1; fill:none" points="
  280.231,1423.18 280.231,1404.28 
  "/>
<polyline clip-path="url(#clip470)" style="stroke:#000000; stroke-linecap:butt; stroke-linejoin:round; stroke-width:4; stroke-opacity:1; fill:none" points="
  447.911,1423.18 447.911,1404.28 
  "/>
<polyline clip-path="url(#clip470)" style="stroke:#000000; stroke-linecap:butt; stroke-linejoin:round; stroke-width:4; stroke-opacity:1; fill:none" points="
  615.591,1423.18 615.591,1404.28 
  "/>
<polyline clip-path="url(#clip470)" style="stroke:#000000; stroke-linecap:butt; stroke-linejoin:round; stroke-width:4; stroke-opacity:1; fill:none" points="
  783.271,1423.18 783.271,1404.28 
  "/>
<polyline clip-path="url(#clip470)" style="stroke:#000000; stroke-linecap:butt; stroke-linejoin:round; stroke-width:4; stroke-opacity:1; fill:none" points="
  950.951,1423.18 950.951,1404.28 
  "/>
<polyline clip-path="url(#clip470)" style="stroke:#000000; stroke-linecap:butt; stroke-linejoin:round; stroke-width:4; stroke-opacity:1; fill:none" points="
  1118.63,1423.18 1118.63,1404.28 
  "/>
<polyline clip-path="url(#clip470)" style="stroke:#000000; stroke-linecap:butt; stroke-linejoin:round; stroke-width:4; stroke-opacity:1; fill:none" points="
  1286.31,1423.18 1286.31,1404.28 
  "/>
<polyline clip-path="url(#clip470)" style="stroke:#000000; stroke-linecap:butt; stroke-linejoin:round; stroke-width:4; stroke-opacity:1; fill:none" points="
  1453.99,1423.18 1453.99,1404.28 
  "/>
<polyline clip-path="url(#clip470)" style="stroke:#000000; stroke-linecap:butt; stroke-linejoin:round; stroke-width:4; stroke-opacity:1; fill:none" points="
  1621.67,1423.18 1621.67,1404.28 
  "/>
<polyline clip-path="url(#clip470)" style="stroke:#000000; stroke-linecap:butt; stroke-linejoin:round; stroke-width:4; stroke-opacity:1; fill:none" points="
  1789.35,1423.18 1789.35,1404.28 
  "/>
<polyline clip-path="url(#clip470)" style="stroke:#000000; stroke-linecap:butt; stroke-linejoin:round; stroke-width:4; stroke-opacity:1; fill:none" points="
  1957.03,1423.18 1957.03,1404.28 
  "/>
<polyline clip-path="url(#clip470)" style="stroke:#000000; stroke-linecap:butt; stroke-linejoin:round; stroke-width:4; stroke-opacity:1; fill:none" points="
  2124.71,1423.18 2124.71,1404.28 
  "/>
<path clip-path="url(#clip470)" d="M280.231 1452.37 Q276.62 1452.37 274.791 1455.94 Q272.986 1459.48 272.986 1466.61 Q272.986 1473.71 274.791 1477.28 Q276.62 1480.82 280.231 1480.82 Q283.865 1480.82 285.671 1477.28 Q287.5 1473.71 287.5 1466.61 Q287.5 1459.48 285.671 1455.94 Q283.865 1452.37 280.231 1452.37 M280.231 1448.67 Q286.041 1448.67 289.097 1453.27 Q292.175 1457.86 292.175 1466.61 Q292.175 1475.33 289.097 1479.94 Q286.041 1484.52 280.231 1484.52 Q274.421 1484.52 271.342 1479.94 Q268.287 1475.33 268.287 1466.61 Q268.287 1457.86 271.342 1453.27 Q274.421 1448.67 280.231 1448.67 Z" fill="#000000" fill-rule="evenodd" fill-opacity="1" /><path clip-path="url(#clip470)" d="M423.096 1479.92 L430.735 1479.92 L430.735 1453.55 L422.425 1455.22 L422.425 1450.96 L430.689 1449.29 L435.365 1449.29 L435.365 1479.92 L443.004 1479.92 L443.004 1483.85 L423.096 1483.85 L423.096 1479.92 Z" fill="#000000" fill-rule="evenodd" fill-opacity="1" /><path clip-path="url(#clip470)" d="M452.494 1449.29 L470.851 1449.29 L470.851 1453.23 L456.777 1453.23 L456.777 1461.7 Q457.795 1461.35 458.814 1461.19 Q459.832 1461 460.851 1461 Q466.638 1461 470.017 1464.18 Q473.397 1467.35 473.397 1472.76 Q473.397 1478.34 469.925 1481.44 Q466.453 1484.52 460.133 1484.52 Q457.957 1484.52 455.689 1484.15 Q453.443 1483.78 451.036 1483.04 L451.036 1478.34 Q453.119 1479.48 455.342 1480.03 Q457.564 1480.59 460.041 1480.59 Q464.045 1480.59 466.383 1478.48 Q468.721 1476.38 468.721 1472.76 Q468.721 1469.15 466.383 1467.05 Q464.045 1464.94 460.041 1464.94 Q458.166 1464.94 456.291 1465.36 Q454.439 1465.77 452.494 1466.65 L452.494 1449.29 Z" fill="#000000" fill-rule="evenodd" fill-opacity="1" /><path clip-path="url(#clip470)" d="M604.434 1465.22 Q607.79 1465.94 609.665 1468.2 Q611.563 1470.47 611.563 1473.81 Q611.563 1478.92 608.045 1481.72 Q604.526 1484.52 598.045 1484.52 Q595.869 1484.52 593.554 1484.08 Q591.262 1483.67 588.809 1482.81 L588.809 1478.3 Q590.753 1479.43 593.068 1480.01 Q595.383 1480.59 597.906 1480.59 Q602.304 1480.59 604.596 1478.85 Q606.911 1477.12 606.911 1473.81 Q606.911 1470.75 604.758 1469.04 Q602.628 1467.3 598.809 1467.3 L594.781 1467.3 L594.781 1463.46 L598.994 1463.46 Q602.443 1463.46 604.272 1462.09 Q606.1 1460.7 606.1 1458.11 Q606.1 1455.45 604.202 1454.04 Q602.327 1452.6 598.809 1452.6 Q596.887 1452.6 594.688 1453.02 Q592.489 1453.44 589.85 1454.31 L589.85 1450.15 Q592.512 1449.41 594.827 1449.04 Q597.165 1448.67 599.225 1448.67 Q604.549 1448.67 607.651 1451.1 Q610.753 1453.5 610.753 1457.63 Q610.753 1460.5 609.11 1462.49 Q607.466 1464.45 604.434 1465.22 Z" fill="#000000" fill-rule="evenodd" fill-opacity="1" /><path clip-path="url(#clip470)" d="M630.429 1452.37 Q626.818 1452.37 624.989 1455.94 Q623.184 1459.48 623.184 1466.61 Q623.184 1473.71 624.989 1477.28 Q626.818 1480.82 630.429 1480.82 Q634.063 1480.82 635.869 1477.28 Q637.697 1473.71 637.697 1466.61 Q637.697 1459.48 635.869 1455.94 Q634.063 1452.37 630.429 1452.37 M630.429 1448.67 Q636.239 1448.67 639.295 1453.27 Q642.373 1457.86 642.373 1466.61 Q642.373 1475.33 639.295 1479.94 Q636.239 1484.52 630.429 1484.52 Q624.619 1484.52 621.54 1479.94 Q618.485 1475.33 618.485 1466.61 Q618.485 1457.86 621.54 1453.27 Q624.619 1448.67 630.429 1448.67 Z" fill="#000000" fill-rule="evenodd" fill-opacity="1" /><path clip-path="url(#clip470)" d="M771.94 1453.37 L760.135 1471.81 L771.94 1471.81 L771.94 1453.37 M770.713 1449.29 L776.593 1449.29 L776.593 1471.81 L781.523 1471.81 L781.523 1475.7 L776.593 1475.7 L776.593 1483.85 L771.94 1483.85 L771.94 1475.7 L756.338 1475.7 L756.338 1471.19 L770.713 1449.29 Z" fill="#000000" fill-rule="evenodd" fill-opacity="1" /><path clip-path="url(#clip470)" d="M789.301 1449.29 L807.658 1449.29 L807.658 1453.23 L793.584 1453.23 L793.584 1461.7 Q794.602 1461.35 795.621 1461.19 Q796.639 1461 797.658 1461 Q803.445 1461 806.824 1464.18 Q810.204 1467.35 810.204 1472.76 Q810.204 1478.34 806.732 1481.44 Q803.259 1484.52 796.94 1484.52 Q794.764 1484.52 792.496 1484.15 Q790.25 1483.78 787.843 1483.04 L787.843 1478.34 Q789.926 1479.48 792.148 1480.03 Q794.371 1480.59 796.847 1480.59 Q800.852 1480.59 803.19 1478.48 Q805.528 1476.38 805.528 1472.76 Q805.528 1469.15 803.19 1467.05 Q800.852 1464.94 796.847 1464.94 Q794.972 1464.94 793.097 1465.36 Q791.246 1465.77 789.301 1466.65 L789.301 1449.29 Z" fill="#000000" fill-rule="evenodd" fill-opacity="1" /><path clip-path="url(#clip470)" d="M936.356 1464.71 Q933.208 1464.71 931.356 1466.86 Q929.528 1469.01 929.528 1472.76 Q929.528 1476.49 931.356 1478.67 Q933.208 1480.82 936.356 1480.82 Q939.504 1480.82 941.333 1478.67 Q943.185 1476.49 943.185 1472.76 Q943.185 1469.01 941.333 1466.86 Q939.504 1464.71 936.356 1464.71 M945.639 1450.06 L945.639 1454.31 Q943.879 1453.48 942.074 1453.04 Q940.291 1452.6 938.532 1452.6 Q933.903 1452.6 931.449 1455.73 Q929.018 1458.85 928.671 1465.17 Q930.037 1463.16 932.097 1462.09 Q934.157 1461 936.634 1461 Q941.842 1461 944.852 1464.18 Q947.884 1467.32 947.884 1472.76 Q947.884 1478.09 944.736 1481.31 Q941.588 1484.52 936.356 1484.52 Q930.361 1484.52 927.19 1479.94 Q924.018 1475.33 924.018 1466.61 Q924.018 1458.41 927.907 1453.55 Q931.796 1448.67 938.347 1448.67 Q940.106 1448.67 941.889 1449.01 Q943.694 1449.36 945.639 1450.06 Z" fill="#000000" fill-rule="evenodd" fill-opacity="1" /><path clip-path="url(#clip470)" d="M965.939 1452.37 Q962.328 1452.37 960.5 1455.94 Q958.694 1459.48 958.694 1466.61 Q958.694 1473.71 960.5 1477.28 Q962.328 1480.82 965.939 1480.82 Q969.574 1480.82 971.379 1477.28 Q973.208 1473.71 973.208 1466.61 Q973.208 1459.48 971.379 1455.94 Q969.574 1452.37 965.939 1452.37 M965.939 1448.67 Q971.75 1448.67 974.805 1453.27 Q977.884 1457.86 977.884 1466.61 Q977.884 1475.33 974.805 1479.94 Q971.75 1484.52 965.939 1484.52 Q960.129 1484.52 957.051 1479.94 Q953.995 1475.33 953.995 1466.61 Q953.995 1457.86 957.051 1453.27 Q960.129 1448.67 965.939 1448.67 Z" fill="#000000" fill-rule="evenodd" fill-opacity="1" /><path clip-path="url(#clip470)" d="M1092.49 1449.29 L1114.71 1449.29 L1114.71 1451.28 L1102.16 1483.85 L1097.28 1483.85 L1109.08 1453.23 L1092.49 1453.23 L1092.49 1449.29 Z" fill="#000000" fill-rule="evenodd" fill-opacity="1" /><path clip-path="url(#clip470)" d="M1123.87 1449.29 L1142.23 1449.29 L1142.23 1453.23 L1128.16 1453.23 L1128.16 1461.7 Q1129.18 1461.35 1130.19 1461.19 Q1131.21 1461 1132.23 1461 Q1138.02 1461 1141.4 1464.18 Q1144.78 1467.35 1144.78 1472.76 Q1144.78 1478.34 1141.3 1481.44 Q1137.83 1484.52 1131.51 1484.52 Q1129.34 1484.52 1127.07 1484.15 Q1124.82 1483.78 1122.42 1483.04 L1122.42 1478.34 Q1124.5 1479.48 1126.72 1480.03 Q1128.94 1480.59 1131.42 1480.59 Q1135.42 1480.59 1137.76 1478.48 Q1140.1 1476.38 1140.1 1472.76 Q1140.1 1469.15 1137.76 1467.05 Q1135.42 1464.94 1131.42 1464.94 Q1129.55 1464.94 1127.67 1465.36 Q1125.82 1465.77 1123.87 1466.65 L1123.87 1449.29 Z" fill="#000000" fill-rule="evenodd" fill-opacity="1" /><path clip-path="url(#clip470)" d="M1261.44 1483.13 L1261.44 1478.88 Q1263.2 1479.71 1265 1480.15 Q1266.81 1480.59 1268.54 1480.59 Q1273.17 1480.59 1275.61 1477.49 Q1278.06 1474.36 1278.41 1468.02 Q1277.06 1470.01 1275 1471.07 Q1272.94 1472.14 1270.44 1472.14 Q1265.26 1472.14 1262.23 1469.01 Q1259.22 1465.87 1259.22 1460.43 Q1259.22 1455.1 1262.36 1451.88 Q1265.51 1448.67 1270.74 1448.67 Q1276.74 1448.67 1279.89 1453.27 Q1283.06 1457.86 1283.06 1466.61 Q1283.06 1474.78 1279.17 1479.66 Q1275.3 1484.52 1268.75 1484.52 Q1266.99 1484.52 1265.19 1484.18 Q1263.38 1483.83 1261.44 1483.13 M1270.74 1468.48 Q1273.89 1468.48 1275.72 1466.33 Q1277.57 1464.18 1277.57 1460.43 Q1277.57 1456.7 1275.72 1454.55 Q1273.89 1452.37 1270.74 1452.37 Q1267.6 1452.37 1265.74 1454.55 Q1263.92 1456.7 1263.92 1460.43 Q1263.92 1464.18 1265.74 1466.33 Q1267.6 1468.48 1270.74 1468.48 Z" fill="#000000" fill-rule="evenodd" fill-opacity="1" /><path clip-path="url(#clip470)" d="M1301.46 1452.37 Q1297.85 1452.37 1296.02 1455.94 Q1294.22 1459.48 1294.22 1466.61 Q1294.22 1473.71 1296.02 1477.28 Q1297.85 1480.82 1301.46 1480.82 Q1305.1 1480.82 1306.9 1477.28 Q1308.73 1473.71 1308.73 1466.61 Q1308.73 1459.48 1306.9 1455.94 Q1305.1 1452.37 1301.46 1452.37 M1301.46 1448.67 Q1307.27 1448.67 1310.33 1453.27 Q1313.41 1457.86 1313.41 1466.61 Q1313.41 1475.33 1310.33 1479.94 Q1307.27 1484.52 1301.46 1484.52 Q1295.65 1484.52 1292.57 1479.94 Q1289.52 1475.33 1289.52 1466.61 Q1289.52 1457.86 1292.57 1453.27 Q1295.65 1448.67 1301.46 1448.67 Z" fill="#000000" fill-rule="evenodd" fill-opacity="1" /><path clip-path="url(#clip470)" d="M1414.1 1479.92 L1421.73 1479.92 L1421.73 1453.55 L1413.42 1455.22 L1413.42 1450.96 L1421.69 1449.29 L1426.36 1449.29 L1426.36 1479.92 L1434 1479.92 L1434 1483.85 L1414.1 1483.85 L1414.1 1479.92 Z" fill="#000000" fill-rule="evenodd" fill-opacity="1" /><path clip-path="url(#clip470)" d="M1453.45 1452.37 Q1449.84 1452.37 1448.01 1455.94 Q1446.2 1459.48 1446.2 1466.61 Q1446.2 1473.71 1448.01 1477.28 Q1449.84 1480.82 1453.45 1480.82 Q1457.08 1480.82 1458.89 1477.28 Q1460.72 1473.71 1460.72 1466.61 Q1460.72 1459.48 1458.89 1455.94 Q1457.08 1452.37 1453.45 1452.37 M1453.45 1448.67 Q1459.26 1448.67 1462.31 1453.27 Q1465.39 1457.86 1465.39 1466.61 Q1465.39 1475.33 1462.31 1479.94 Q1459.26 1484.52 1453.45 1484.52 Q1447.64 1484.52 1444.56 1479.94 Q1441.5 1475.33 1441.5 1466.61 Q1441.5 1457.86 1444.56 1453.27 Q1447.64 1448.67 1453.45 1448.67 Z" fill="#000000" fill-rule="evenodd" fill-opacity="1" /><path clip-path="url(#clip470)" d="M1473.66 1449.29 L1492.01 1449.29 L1492.01 1453.23 L1477.94 1453.23 L1477.94 1461.7 Q1478.96 1461.35 1479.97 1461.19 Q1480.99 1461 1482.01 1461 Q1487.8 1461 1491.18 1464.18 Q1494.56 1467.35 1494.56 1472.76 Q1494.56 1478.34 1491.09 1481.44 Q1487.61 1484.52 1481.29 1484.52 Q1479.12 1484.52 1476.85 1484.15 Q1474.6 1483.78 1472.2 1483.04 L1472.2 1478.34 Q1474.28 1479.48 1476.5 1480.03 Q1478.72 1480.59 1481.2 1480.59 Q1485.21 1480.59 1487.54 1478.48 Q1489.88 1476.38 1489.88 1472.76 Q1489.88 1469.15 1487.54 1467.05 Q1485.21 1464.94 1481.2 1464.94 Q1479.33 1464.94 1477.45 1465.36 Q1475.6 1465.77 1473.66 1466.65 L1473.66 1449.29 Z" fill="#000000" fill-rule="evenodd" fill-opacity="1" /><path clip-path="url(#clip470)" d="M1581.28 1479.92 L1588.92 1479.92 L1588.92 1453.55 L1580.61 1455.22 L1580.61 1450.96 L1588.87 1449.29 L1593.55 1449.29 L1593.55 1479.92 L1601.19 1479.92 L1601.19 1483.85 L1581.28 1483.85 L1581.28 1479.92 Z" fill="#000000" fill-rule="evenodd" fill-opacity="1" /><path clip-path="url(#clip470)" d="M1614.66 1479.92 L1630.98 1479.92 L1630.98 1483.85 L1609.03 1483.85 L1609.03 1479.92 Q1611.69 1477.16 1616.28 1472.53 Q1620.88 1467.88 1622.06 1466.54 Q1624.31 1464.01 1625.19 1462.28 Q1626.09 1460.52 1626.09 1458.83 Q1626.09 1456.07 1624.15 1454.34 Q1622.23 1452.6 1619.12 1452.6 Q1616.93 1452.6 1614.47 1453.37 Q1612.04 1454.13 1609.26 1455.68 L1609.26 1450.96 Q1612.09 1449.82 1614.54 1449.25 Q1617 1448.67 1619.03 1448.67 Q1624.4 1448.67 1627.6 1451.35 Q1630.79 1454.04 1630.79 1458.53 Q1630.79 1460.66 1629.98 1462.58 Q1629.19 1464.48 1627.09 1467.07 Q1626.51 1467.74 1623.41 1470.96 Q1620.31 1474.15 1614.66 1479.92 Z" fill="#000000" fill-rule="evenodd" fill-opacity="1" /><path clip-path="url(#clip470)" d="M1650.79 1452.37 Q1647.18 1452.37 1645.35 1455.94 Q1643.55 1459.48 1643.55 1466.61 Q1643.55 1473.71 1645.35 1477.28 Q1647.18 1480.82 1650.79 1480.82 Q1654.43 1480.82 1656.23 1477.28 Q1658.06 1473.71 1658.06 1466.61 Q1658.06 1459.48 1656.23 1455.94 Q1654.43 1452.37 1650.79 1452.37 M1650.79 1448.67 Q1656.6 1448.67 1659.66 1453.27 Q1662.74 1457.86 1662.74 1466.61 Q1662.74 1475.33 1659.66 1479.94 Q1656.6 1484.52 1650.79 1484.52 Q1644.98 1484.52 1641.9 1479.94 Q1638.85 1475.33 1638.85 1466.61 Q1638.85 1457.86 1641.9 1453.27 Q1644.98 1448.67 1650.79 1448.67 Z" fill="#000000" fill-rule="evenodd" fill-opacity="1" /><path clip-path="url(#clip470)" d="M1749.46 1479.92 L1757.09 1479.92 L1757.09 1453.55 L1748.78 1455.22 L1748.78 1450.96 L1757.05 1449.29 L1761.72 1449.29 L1761.72 1479.92 L1769.36 1479.92 L1769.36 1483.85 L1749.46 1483.85 L1749.46 1479.92 Z" fill="#000000" fill-rule="evenodd" fill-opacity="1" /><path clip-path="url(#clip470)" d="M1792.97 1465.22 Q1796.33 1465.94 1798.21 1468.2 Q1800.1 1470.47 1800.1 1473.81 Q1800.1 1478.92 1796.58 1481.72 Q1793.07 1484.52 1786.58 1484.52 Q1784.41 1484.52 1782.09 1484.08 Q1779.8 1483.67 1777.35 1482.81 L1777.35 1478.3 Q1779.29 1479.43 1781.61 1480.01 Q1783.92 1480.59 1786.45 1480.59 Q1790.84 1480.59 1793.14 1478.85 Q1795.45 1477.12 1795.45 1473.81 Q1795.45 1470.75 1793.3 1469.04 Q1791.17 1467.3 1787.35 1467.3 L1783.32 1467.3 L1783.32 1463.46 L1787.53 1463.46 Q1790.98 1463.46 1792.81 1462.09 Q1794.64 1460.7 1794.64 1458.11 Q1794.64 1455.45 1792.74 1454.04 Q1790.87 1452.6 1787.35 1452.6 Q1785.43 1452.6 1783.23 1453.02 Q1781.03 1453.44 1778.39 1454.31 L1778.39 1450.15 Q1781.05 1449.41 1783.37 1449.04 Q1785.71 1448.67 1787.77 1448.67 Q1793.09 1448.67 1796.19 1451.1 Q1799.29 1453.5 1799.29 1457.63 Q1799.29 1460.5 1797.65 1462.49 Q1796.01 1464.45 1792.97 1465.22 Z" fill="#000000" fill-rule="evenodd" fill-opacity="1" /><path clip-path="url(#clip470)" d="M1809.02 1449.29 L1827.37 1449.29 L1827.37 1453.23 L1813.3 1453.23 L1813.3 1461.7 Q1814.32 1461.35 1815.33 1461.19 Q1816.35 1461 1817.37 1461 Q1823.16 1461 1826.54 1464.18 Q1829.92 1467.35 1829.92 1472.76 Q1829.92 1478.34 1826.45 1481.44 Q1822.97 1484.52 1816.65 1484.52 Q1814.48 1484.52 1812.21 1484.15 Q1809.96 1483.78 1807.56 1483.04 L1807.56 1478.34 Q1809.64 1479.48 1811.86 1480.03 Q1814.08 1480.59 1816.56 1480.59 Q1820.57 1480.59 1822.9 1478.48 Q1825.24 1476.38 1825.24 1472.76 Q1825.24 1469.15 1822.9 1467.05 Q1820.57 1464.94 1816.56 1464.94 Q1814.69 1464.94 1812.81 1465.36 Q1810.96 1465.77 1809.02 1466.65 L1809.02 1449.29 Z" fill="#000000" fill-rule="evenodd" fill-opacity="1" /><path clip-path="url(#clip470)" d="M1916.64 1479.92 L1924.28 1479.92 L1924.28 1453.55 L1915.97 1455.22 L1915.97 1450.96 L1924.23 1449.29 L1928.91 1449.29 L1928.91 1479.92 L1936.55 1479.92 L1936.55 1483.85 L1916.64 1483.85 L1916.64 1479.92 Z" fill="#000000" fill-rule="evenodd" fill-opacity="1" /><path clip-path="url(#clip470)" d="M1946.04 1449.29 L1964.39 1449.29 L1964.39 1453.23 L1950.32 1453.23 L1950.32 1461.7 Q1951.34 1461.35 1952.36 1461.19 Q1953.37 1461 1954.39 1461 Q1960.18 1461 1963.56 1464.18 Q1966.94 1467.35 1966.94 1472.76 Q1966.94 1478.34 1963.47 1481.44 Q1959.99 1484.52 1953.67 1484.52 Q1951.5 1484.52 1949.23 1484.15 Q1946.98 1483.78 1944.58 1483.04 L1944.58 1478.34 Q1946.66 1479.48 1948.88 1480.03 Q1951.11 1480.59 1953.58 1480.59 Q1957.59 1480.59 1959.92 1478.48 Q1962.26 1476.38 1962.26 1472.76 Q1962.26 1469.15 1959.92 1467.05 Q1957.59 1464.94 1953.58 1464.94 Q1951.71 1464.94 1949.83 1465.36 Q1947.98 1465.77 1946.04 1466.65 L1946.04 1449.29 Z" fill="#000000" fill-rule="evenodd" fill-opacity="1" /><path clip-path="url(#clip470)" d="M1986.15 1452.37 Q1982.54 1452.37 1980.71 1455.94 Q1978.91 1459.48 1978.91 1466.61 Q1978.91 1473.71 1980.71 1477.28 Q1982.54 1480.82 1986.15 1480.82 Q1989.79 1480.82 1991.59 1477.28 Q1993.42 1473.71 1993.42 1466.61 Q1993.42 1459.48 1991.59 1455.94 Q1989.79 1452.37 1986.15 1452.37 M1986.15 1448.67 Q1991.96 1448.67 1995.02 1453.27 Q1998.1 1457.86 1998.1 1466.61 Q1998.1 1475.33 1995.02 1479.94 Q1991.96 1484.52 1986.15 1484.52 Q1980.34 1484.52 1977.26 1479.94 Q1974.21 1475.33 1974.21 1466.61 Q1974.21 1457.86 1977.26 1453.27 Q1980.34 1448.67 1986.15 1448.67 Z" fill="#000000" fill-rule="evenodd" fill-opacity="1" /><path clip-path="url(#clip470)" d="M2084.82 1479.92 L2092.45 1479.92 L2092.45 1453.55 L2084.14 1455.22 L2084.14 1450.96 L2092.41 1449.29 L2097.08 1449.29 L2097.08 1479.92 L2104.72 1479.92 L2104.72 1483.85 L2084.82 1483.85 L2084.82 1479.92 Z" fill="#000000" fill-rule="evenodd" fill-opacity="1" /><path clip-path="url(#clip470)" d="M2124.75 1464.71 Q2121.6 1464.71 2119.75 1466.86 Q2117.92 1469.01 2117.92 1472.76 Q2117.92 1476.49 2119.75 1478.67 Q2121.6 1480.82 2124.75 1480.82 Q2127.89 1480.82 2129.72 1478.67 Q2131.57 1476.49 2131.57 1472.76 Q2131.57 1469.01 2129.72 1466.86 Q2127.89 1464.71 2124.75 1464.71 M2134.03 1450.06 L2134.03 1454.31 Q2132.27 1453.48 2130.46 1453.04 Q2128.68 1452.6 2126.92 1452.6 Q2122.29 1452.6 2119.84 1455.73 Q2117.41 1458.85 2117.06 1465.17 Q2118.43 1463.16 2120.49 1462.09 Q2122.55 1461 2125.02 1461 Q2130.23 1461 2133.24 1464.18 Q2136.27 1467.32 2136.27 1472.76 Q2136.27 1478.09 2133.13 1481.31 Q2129.98 1484.52 2124.75 1484.52 Q2118.75 1484.52 2115.58 1479.94 Q2112.41 1475.33 2112.41 1466.61 Q2112.41 1458.41 2116.3 1453.55 Q2120.19 1448.67 2126.74 1448.67 Q2128.5 1448.67 2130.28 1449.01 Q2132.08 1449.36 2134.03 1450.06 Z" fill="#000000" fill-rule="evenodd" fill-opacity="1" /><path clip-path="url(#clip470)" d="M2144.38 1449.29 L2162.73 1449.29 L2162.73 1453.23 L2148.66 1453.23 L2148.66 1461.7 Q2149.68 1461.35 2150.69 1461.19 Q2151.71 1461 2152.73 1461 Q2158.52 1461 2161.9 1464.18 Q2165.28 1467.35 2165.28 1472.76 Q2165.28 1478.34 2161.81 1481.44 Q2158.33 1484.52 2152.01 1484.52 Q2149.84 1484.52 2147.57 1484.15 Q2145.32 1483.78 2142.92 1483.04 L2142.92 1478.34 Q2145 1479.48 2147.22 1480.03 Q2149.44 1480.59 2151.92 1480.59 Q2155.93 1480.59 2158.26 1478.48 Q2160.6 1476.38 2160.6 1472.76 Q2160.6 1469.15 2158.26 1467.05 Q2155.93 1464.94 2151.92 1464.94 Q2150.05 1464.94 2148.17 1465.36 Q2146.32 1465.77 2144.38 1466.65 L2144.38 1449.29 Z" fill="#000000" fill-rule="evenodd" fill-opacity="1" /><path clip-path="url(#clip470)" d="M1245.06 1551.46 L1243.66 1544.11 Q1242.23 1536.57 1236.56 1536.57 Q1232.3 1536.57 1230.36 1540.07 Q1227.91 1544.46 1227.91 1550.25 Q1227.91 1557.25 1230.29 1560.6 Q1232.71 1564 1236.56 1564 Q1240.83 1564 1243.12 1557.22 L1245.06 1551.46 M1248.34 1541.72 L1251.49 1532.4 L1256.71 1532.4 L1250.19 1551.72 L1251.46 1558.69 Q1251.75 1560.25 1252.86 1561.55 Q1254.16 1563.08 1255.18 1563.08 L1257.98 1563.08 L1257.98 1568.04 L1254.48 1568.04 Q1251.49 1568.04 1248.82 1565.37 Q1247.51 1564.03 1246.97 1561.23 Q1245.51 1564.77 1242.52 1567.53 Q1241.11 1568.84 1236.56 1568.84 Q1229.08 1568.84 1225.45 1564 Q1221.73 1559 1221.73 1550.25 Q1221.73 1540.89 1225.77 1536.5 Q1230.26 1531.6 1236.56 1531.6 Q1246.46 1531.6 1248.34 1541.72 Z" fill="#000000" fill-rule="evenodd" fill-opacity="1" /><path clip-path="url(#clip470)" d="M1298.37 1520.52 L1303.78 1520.52 L1287.23 1574.09 L1281.82 1574.09 L1298.37 1520.52 Z" fill="#000000" fill-rule="evenodd" fill-opacity="1" /><path clip-path="url(#clip470)" d="M1340.8 1523.77 Q1338.26 1523.77 1336.5 1525.55 Q1334.75 1527.3 1334.75 1529.85 Q1334.75 1532.36 1336.5 1534.11 Q1338.26 1535.83 1340.8 1535.83 Q1343.35 1535.83 1345.1 1534.11 Q1346.85 1532.36 1346.85 1529.85 Q1346.85 1527.34 1345.07 1525.55 Q1343.32 1523.77 1340.8 1523.77 M1340.8 1519.66 Q1342.84 1519.66 1344.72 1520.46 Q1346.59 1521.22 1347.96 1522.69 Q1349.43 1524.12 1350.16 1525.93 Q1350.89 1527.75 1350.89 1529.85 Q1350.89 1534.05 1347.93 1536.98 Q1345 1539.88 1340.74 1539.88 Q1336.44 1539.88 1333.58 1537.01 Q1330.71 1534.15 1330.71 1529.85 Q1330.71 1525.58 1333.64 1522.62 Q1336.57 1519.66 1340.8 1519.66 Z" fill="#000000" fill-rule="evenodd" fill-opacity="1" /><polyline clip-path="url(#clip472)" style="stroke:#000000; stroke-linecap:butt; stroke-linejoin:round; stroke-width:2; stroke-opacity:0.1; fill:none" points="
  219.866,1386.4 2352.76,1386.4 
  "/>
<polyline clip-path="url(#clip472)" style="stroke:#000000; stroke-linecap:butt; stroke-linejoin:round; stroke-width:2; stroke-opacity:0.1; fill:none" points="
  219.866,1197.11 2352.76,1197.11 
  "/>
<polyline clip-path="url(#clip472)" style="stroke:#000000; stroke-linecap:butt; stroke-linejoin:round; stroke-width:2; stroke-opacity:0.1; fill:none" points="
  219.866,1007.83 2352.76,1007.83 
  "/>
<polyline clip-path="url(#clip472)" style="stroke:#000000; stroke-linecap:butt; stroke-linejoin:round; stroke-width:2; stroke-opacity:0.1; fill:none" points="
  219.866,818.546 2352.76,818.546 
  "/>
<polyline clip-path="url(#clip472)" style="stroke:#000000; stroke-linecap:butt; stroke-linejoin:round; stroke-width:2; stroke-opacity:0.1; fill:none" points="
  219.866,629.262 2352.76,629.262 
  "/>
<polyline clip-path="url(#clip472)" style="stroke:#000000; stroke-linecap:butt; stroke-linejoin:round; stroke-width:2; stroke-opacity:0.1; fill:none" points="
  219.866,439.979 2352.76,439.979 
  "/>
<polyline clip-path="url(#clip472)" style="stroke:#000000; stroke-linecap:butt; stroke-linejoin:round; stroke-width:2; stroke-opacity:0.1; fill:none" points="
  219.866,250.696 2352.76,250.696 
  "/>
<polyline clip-path="url(#clip470)" style="stroke:#000000; stroke-linecap:butt; stroke-linejoin:round; stroke-width:4; stroke-opacity:1; fill:none" points="
  219.866,1423.18 219.866,123.472 
  "/>
<polyline clip-path="url(#clip470)" style="stroke:#000000; stroke-linecap:butt; stroke-linejoin:round; stroke-width:4; stroke-opacity:1; fill:none" points="
  219.866,1386.4 238.764,1386.4 
  "/>
<polyline clip-path="url(#clip470)" style="stroke:#000000; stroke-linecap:butt; stroke-linejoin:round; stroke-width:4; stroke-opacity:1; fill:none" points="
  219.866,1197.11 238.764,1197.11 
  "/>
<polyline clip-path="url(#clip470)" style="stroke:#000000; stroke-linecap:butt; stroke-linejoin:round; stroke-width:4; stroke-opacity:1; fill:none" points="
  219.866,1007.83 238.764,1007.83 
  "/>
<polyline clip-path="url(#clip470)" style="stroke:#000000; stroke-linecap:butt; stroke-linejoin:round; stroke-width:4; stroke-opacity:1; fill:none" points="
  219.866,818.546 238.764,818.546 
  "/>
<polyline clip-path="url(#clip470)" style="stroke:#000000; stroke-linecap:butt; stroke-linejoin:round; stroke-width:4; stroke-opacity:1; fill:none" points="
  219.866,629.262 238.764,629.262 
  "/>
<polyline clip-path="url(#clip470)" style="stroke:#000000; stroke-linecap:butt; stroke-linejoin:round; stroke-width:4; stroke-opacity:1; fill:none" points="
  219.866,439.979 238.764,439.979 
  "/>
<polyline clip-path="url(#clip470)" style="stroke:#000000; stroke-linecap:butt; stroke-linejoin:round; stroke-width:4; stroke-opacity:1; fill:none" points="
  219.866,250.696 238.764,250.696 
  "/>
<path clip-path="url(#clip470)" d="M126.691 1372.19 Q123.08 1372.19 121.251 1375.76 Q119.445 1379.3 119.445 1386.43 Q119.445 1393.54 121.251 1397.1 Q123.08 1400.64 126.691 1400.64 Q130.325 1400.64 132.13 1397.1 Q133.959 1393.54 133.959 1386.43 Q133.959 1379.3 132.13 1375.76 Q130.325 1372.19 126.691 1372.19 M126.691 1368.49 Q132.501 1368.49 135.556 1373.1 Q138.635 1377.68 138.635 1386.43 Q138.635 1395.16 135.556 1399.76 Q132.501 1404.35 126.691 1404.35 Q120.88 1404.35 117.802 1399.76 Q114.746 1395.16 114.746 1386.43 Q114.746 1377.68 117.802 1373.1 Q120.88 1368.49 126.691 1368.49 Z" fill="#000000" fill-rule="evenodd" fill-opacity="1" /><path clip-path="url(#clip470)" d="M146.853 1397.8 L151.737 1397.8 L151.737 1403.68 L146.853 1403.68 L146.853 1397.8 Z" fill="#000000" fill-rule="evenodd" fill-opacity="1" /><path clip-path="url(#clip470)" d="M171.922 1372.19 Q168.311 1372.19 166.482 1375.76 Q164.677 1379.3 164.677 1386.43 Q164.677 1393.54 166.482 1397.1 Q168.311 1400.64 171.922 1400.64 Q175.556 1400.64 177.362 1397.1 Q179.19 1393.54 179.19 1386.43 Q179.19 1379.3 177.362 1375.76 Q175.556 1372.19 171.922 1372.19 M171.922 1368.49 Q177.732 1368.49 180.788 1373.1 Q183.866 1377.68 183.866 1386.43 Q183.866 1395.16 180.788 1399.76 Q177.732 1404.35 171.922 1404.35 Q166.112 1404.35 163.033 1399.76 Q159.978 1395.16 159.978 1386.43 Q159.978 1377.68 163.033 1373.1 Q166.112 1368.49 171.922 1368.49 Z" fill="#000000" fill-rule="evenodd" fill-opacity="1" /><path clip-path="url(#clip470)" d="M127.917 1182.91 Q124.306 1182.91 122.478 1186.48 Q120.672 1190.02 120.672 1197.15 Q120.672 1204.25 122.478 1207.82 Q124.306 1211.36 127.917 1211.36 Q131.552 1211.36 133.357 1207.82 Q135.186 1204.25 135.186 1197.15 Q135.186 1190.02 133.357 1186.48 Q131.552 1182.91 127.917 1182.91 M127.917 1179.21 Q133.728 1179.21 136.783 1183.81 Q139.862 1188.4 139.862 1197.15 Q139.862 1205.87 136.783 1210.48 Q133.728 1215.06 127.917 1215.06 Q122.107 1215.06 119.029 1210.48 Q115.973 1205.87 115.973 1197.15 Q115.973 1188.4 119.029 1183.81 Q122.107 1179.21 127.917 1179.21 Z" fill="#000000" fill-rule="evenodd" fill-opacity="1" /><path clip-path="url(#clip470)" d="M148.079 1208.51 L152.964 1208.51 L152.964 1214.39 L148.079 1214.39 L148.079 1208.51 Z" fill="#000000" fill-rule="evenodd" fill-opacity="1" /><path clip-path="url(#clip470)" d="M163.959 1210.46 L171.598 1210.46 L171.598 1184.09 L163.288 1185.76 L163.288 1181.5 L171.552 1179.83 L176.227 1179.83 L176.227 1210.46 L183.866 1210.46 L183.866 1214.39 L163.959 1214.39 L163.959 1210.46 Z" fill="#000000" fill-rule="evenodd" fill-opacity="1" /><path clip-path="url(#clip470)" d="M128.288 993.628 Q124.677 993.628 122.848 997.192 Q121.043 1000.73 121.043 1007.86 Q121.043 1014.97 122.848 1018.53 Q124.677 1022.08 128.288 1022.08 Q131.922 1022.08 133.728 1018.53 Q135.556 1014.97 135.556 1007.86 Q135.556 1000.73 133.728 997.192 Q131.922 993.628 128.288 993.628 M128.288 989.924 Q134.098 989.924 137.154 994.53 Q140.232 999.114 140.232 1007.86 Q140.232 1016.59 137.154 1021.2 Q134.098 1025.78 128.288 1025.78 Q122.478 1025.78 119.399 1021.2 Q116.343 1016.59 116.343 1007.86 Q116.343 999.114 119.399 994.53 Q122.478 989.924 128.288 989.924 Z" fill="#000000" fill-rule="evenodd" fill-opacity="1" /><path clip-path="url(#clip470)" d="M148.45 1019.23 L153.334 1019.23 L153.334 1025.11 L148.45 1025.11 L148.45 1019.23 Z" fill="#000000" fill-rule="evenodd" fill-opacity="1" /><path clip-path="url(#clip470)" d="M167.547 1021.17 L183.866 1021.17 L183.866 1025.11 L161.922 1025.11 L161.922 1021.17 Q164.584 1018.42 169.167 1013.79 Q173.774 1009.14 174.954 1007.79 Q177.2 1005.27 178.079 1003.54 Q178.982 1001.78 178.982 1000.09 Q178.982 997.331 177.038 995.595 Q175.116 993.859 172.014 993.859 Q169.815 993.859 167.362 994.623 Q164.931 995.387 162.153 996.938 L162.153 992.216 Q164.977 991.081 167.431 990.503 Q169.885 989.924 171.922 989.924 Q177.292 989.924 180.487 992.609 Q183.681 995.294 183.681 999.785 Q183.681 1001.91 182.871 1003.84 Q182.084 1005.73 179.977 1008.33 Q179.399 1009 176.297 1012.22 Q173.195 1015.41 167.547 1021.17 Z" fill="#000000" fill-rule="evenodd" fill-opacity="1" /><path clip-path="url(#clip470)" d="M127.339 804.344 Q123.728 804.344 121.899 807.909 Q120.093 811.451 120.093 818.58 Q120.093 825.687 121.899 829.252 Q123.728 832.793 127.339 832.793 Q130.973 832.793 132.779 829.252 Q134.607 825.687 134.607 818.58 Q134.607 811.451 132.779 807.909 Q130.973 804.344 127.339 804.344 M127.339 800.641 Q133.149 800.641 136.204 805.247 Q139.283 809.83 139.283 818.58 Q139.283 827.307 136.204 831.914 Q133.149 836.497 127.339 836.497 Q121.529 836.497 118.45 831.914 Q115.394 827.307 115.394 818.58 Q115.394 809.83 118.45 805.247 Q121.529 800.641 127.339 800.641 Z" fill="#000000" fill-rule="evenodd" fill-opacity="1" /><path clip-path="url(#clip470)" d="M147.501 829.946 L152.385 829.946 L152.385 835.826 L147.501 835.826 L147.501 829.946 Z" fill="#000000" fill-rule="evenodd" fill-opacity="1" /><path clip-path="url(#clip470)" d="M176.737 817.191 Q180.093 817.909 181.968 820.178 Q183.866 822.446 183.866 825.779 Q183.866 830.895 180.348 833.696 Q176.829 836.497 170.348 836.497 Q168.172 836.497 165.857 836.057 Q163.565 835.64 161.112 834.784 L161.112 830.27 Q163.056 831.404 165.371 831.983 Q167.686 832.562 170.209 832.562 Q174.607 832.562 176.899 830.826 Q179.214 829.09 179.214 825.779 Q179.214 822.724 177.061 821.011 Q174.931 819.275 171.112 819.275 L167.084 819.275 L167.084 815.432 L171.297 815.432 Q174.746 815.432 176.575 814.067 Q178.403 812.678 178.403 810.085 Q178.403 807.423 176.505 806.011 Q174.63 804.576 171.112 804.576 Q169.19 804.576 166.991 804.992 Q164.792 805.409 162.153 806.289 L162.153 802.122 Q164.815 801.381 167.13 801.011 Q169.468 800.641 171.528 800.641 Q176.852 800.641 179.954 803.071 Q183.056 805.479 183.056 809.599 Q183.056 812.469 181.413 814.46 Q179.769 816.428 176.737 817.191 Z" fill="#000000" fill-rule="evenodd" fill-opacity="1" /><path clip-path="url(#clip470)" d="M126.205 615.061 Q122.593 615.061 120.765 618.626 Q118.959 622.167 118.959 629.297 Q118.959 636.403 120.765 639.968 Q122.593 643.51 126.205 643.51 Q129.839 643.51 131.644 639.968 Q133.473 636.403 133.473 629.297 Q133.473 622.167 131.644 618.626 Q129.839 615.061 126.205 615.061 M126.205 611.357 Q132.015 611.357 135.07 615.964 Q138.149 620.547 138.149 629.297 Q138.149 638.024 135.07 642.63 Q132.015 647.214 126.205 647.214 Q120.394 647.214 117.316 642.63 Q114.26 638.024 114.26 629.297 Q114.26 620.547 117.316 615.964 Q120.394 611.357 126.205 611.357 Z" fill="#000000" fill-rule="evenodd" fill-opacity="1" /><path clip-path="url(#clip470)" d="M146.366 640.663 L151.251 640.663 L151.251 646.542 L146.366 646.542 L146.366 640.663 Z" fill="#000000" fill-rule="evenodd" fill-opacity="1" /><path clip-path="url(#clip470)" d="M174.283 616.056 L162.477 634.505 L174.283 634.505 L174.283 616.056 M173.056 611.982 L178.936 611.982 L178.936 634.505 L183.866 634.505 L183.866 638.394 L178.936 638.394 L178.936 646.542 L174.283 646.542 L174.283 638.394 L158.681 638.394 L158.681 633.88 L173.056 611.982 Z" fill="#000000" fill-rule="evenodd" fill-opacity="1" /><path clip-path="url(#clip470)" d="M127.686 425.778 Q124.075 425.778 122.246 429.342 Q120.441 432.884 120.441 440.014 Q120.441 447.12 122.246 450.685 Q124.075 454.227 127.686 454.227 Q131.32 454.227 133.126 450.685 Q134.954 447.12 134.954 440.014 Q134.954 432.884 133.126 429.342 Q131.32 425.778 127.686 425.778 M127.686 422.074 Q133.496 422.074 136.552 426.68 Q139.63 431.264 139.63 440.014 Q139.63 448.741 136.552 453.347 Q133.496 457.93 127.686 457.93 Q121.876 457.93 118.797 453.347 Q115.742 448.741 115.742 440.014 Q115.742 431.264 118.797 426.68 Q121.876 422.074 127.686 422.074 Z" fill="#000000" fill-rule="evenodd" fill-opacity="1" /><path clip-path="url(#clip470)" d="M147.848 451.379 L152.732 451.379 L152.732 457.259 L147.848 457.259 L147.848 451.379 Z" fill="#000000" fill-rule="evenodd" fill-opacity="1" /><path clip-path="url(#clip470)" d="M162.964 422.699 L181.32 422.699 L181.32 426.634 L167.246 426.634 L167.246 435.106 Q168.264 434.759 169.283 434.597 Q170.302 434.412 171.32 434.412 Q177.107 434.412 180.487 437.583 Q183.866 440.754 183.866 446.171 Q183.866 451.75 180.394 454.852 Q176.922 457.93 170.602 457.93 Q168.427 457.93 166.158 457.56 Q163.913 457.19 161.505 456.449 L161.505 451.75 Q163.589 452.884 165.811 453.44 Q168.033 453.995 170.51 453.995 Q174.514 453.995 176.852 451.889 Q179.19 449.782 179.19 446.171 Q179.19 442.56 176.852 440.454 Q174.514 438.347 170.51 438.347 Q168.635 438.347 166.76 438.764 Q164.908 439.18 162.964 440.06 L162.964 422.699 Z" fill="#000000" fill-rule="evenodd" fill-opacity="1" /><path clip-path="url(#clip470)" d="M126.529 236.494 Q122.918 236.494 121.089 240.059 Q119.283 243.601 119.283 250.73 Q119.283 257.837 121.089 261.402 Q122.918 264.943 126.529 264.943 Q130.163 264.943 131.968 261.402 Q133.797 257.837 133.797 250.73 Q133.797 243.601 131.968 240.059 Q130.163 236.494 126.529 236.494 M126.529 232.791 Q132.339 232.791 135.394 237.397 Q138.473 241.98 138.473 250.73 Q138.473 259.457 135.394 264.064 Q132.339 268.647 126.529 268.647 Q120.718 268.647 117.64 264.064 Q114.584 259.457 114.584 250.73 Q114.584 241.98 117.64 237.397 Q120.718 232.791 126.529 232.791 Z" fill="#000000" fill-rule="evenodd" fill-opacity="1" /><path clip-path="url(#clip470)" d="M146.691 262.096 L151.575 262.096 L151.575 267.976 L146.691 267.976 L146.691 262.096 Z" fill="#000000" fill-rule="evenodd" fill-opacity="1" /><path clip-path="url(#clip470)" d="M172.339 248.832 Q169.19 248.832 167.339 250.985 Q165.51 253.138 165.51 256.888 Q165.51 260.615 167.339 262.79 Q169.19 264.943 172.339 264.943 Q175.487 264.943 177.315 262.79 Q179.167 260.615 179.167 256.888 Q179.167 253.138 177.315 250.985 Q175.487 248.832 172.339 248.832 M181.621 234.18 L181.621 238.439 Q179.862 237.605 178.056 237.166 Q176.274 236.726 174.514 236.726 Q169.885 236.726 167.431 239.851 Q165.001 242.976 164.653 249.295 Q166.019 247.281 168.079 246.216 Q170.139 245.129 172.616 245.129 Q177.825 245.129 180.834 248.3 Q183.866 251.448 183.866 256.888 Q183.866 262.212 180.718 265.429 Q177.57 268.647 172.339 268.647 Q166.343 268.647 163.172 264.064 Q160.001 259.457 160.001 250.73 Q160.001 242.536 163.89 237.675 Q167.778 232.791 174.329 232.791 Q176.089 232.791 177.871 233.138 Q179.676 233.485 181.621 234.18 Z" fill="#000000" fill-rule="evenodd" fill-opacity="1" /><path clip-path="url(#clip470)" d="M28.3562 988.36 L28.3562 982.503 L56.1743 975.183 L28.3562 967.894 L28.3562 960.987 L56.1743 953.666 L28.3562 946.378 L28.3562 940.521 L64.0042 949.847 L64.0042 956.754 L34.7856 964.424 L64.0042 972.127 L64.0042 979.034 L28.3562 988.36 Z" fill="#000000" fill-rule="evenodd" fill-opacity="1" /><path clip-path="url(#clip470)" d="M44.7161 901.149 L47.5806 901.149 L47.5806 928.076 Q53.6281 927.694 56.8109 924.448 Q59.9619 921.17 59.9619 915.345 Q59.9619 911.971 59.1344 908.82 Q58.3069 905.637 56.6518 902.518 L62.1899 902.518 Q63.5267 905.669 64.227 908.979 Q64.9272 912.289 64.9272 915.695 Q64.9272 924.225 59.9619 929.222 Q54.9967 934.187 46.5303 934.187 Q37.7774 934.187 32.6531 929.477 Q27.4968 924.734 27.4968 916.714 Q27.4968 909.52 32.1438 905.351 Q36.7589 901.149 44.7161 901.149 M42.9973 907.006 Q38.1912 907.069 35.3266 909.711 Q32.4621 912.321 32.4621 916.65 Q32.4621 921.551 35.2312 924.512 Q38.0002 927.44 43.0292 927.885 L42.9973 907.006 Z" fill="#000000" fill-rule="evenodd" fill-opacity="1" /><path clip-path="url(#clip470)" d="M28.3562 891.537 L28.3562 885.681 L64.0042 885.681 L64.0042 891.537 L28.3562 891.537 M14.479 891.537 L14.479 885.681 L21.895 885.681 L21.895 891.537 L14.479 891.537 Z" fill="#000000" fill-rule="evenodd" fill-opacity="1" /><path clip-path="url(#clip470)" d="M45.7664 849.969 Q39.4007 849.969 35.8996 852.611 Q32.3984 855.221 32.3984 859.963 Q32.3984 864.674 35.8996 867.316 Q39.4007 869.926 45.7664 869.926 Q52.1003 869.926 55.6014 867.316 Q59.1026 864.674 59.1026 859.963 Q59.1026 855.221 55.6014 852.611 Q52.1003 849.969 45.7664 849.969 M59.58 844.113 Q68.683 844.113 73.1071 848.155 Q77.5631 852.197 77.5631 860.536 Q77.5631 863.624 77.0857 866.361 Q76.6401 869.098 75.6852 871.676 L69.9879 871.676 Q71.3884 869.098 72.0568 866.584 Q72.7252 864.069 72.7252 861.459 Q72.7252 855.698 69.7015 852.834 Q66.7096 849.969 60.6303 849.969 L57.7339 849.969 Q60.885 851.783 62.4446 854.616 Q64.0042 857.449 64.0042 861.396 Q64.0042 867.952 59.0071 871.963 Q54.01 875.973 45.7664 875.973 Q37.491 875.973 32.4939 871.963 Q27.4968 867.952 27.4968 861.396 Q27.4968 857.449 29.0564 854.616 Q30.616 851.783 33.7671 849.969 L28.3562 849.969 L28.3562 844.113 L59.58 844.113 Z" fill="#000000" fill-rule="evenodd" fill-opacity="1" /><path clip-path="url(#clip470)" d="M42.4881 802.417 L64.0042 802.417 L64.0042 808.274 L42.679 808.274 Q37.6183 808.274 35.1038 810.247 Q32.5894 812.22 32.5894 816.167 Q32.5894 820.91 35.6131 823.647 Q38.6368 826.384 43.8567 826.384 L64.0042 826.384 L64.0042 832.272 L14.479 832.272 L14.479 826.384 L33.8944 826.384 Q30.6797 824.283 29.0883 821.451 Q27.4968 818.586 27.4968 814.862 Q27.4968 808.719 31.3163 805.568 Q35.1038 802.417 42.4881 802.417 Z" fill="#000000" fill-rule="evenodd" fill-opacity="1" /><path clip-path="url(#clip470)" d="M18.2347 784.943 L28.3562 784.943 L28.3562 772.88 L32.9077 772.88 L32.9077 784.943 L52.2594 784.943 Q56.6199 784.943 57.8613 783.766 Q59.1026 782.556 59.1026 778.896 L59.1026 772.88 L64.0042 772.88 L64.0042 778.896 Q64.0042 785.675 61.4897 788.254 Q58.9434 790.832 52.2594 790.832 L32.9077 790.832 L32.9077 795.129 L28.3562 795.129 L28.3562 790.832 L18.2347 790.832 L18.2347 784.943 Z" fill="#000000" fill-rule="evenodd" fill-opacity="1" /><path clip-path="url(#clip470)" d="M29.4065 742.452 L34.9447 742.452 Q33.6716 744.935 33.035 747.609 Q32.3984 750.282 32.3984 753.147 Q32.3984 757.507 33.7352 759.703 Q35.072 761.868 37.7456 761.868 Q39.7826 761.868 40.9603 760.308 Q42.1061 758.749 43.1565 754.038 L43.6021 752.033 Q44.9389 745.794 47.3897 743.184 Q49.8086 740.543 54.1691 740.543 Q59.1344 740.543 62.0308 744.489 Q64.9272 748.404 64.9272 755.279 Q64.9272 758.144 64.3543 761.263 Q63.8132 764.35 62.6992 767.788 L56.6518 767.788 Q58.3387 764.541 59.198 761.39 Q60.0256 758.239 60.0256 755.152 Q60.0256 751.014 58.6251 748.786 Q57.1929 746.558 54.6147 746.558 Q52.2276 746.558 50.9545 748.181 Q49.6813 749.773 48.5037 755.216 L48.0262 757.253 Q46.8804 762.695 44.5251 765.114 Q42.138 767.533 38.0002 767.533 Q32.9713 767.533 30.2341 763.968 Q27.4968 760.404 27.4968 753.847 Q27.4968 750.6 27.9743 747.736 Q28.4517 744.871 29.4065 742.452 Z" fill="#000000" fill-rule="evenodd" fill-opacity="1" /><path clip-path="url(#clip470)" d="M16.4842 700.089 L16.4842 694.678 L70.0516 711.229 L70.0516 716.639 L16.4842 700.089 Z" fill="#000000" fill-rule="evenodd" fill-opacity="1" /><path clip-path="url(#clip470)" d="M46.0847 651.614 Q46.0847 658.711 47.7079 661.449 Q49.3312 664.186 53.2461 664.186 Q56.3653 664.186 58.2114 662.149 Q60.0256 660.08 60.0256 656.547 Q60.0256 651.677 56.5881 648.749 Q53.1188 645.789 47.3897 645.789 L46.0847 645.789 L46.0847 651.614 M43.6657 639.933 L64.0042 639.933 L64.0042 645.789 L58.5933 645.789 Q61.8398 647.794 63.3994 650.786 Q64.9272 653.778 64.9272 658.107 Q64.9272 663.581 61.8716 666.828 Q58.7843 670.042 53.6281 670.042 Q47.6125 670.042 44.5569 666.032 Q41.5014 661.99 41.5014 654.001 L41.5014 645.789 L40.9285 645.789 Q36.8862 645.789 34.6901 648.463 Q32.4621 651.104 32.4621 655.911 Q32.4621 658.966 33.1941 661.862 Q33.9262 664.759 35.3903 667.432 L29.9795 667.432 Q28.7381 664.218 28.1334 661.194 Q27.4968 658.17 27.4968 655.306 Q27.4968 647.571 31.5072 643.752 Q35.5176 639.933 43.6657 639.933 Z" fill="#000000" fill-rule="evenodd" fill-opacity="1" /><path clip-path="url(#clip470)" d="M55.9197 627.042 L55.9197 620.326 L64.0042 620.326 L64.0042 627.042 L55.9197 627.042 Z" fill="#000000" fill-rule="evenodd" fill-opacity="1" /><path clip-path="url(#clip470)" d="M49.9359 607.754 L28.3562 607.754 L28.3562 601.898 L49.7131 601.898 Q54.7739 601.898 57.3202 599.924 Q59.8346 597.951 59.8346 594.004 Q59.8346 589.262 56.8109 586.524 Q53.7872 583.755 48.5673 583.755 L28.3562 583.755 L28.3562 577.899 L64.0042 577.899 L64.0042 583.755 L58.5296 583.755 Q61.7762 585.888 63.3676 588.72 Q64.9272 591.521 64.9272 595.245 Q64.9272 601.388 61.1078 604.571 Q57.2883 607.754 49.9359 607.754 M27.4968 593.017 L27.4968 593.017 Z" fill="#000000" fill-rule="evenodd" fill-opacity="1" /><path clip-path="url(#clip470)" d="M55.9197 565.008 L55.9197 558.292 L64.0042 558.292 L64.0042 565.008 L55.9197 565.008 Z" fill="#000000" fill-rule="evenodd" fill-opacity="1" /><path clip-path="url(#clip470)" d="M450.326 69.7809 L450.326 89.8329 L442.832 89.8329 L442.832 27.4894 Q442.832 9.01731 460.089 9.01731 Q477.67 9.01731 477.67 24.6133 Q477.67 35.7128 470.702 39.7637 Q482.045 43.4095 482.045 54.2254 Q482.045 73.4267 462.519 73.4267 Q453.931 73.4267 450.326 69.7809 M450.326 60.0587 Q454.822 67.0668 462.803 67.0668 Q474.469 67.0668 474.469 54.3469 Q474.469 42.9234 455.673 43.8146 L455.673 36.928 Q470.378 36.928 470.378 23.9651 Q470.378 15.0937 460.899 15.0937 Q450.326 15.0937 450.326 27.7325 L450.326 60.0587 Z" fill="#000000" fill-rule="evenodd" fill-opacity="1" /><path clip-path="url(#clip470)" d="M496.79 34.9026 L548.722 34.9026 L548.722 41.7081 L496.79 41.7081 L496.79 34.9026 M496.79 51.4303 L548.722 51.4303 L548.722 58.3168 L496.79 58.3168 L496.79 51.4303 Z" fill="#000000" fill-rule="evenodd" fill-opacity="1" /><path clip-path="url(#clip470)" d="M567.802 65.6895 L581.17 65.6895 L581.17 19.5497 L566.627 22.4663 L566.627 15.0127 L581.089 12.096 L589.272 12.096 L589.272 65.6895 L602.64 65.6895 L602.64 72.576 L567.802 72.576 L567.802 65.6895 Z" fill="#000000" fill-rule="evenodd" fill-opacity="1" /><path clip-path="url(#clip470)" d="M636.668 17.4837 Q630.348 17.4837 627.148 23.7221 Q623.988 29.92 623.988 42.3968 Q623.988 54.833 627.148 61.0714 Q630.348 67.2693 636.668 67.2693 Q643.027 67.2693 646.187 61.0714 Q649.387 54.833 649.387 42.3968 Q649.387 29.92 646.187 23.7221 Q643.027 17.4837 636.668 17.4837 M636.668 11.0023 Q646.835 11.0023 652.183 19.0636 Q657.57 27.0843 657.57 42.3968 Q657.57 57.6687 652.183 65.73 Q646.835 73.7508 636.668 73.7508 Q626.5 73.7508 621.112 65.73 Q615.765 57.6687 615.765 42.3968 Q615.765 27.0843 621.112 19.0636 Q626.5 11.0023 636.668 11.0023 Z" fill="#000000" fill-rule="evenodd" fill-opacity="1" /><path clip-path="url(#clip470)" d="M672.194 71.3202 L672.194 63.8666 Q675.273 65.3249 678.432 66.0946 Q681.592 66.8642 684.63 66.8642 Q692.732 66.8642 696.986 61.436 Q701.279 55.9673 701.887 44.8678 Q699.538 48.3516 695.932 50.215 Q692.327 52.0784 687.952 52.0784 Q678.878 52.0784 673.571 46.6097 Q668.305 41.1005 668.305 31.5808 Q668.305 22.2638 673.814 16.633 Q679.324 11.0023 688.479 11.0023 Q698.97 11.0023 704.48 19.0636 Q710.029 27.0843 710.029 42.3968 Q710.029 56.6965 703.224 65.2439 Q696.459 73.7508 684.995 73.7508 Q681.916 73.7508 678.756 73.1431 Q675.597 72.5355 672.194 71.3202 M688.479 45.678 Q693.988 45.678 697.188 41.9107 Q700.429 38.1433 700.429 31.5808 Q700.429 25.0589 697.188 21.2916 Q693.988 17.4837 688.479 17.4837 Q682.969 17.4837 679.729 21.2916 Q676.528 25.0589 676.528 31.5808 Q676.528 38.1433 679.729 41.9107 Q682.969 45.678 688.479 45.678 Z" fill="#000000" fill-rule="evenodd" fill-opacity="1" /><path clip-path="url(#clip470)" d="M736.603 16.2279 Q733.363 16.2279 731.135 18.4964 Q728.907 20.7244 728.907 23.9651 Q728.907 27.1654 731.135 29.3934 Q733.363 31.5808 736.603 31.5808 Q739.844 31.5808 742.072 29.3934 Q744.3 27.1654 744.3 23.9651 Q744.3 20.7649 742.032 18.4964 Q739.804 16.2279 736.603 16.2279 M736.603 11.0023 Q739.196 11.0023 741.586 12.015 Q743.976 12.9872 745.718 14.8506 Q747.581 16.6735 748.513 18.9825 Q749.445 21.2916 749.445 23.9651 Q749.445 29.3123 745.677 33.0392 Q741.951 36.7255 736.522 36.7255 Q731.054 36.7255 727.408 33.0797 Q723.762 29.4339 723.762 23.9651 Q723.762 18.5369 727.489 14.7696 Q731.216 11.0023 736.603 11.0023 Z" fill="#000000" fill-rule="evenodd" fill-opacity="1" /><path clip-path="url(#clip470)" d="M814.583 50.8226 Q814.583 56.6154 817.459 59.9372 Q820.336 63.2184 825.359 63.2184 Q830.341 63.2184 833.177 59.8967 Q836.053 56.5749 836.053 50.8226 Q836.053 45.1514 833.136 41.8296 Q830.22 38.4674 825.278 38.4674 Q820.376 38.4674 817.459 41.7891 Q814.583 45.1109 814.583 50.8226 M836.661 62.9348 Q834.23 66.054 831.07 67.5529 Q827.951 69.0112 823.779 69.0112 Q816.811 69.0112 812.436 63.9881 Q808.102 58.9245 808.102 50.8226 Q808.102 42.7208 812.477 37.6572 Q816.852 32.5936 823.779 32.5936 Q827.951 32.5936 831.111 34.1329 Q834.271 35.6318 836.661 38.7104 L836.661 33.4038 L842.454 33.4038 L842.454 63.2184 Q848.368 62.3272 851.69 57.8307 Q855.052 53.2937 855.052 46.1236 Q855.052 41.7891 853.756 37.9813 Q852.5 34.1734 849.907 30.9327 Q845.694 25.626 839.618 22.8309 Q833.582 19.9953 826.452 19.9953 Q821.47 19.9953 816.892 21.3321 Q812.315 22.6284 808.426 25.2209 Q802.066 29.3529 798.461 36.0774 Q794.896 42.7613 794.896 50.5796 Q794.896 57.0205 797.205 62.6513 Q799.554 68.282 803.97 72.576 Q808.223 76.7889 813.814 78.9764 Q819.404 81.2044 825.764 81.2044 Q830.989 81.2044 836.013 79.422 Q841.076 77.6801 845.289 74.3989 L848.935 78.8954 Q843.871 82.8248 837.876 84.8907 Q831.921 86.9972 825.764 86.9972 Q818.27 86.9972 811.626 84.3236 Q804.983 81.6905 799.797 76.6269 Q794.612 71.5633 791.898 64.9198 Q789.184 58.2358 789.184 50.5796 Q789.184 43.2069 791.939 36.523 Q794.693 29.839 799.797 24.7753 Q805.023 19.6307 811.869 16.9166 Q818.715 14.162 826.371 14.162 Q834.959 14.162 842.291 17.6862 Q849.664 21.2105 854.647 27.692 Q857.685 31.6619 859.265 36.3204 Q860.885 40.9789 860.885 45.9616 Q860.885 56.6154 854.444 62.7728 Q848.003 68.9302 836.661 69.1732 L836.661 62.9348 Z" fill="#000000" fill-rule="evenodd" fill-opacity="1" /><path clip-path="url(#clip470)" d="M892.401 9.62495 Q886.973 18.942 884.34 28.0566 Q881.707 37.1711 881.707 46.5287 Q881.707 55.8863 884.34 65.0818 Q887.013 74.2369 892.401 83.5134 L885.92 83.5134 Q879.843 73.9938 876.805 64.7983 Q873.808 55.6027 873.808 46.5287 Q873.808 37.4952 876.805 28.3401 Q879.803 19.1851 885.92 9.62495 L892.401 9.62495 Z" fill="#000000" fill-rule="evenodd" fill-opacity="1" /><path clip-path="url(#clip470)" d="M932.708 39.9662 Q938.581 41.222 941.863 45.1919 Q945.184 49.1618 945.184 54.9951 Q945.184 63.9476 939.027 68.8492 Q932.87 73.7508 921.527 73.7508 Q917.719 73.7508 913.668 72.9811 Q909.658 72.2519 905.364 70.7531 L905.364 62.8538 Q908.767 64.8388 912.818 65.8515 Q916.869 66.8642 921.284 66.8642 Q928.981 66.8642 932.991 63.826 Q937.042 60.7879 937.042 54.9951 Q937.042 49.6479 933.275 46.6502 Q929.548 43.612 922.864 43.612 L915.815 43.612 L915.815 36.8875 L923.188 36.8875 Q929.224 36.8875 932.424 34.4975 Q935.624 32.067 935.624 27.5299 Q935.624 22.8714 932.303 20.4004 Q929.021 17.8888 922.864 17.8888 Q919.502 17.8888 915.653 18.618 Q911.805 19.3471 907.187 20.8865 L907.187 13.5948 Q911.845 12.2985 915.896 11.6504 Q919.988 11.0023 923.593 11.0023 Q932.91 11.0023 938.338 15.2557 Q943.767 19.4686 943.767 26.6793 Q943.767 31.7024 940.89 35.1862 Q938.014 38.6294 932.708 39.9662 Z" fill="#000000" fill-rule="evenodd" fill-opacity="1" /><path clip-path="url(#clip470)" d="M960.699 62.2867 L969.247 62.2867 L969.247 72.576 L960.699 72.576 L960.699 62.2867 Z" fill="#000000" fill-rule="evenodd" fill-opacity="1" /><path clip-path="url(#clip470)" d="M988.489 65.6895 L1001.86 65.6895 L1001.86 19.5497 L987.314 22.4663 L987.314 15.0127 L1001.78 12.096 L1009.96 12.096 L1009.96 65.6895 L1023.33 65.6895 L1023.33 72.576 L988.489 72.576 L988.489 65.6895 Z" fill="#000000" fill-rule="evenodd" fill-opacity="1" /><path clip-path="url(#clip470)" d="M1058.37 39.075 Q1052.86 39.075 1049.62 42.8424 Q1046.42 46.6097 1046.42 53.1722 Q1046.42 59.6941 1049.62 63.502 Q1052.86 67.2693 1058.37 67.2693 Q1063.88 67.2693 1067.08 63.502 Q1070.32 59.6941 1070.32 53.1722 Q1070.32 46.6097 1067.08 42.8424 Q1063.88 39.075 1058.37 39.075 M1074.61 13.4328 L1074.61 20.8865 Q1071.53 19.4281 1068.37 18.6585 Q1065.25 17.8888 1062.17 17.8888 Q1054.07 17.8888 1049.78 23.3575 Q1045.53 28.8262 1044.92 39.8852 Q1047.31 36.3609 1050.91 34.4975 Q1054.52 32.5936 1058.85 32.5936 Q1067.97 32.5936 1073.23 38.1433 Q1078.54 43.6525 1078.54 53.1722 Q1078.54 62.4892 1073.03 68.12 Q1067.52 73.7508 1058.37 73.7508 Q1047.87 73.7508 1042.33 65.73 Q1036.78 57.6687 1036.78 42.3968 Q1036.78 28.0566 1043.58 19.5497 Q1050.39 11.0023 1061.85 11.0023 Q1064.93 11.0023 1068.05 11.6099 Q1071.21 12.2175 1074.61 13.4328 Z" fill="#000000" fill-rule="evenodd" fill-opacity="1" /><path clip-path="url(#clip470)" d="M1093.49 62.2867 L1102.04 62.2867 L1102.04 69.2543 L1095.39 82.2172 L1090.17 82.2172 L1093.49 69.2543 L1093.49 62.2867 Z" fill="#000000" fill-rule="evenodd" fill-opacity="1" /><path clip-path="url(#clip470)" d="M1120.43 65.6895 L1133.79 65.6895 L1133.79 19.5497 L1119.25 22.4663 L1119.25 15.0127 L1133.71 12.096 L1141.9 12.096 L1141.9 65.6895 L1155.26 65.6895 L1155.26 72.576 L1120.43 72.576 L1120.43 65.6895 Z" fill="#000000" fill-rule="evenodd" fill-opacity="1" /><path clip-path="url(#clip470)" d="M1171.79 62.2867 L1180.34 62.2867 L1180.34 72.576 L1171.79 72.576 L1171.79 62.2867 Z" fill="#000000" fill-rule="evenodd" fill-opacity="1" /><path clip-path="url(#clip470)" d="M1205.21 65.6895 L1233.77 65.6895 L1233.77 72.576 L1195.37 72.576 L1195.37 65.6895 Q1200.03 60.8689 1208.05 52.7671 Q1216.11 44.6248 1218.17 42.2752 Q1222.1 37.8598 1223.64 34.8216 Q1225.22 31.7429 1225.22 28.7857 Q1225.22 23.9651 1221.82 20.927 Q1218.46 17.8888 1213.03 17.8888 Q1209.18 17.8888 1204.89 19.2256 Q1200.63 20.5624 1195.77 23.2765 L1195.77 15.0127 Q1200.72 13.0277 1205.01 12.015 Q1209.3 11.0023 1212.87 11.0023 Q1222.27 11.0023 1227.86 15.7013 Q1233.45 20.4004 1233.45 28.2591 Q1233.45 31.9859 1232.03 35.3482 Q1230.65 38.6699 1226.97 43.2069 Q1225.95 44.3817 1220.52 50.0125 Q1215.1 55.6027 1205.21 65.6895 Z" fill="#000000" fill-rule="evenodd" fill-opacity="1" /><path clip-path="url(#clip470)" d="M1252.36 65.6895 L1265.73 65.6895 L1265.73 19.5497 L1251.19 22.4663 L1251.19 15.0127 L1265.65 12.096 L1273.83 12.096 L1273.83 65.6895 L1287.2 65.6895 L1287.2 72.576 L1252.36 72.576 L1252.36 65.6895 Z" fill="#000000" fill-rule="evenodd" fill-opacity="1" /><path clip-path="url(#clip470)" d="M1301.5 9.62495 L1307.98 9.62495 Q1314.06 19.1851 1317.06 28.3401 Q1320.1 37.4952 1320.1 46.5287 Q1320.1 55.6027 1317.06 64.7983 Q1314.06 73.9938 1307.98 83.5134 L1301.5 83.5134 Q1306.89 74.2369 1309.52 65.0818 Q1312.2 55.8863 1312.2 46.5287 Q1312.2 37.1711 1309.52 28.0566 Q1306.89 18.942 1301.5 9.62495 Z" fill="#000000" fill-rule="evenodd" fill-opacity="1" /><path clip-path="url(#clip470)" d="M1396.74 35.9153 Q1399.53 30.8922 1403.42 28.5022 Q1407.31 26.1121 1412.58 26.1121 Q1419.67 26.1121 1423.52 31.0947 Q1427.36 36.0368 1427.36 45.1919 L1427.36 72.576 L1419.87 72.576 L1419.87 45.4349 Q1419.87 38.913 1417.56 35.7533 Q1415.25 32.5936 1410.51 32.5936 Q1404.72 32.5936 1401.36 36.4419 Q1397.99 40.2903 1397.99 46.9338 L1397.99 72.576 L1390.5 72.576 L1390.5 45.4349 Q1390.5 38.8725 1388.19 35.7533 Q1385.88 32.5936 1381.06 32.5936 Q1375.35 32.5936 1371.99 36.4824 Q1368.63 40.3308 1368.63 46.9338 L1368.63 72.576 L1361.13 72.576 L1361.13 27.2059 L1368.63 27.2059 L1368.63 34.2544 Q1371.18 30.082 1374.74 28.0971 Q1378.31 26.1121 1383.21 26.1121 Q1388.15 26.1121 1391.59 28.6237 Q1395.08 31.1352 1396.74 35.9153 Z" fill="#000000" fill-rule="evenodd" fill-opacity="1" /><path clip-path="url(#clip470)" d="M1477.55 35.9153 Q1480.35 30.8922 1484.24 28.5022 Q1488.13 26.1121 1493.39 26.1121 Q1500.48 26.1121 1504.33 31.0947 Q1508.18 36.0368 1508.18 45.1919 L1508.18 72.576 L1500.68 72.576 L1500.68 45.4349 Q1500.68 38.913 1498.38 35.7533 Q1496.07 32.5936 1491.33 32.5936 Q1485.53 32.5936 1482.17 36.4419 Q1478.81 40.2903 1478.81 46.9338 L1478.81 72.576 L1471.32 72.576 L1471.32 45.4349 Q1471.32 38.8725 1469.01 35.7533 Q1466.7 32.5936 1461.88 32.5936 Q1456.17 32.5936 1452.8 36.4824 Q1449.44 40.3308 1449.44 46.9338 L1449.44 72.576 L1441.95 72.576 L1441.95 27.2059 L1449.44 27.2059 L1449.44 34.2544 Q1451.99 30.082 1455.56 28.0971 Q1459.12 26.1121 1464.02 26.1121 Q1468.97 26.1121 1472.41 28.6237 Q1475.89 31.1352 1477.55 35.9153 Z" fill="#000000" fill-rule="evenodd" fill-opacity="1" /><path clip-path="url(#clip470)" d="M1524.95 62.2867 L1533.5 62.2867 L1533.5 69.2543 L1526.85 82.2172 L1521.63 82.2172 L1524.95 69.2543 L1524.95 62.2867 Z" fill="#000000" fill-rule="evenodd" fill-opacity="1" /><path clip-path="url(#clip470)" d="M1583.24 69.7809 L1583.24 89.8329 L1575.75 89.8329 L1575.75 27.4894 Q1575.75 9.01731 1593.01 9.01731 Q1610.59 9.01731 1610.59 24.6133 Q1610.59 35.7128 1603.62 39.7637 Q1614.96 43.4095 1614.96 54.2254 Q1614.96 73.4267 1595.44 73.4267 Q1586.85 73.4267 1583.24 69.7809 M1583.24 60.0587 Q1587.74 67.0668 1595.72 67.0668 Q1607.39 67.0668 1607.39 54.3469 Q1607.39 42.9234 1588.59 43.8146 L1588.59 36.928 Q1603.29 36.928 1603.29 23.9651 Q1603.29 15.0937 1593.82 15.0937 Q1583.24 15.0937 1583.24 27.7325 L1583.24 60.0587 Z" fill="#000000" fill-rule="evenodd" fill-opacity="1" /><path clip-path="url(#clip470)" d="M1663.21 86.3491 L1663.21 92.1419 L1620.11 92.1419 L1620.11 86.3491 L1663.21 86.3491 Z" fill="#000000" fill-rule="evenodd" fill-opacity="1" /><path clip-path="url(#clip470)" d="M1709.02 48.0275 L1709.02 51.6733 L1674.75 51.6733 Q1675.24 59.3701 1679.37 63.421 Q1683.54 67.4314 1690.96 67.4314 Q1695.25 67.4314 1699.26 66.3781 Q1703.31 65.3249 1707.28 63.2184 L1707.28 70.267 Q1703.27 71.9684 1699.06 72.8596 Q1694.84 73.7508 1690.51 73.7508 Q1679.65 73.7508 1673.29 67.4314 Q1666.97 61.1119 1666.97 50.3365 Q1666.97 39.1965 1672.97 32.6746 Q1679.01 26.1121 1689.21 26.1121 Q1698.37 26.1121 1703.68 32.0264 Q1709.02 37.9003 1709.02 48.0275 M1701.57 45.84 Q1701.49 39.7232 1698.13 36.0774 Q1694.8 32.4315 1689.3 32.4315 Q1683.06 32.4315 1679.29 35.9558 Q1675.56 39.4801 1675 45.8805 L1701.57 45.84 Z" fill="#000000" fill-rule="evenodd" fill-opacity="1" /><path clip-path="url(#clip470)" d="M1750.18 28.5427 L1750.18 35.5912 Q1747.02 33.9709 1743.62 33.1607 Q1740.21 32.3505 1736.57 32.3505 Q1731.02 32.3505 1728.22 34.0519 Q1725.47 35.7533 1725.47 39.156 Q1725.47 41.7486 1727.45 43.2475 Q1729.44 44.7058 1735.43 46.0426 L1737.99 46.6097 Q1745.93 48.3111 1749.25 51.4303 Q1752.61 54.509 1752.61 60.0587 Q1752.61 66.3781 1747.59 70.0644 Q1742.6 73.7508 1733.85 73.7508 Q1730.21 73.7508 1726.24 73.0216 Q1722.31 72.3329 1717.93 70.9151 L1717.93 63.2184 Q1722.07 65.3654 1726.08 66.4591 Q1730.09 67.5124 1734.02 67.5124 Q1739.28 67.5124 1742.12 65.73 Q1744.95 63.9071 1744.95 60.6258 Q1744.95 57.5877 1742.89 55.9673 Q1740.86 54.3469 1733.94 52.8481 L1731.34 52.2405 Q1724.42 50.7821 1721.34 47.7845 Q1718.26 44.7463 1718.26 39.4801 Q1718.26 33.0797 1722.8 29.5959 Q1727.33 26.1121 1735.68 26.1121 Q1739.81 26.1121 1743.46 26.7198 Q1747.1 27.3274 1750.18 28.5427 Z" fill="#000000" fill-rule="evenodd" fill-opacity="1" /><path clip-path="url(#clip470)" d="M1771.85 14.324 L1771.85 27.2059 L1787.21 27.2059 L1787.21 32.9987 L1771.85 32.9987 L1771.85 57.6282 Q1771.85 63.1779 1773.35 64.7578 Q1774.89 66.3376 1779.55 66.3376 L1787.21 66.3376 L1787.21 72.576 L1779.55 72.576 Q1770.92 72.576 1767.64 69.3758 Q1764.36 66.1351 1764.36 57.6282 L1764.36 32.9987 L1758.89 32.9987 L1758.89 27.2059 L1764.36 27.2059 L1764.36 14.324 L1771.85 14.324 Z" fill="#000000" fill-rule="evenodd" fill-opacity="1" /><path clip-path="url(#clip470)" d="M1797.98 34.9026 L1849.91 34.9026 L1849.91 41.7081 L1797.98 41.7081 L1797.98 34.9026 M1797.98 51.4303 L1849.91 51.4303 L1849.91 58.3168 L1797.98 58.3168 L1797.98 51.4303 Z" fill="#000000" fill-rule="evenodd" fill-opacity="1" /><path clip-path="url(#clip470)" d="M1868.99 65.6895 L1882.36 65.6895 L1882.36 19.5497 L1867.82 22.4663 L1867.82 15.0127 L1882.28 12.096 L1890.46 12.096 L1890.46 65.6895 L1903.83 65.6895 L1903.83 72.576 L1868.99 72.576 L1868.99 65.6895 Z" fill="#000000" fill-rule="evenodd" fill-opacity="1" /><path clip-path="url(#clip470)" d="M1921.78 65.6895 L1935.14 65.6895 L1935.14 19.5497 L1920.6 22.4663 L1920.6 15.0127 L1935.06 12.096 L1943.25 12.096 L1943.25 65.6895 L1956.61 65.6895 L1956.61 72.576 L1921.78 72.576 L1921.78 65.6895 Z" fill="#000000" fill-rule="evenodd" fill-opacity="1" /><path clip-path="url(#clip470)" d="M1990.64 17.4837 Q1984.32 17.4837 1981.12 23.7221 Q1977.96 29.92 1977.96 42.3968 Q1977.96 54.833 1981.12 61.0714 Q1984.32 67.2693 1990.64 67.2693 Q1997 67.2693 2000.16 61.0714 Q2003.36 54.833 2003.36 42.3968 Q2003.36 29.92 2000.16 23.7221 Q1997 17.4837 1990.64 17.4837 M1990.64 11.0023 Q2000.81 11.0023 2006.16 19.0636 Q2011.54 27.0843 2011.54 42.3968 Q2011.54 57.6687 2006.16 65.73 Q2000.81 73.7508 1990.64 73.7508 Q1980.47 73.7508 1975.09 65.73 Q1969.74 57.6687 1969.74 42.3968 Q1969.74 27.0843 1975.09 19.0636 Q1980.47 11.0023 1990.64 11.0023 Z" fill="#000000" fill-rule="evenodd" fill-opacity="1" /><path clip-path="url(#clip470)" d="M2025.93 62.2867 L2034.47 62.2867 L2034.47 72.576 L2025.93 72.576 L2025.93 62.2867 Z" fill="#000000" fill-rule="evenodd" fill-opacity="1" /><path clip-path="url(#clip470)" d="M2059.35 65.6895 L2087.9 65.6895 L2087.9 72.576 L2049.5 72.576 L2049.5 65.6895 Q2054.16 60.8689 2062.18 52.7671 Q2070.24 44.6248 2072.31 42.2752 Q2076.24 37.8598 2077.78 34.8216 Q2079.36 31.7429 2079.36 28.7857 Q2079.36 23.9651 2075.95 20.927 Q2072.59 17.8888 2067.16 17.8888 Q2063.32 17.8888 2059.02 19.2256 Q2054.77 20.5624 2049.91 23.2765 L2049.91 15.0127 Q2054.85 13.0277 2059.14 12.015 Q2063.44 11.0023 2067 11.0023 Q2076.4 11.0023 2081.99 15.7013 Q2087.58 20.4004 2087.58 28.2591 Q2087.58 31.9859 2086.16 35.3482 Q2084.78 38.6699 2081.1 43.2069 Q2080.09 44.3817 2074.66 50.0125 Q2069.23 55.6027 2059.35 65.6895 Z" fill="#000000" fill-rule="evenodd" fill-opacity="1" /><path clip-path="url(#clip470)" d="M2116.95 16.2279 Q2113.71 16.2279 2111.48 18.4964 Q2109.25 20.7244 2109.25 23.9651 Q2109.25 27.1654 2111.48 29.3934 Q2113.71 31.5808 2116.95 31.5808 Q2120.19 31.5808 2122.42 29.3934 Q2124.65 27.1654 2124.65 23.9651 Q2124.65 20.7649 2122.38 18.4964 Q2120.15 16.2279 2116.95 16.2279 M2116.95 11.0023 Q2119.54 11.0023 2121.93 12.015 Q2124.32 12.9872 2126.06 14.8506 Q2127.93 16.6735 2128.86 18.9825 Q2129.79 21.2916 2129.79 23.9651 Q2129.79 29.3123 2126.02 33.0392 Q2122.3 36.7255 2116.87 36.7255 Q2111.4 36.7255 2107.75 33.0797 Q2104.11 29.4339 2104.11 23.9651 Q2104.11 18.5369 2107.83 14.7696 Q2111.56 11.0023 2116.95 11.0023 Z" fill="#000000" fill-rule="evenodd" fill-opacity="1" /><circle clip-path="url(#clip472)" cx="280.231" cy="1383.8" r="14" fill="#009af9" fill-rule="evenodd" fill-opacity="1" stroke="#000000" stroke-opacity="1" stroke-width="3.2"/>
<circle clip-path="url(#clip472)" cx="447.911" cy="1309.13" r="14" fill="#009af9" fill-rule="evenodd" fill-opacity="1" stroke="#000000" stroke-opacity="1" stroke-width="3.2"/>
<circle clip-path="url(#clip472)" cx="615.591" cy="1352.38" r="14" fill="#009af9" fill-rule="evenodd" fill-opacity="1" stroke="#000000" stroke-opacity="1" stroke-width="3.2"/>
<circle clip-path="url(#clip472)" cx="783.271" cy="1380.67" r="14" fill="#009af9" fill-rule="evenodd" fill-opacity="1" stroke="#000000" stroke-opacity="1" stroke-width="3.2"/>
<circle clip-path="url(#clip472)" cx="950.951" cy="1340.68" r="14" fill="#009af9" fill-rule="evenodd" fill-opacity="1" stroke="#000000" stroke-opacity="1" stroke-width="3.2"/>
<circle clip-path="url(#clip472)" cx="1118.63" cy="1359.26" r="14" fill="#009af9" fill-rule="evenodd" fill-opacity="1" stroke="#000000" stroke-opacity="1" stroke-width="3.2"/>
<circle clip-path="url(#clip472)" cx="1286.31" cy="1175.68" r="14" fill="#009af9" fill-rule="evenodd" fill-opacity="1" stroke="#000000" stroke-opacity="1" stroke-width="3.2"/>
<circle clip-path="url(#clip472)" cx="1453.99" cy="297.338" r="14" fill="#009af9" fill-rule="evenodd" fill-opacity="1" stroke="#000000" stroke-opacity="1" stroke-width="3.2"/>
<circle clip-path="url(#clip472)" cx="1621.67" cy="568.802" r="14" fill="#009af9" fill-rule="evenodd" fill-opacity="1" stroke="#000000" stroke-opacity="1" stroke-width="3.2"/>
<circle clip-path="url(#clip472)" cx="1789.35" cy="1319.71" r="14" fill="#009af9" fill-rule="evenodd" fill-opacity="1" stroke="#000000" stroke-opacity="1" stroke-width="3.2"/>
<circle clip-path="url(#clip472)" cx="1957.03" cy="1338.16" r="14" fill="#009af9" fill-rule="evenodd" fill-opacity="1" stroke="#000000" stroke-opacity="1" stroke-width="3.2"/>
<circle clip-path="url(#clip472)" cx="2124.71" cy="1386.4" r="14" fill="#009af9" fill-rule="evenodd" fill-opacity="1" stroke="#000000" stroke-opacity="1" stroke-width="3.2"/>
<polyline clip-path="url(#clip472)" style="stroke:#e26f46; stroke-linecap:butt; stroke-linejoin:round; stroke-width:8; stroke-opacity:1; fill:none" points="
  280.231,1386.4 285.82,1386.4 291.41,1386.4 296.999,1386.4 302.588,1386.4 308.178,1386.4 313.767,1386.4 319.356,1386.4 324.946,1386.4 330.535,1386.4 
  336.124,1386.4 341.714,1386.4 347.303,1386.4 352.892,1386.4 358.482,1386.4 364.071,1386.4 369.66,1386.4 375.25,1386.4 380.839,1386.4 386.428,1386.4 
  392.018,1386.4 397.607,1386.4 403.196,1386.4 408.786,1386.4 414.375,1386.4 419.964,1386.4 425.554,1386.4 431.143,1386.4 436.732,1386.4 442.322,1386.4 
  447.911,1386.4 453.5,1386.4 459.09,1386.4 464.679,1386.4 470.268,1386.4 475.858,1386.4 481.447,1386.4 487.036,1386.4 492.626,1386.4 498.215,1386.4 
  503.804,1386.4 509.394,1386.4 514.983,1386.4 520.572,1386.4 526.162,1386.4 531.751,1386.4 537.34,1386.4 542.93,1386.4 548.519,1386.4 554.108,1386.4 
  559.698,1386.4 565.287,1386.4 570.876,1386.4 576.466,1386.4 582.055,1386.4 587.644,1386.4 593.234,1386.4 598.823,1386.4 604.412,1386.4 610.002,1386.4 
  615.591,1386.4 621.18,1386.4 626.77,1386.4 632.359,1386.4 637.948,1386.4 643.538,1386.4 649.127,1386.4 654.716,1386.4 660.306,1386.4 665.895,1386.4 
  671.484,1386.4 677.074,1386.4 682.663,1386.4 688.252,1386.4 693.842,1386.4 699.431,1386.4 705.02,1386.4 710.61,1386.4 716.199,1386.4 721.788,1386.4 
  727.378,1386.4 732.967,1386.4 738.556,1386.4 744.146,1386.4 749.735,1386.4 755.324,1386.4 760.914,1386.4 766.503,1386.4 772.092,1386.4 777.682,1386.4 
  783.271,1386.4 788.86,1386.4 794.45,1386.4 800.039,1386.4 805.628,1386.4 811.218,1386.4 816.807,1386.4 822.396,1386.4 827.986,1386.4 833.575,1386.4 
  839.164,1386.4 844.754,1386.4 850.343,1386.4 855.932,1386.4 861.522,1386.4 867.111,1386.4 872.7,1386.4 878.29,1386.4 883.879,1386.4 889.468,1386.4 
  895.058,1386.4 900.647,1386.4 906.236,1386.4 911.826,1386.4 917.415,1386.39 923.004,1386.39 928.594,1386.39 934.183,1386.39 939.772,1386.39 945.362,1386.39 
  950.951,1386.39 956.54,1386.39 962.13,1386.39 967.719,1386.38 973.308,1386.38 978.898,1386.38 984.487,1386.37 990.076,1386.36 995.666,1386.35 1001.26,1386.34 
  1006.84,1386.33 1012.43,1386.31 1018.02,1386.29 1023.61,1386.26 1029.2,1386.22 1034.79,1386.18 1040.38,1386.12 1045.97,1386.06 1051.56,1385.97 1057.15,1385.87 
  1062.74,1385.75 1068.33,1385.61 1073.92,1385.43 1079.51,1385.22 1085.1,1384.97 1090.68,1384.67 1096.27,1384.31 1101.86,1383.89 1107.45,1383.39 1113.04,1382.81 
  1118.63,1382.13 1124.22,1381.33 1129.81,1380.4 1135.4,1379.33 1140.99,1378.09 1146.58,1376.67 1152.17,1375.03 1157.76,1373.16 1163.35,1371.02 1168.94,1368.6 
  1174.52,1365.84 1180.11,1362.74 1185.7,1359.23 1191.29,1355.3 1196.88,1350.89 1202.47,1345.97 1208.06,1340.5 1213.65,1334.42 1219.24,1327.69 1224.83,1320.27 
  1230.42,1312.11 1236.01,1303.16 1241.6,1293.37 1247.19,1282.7 1252.78,1271.09 1258.36,1258.51 1263.95,1244.91 1269.54,1230.25 1275.13,1214.5 1280.72,1197.63 
  1286.31,1179.61 1291.9,1160.41 1297.49,1140.02 1303.08,1118.43 1308.67,1095.65 1314.26,1071.68 1319.85,1046.52 1325.44,1020.22 1331.03,992.79 1336.62,964.287 
  1342.2,934.761 1347.79,904.275 1353.38,872.904 1358.97,840.732 1364.56,807.853 1370.15,774.372 1375.74,740.403 1381.33,706.07 1386.92,671.504 1392.51,636.845 
  1398.1,602.241 1403.69,567.844 1409.28,533.812 1414.87,500.307 1420.46,467.494 1426.04,435.538 1431.63,404.606 1437.22,374.863 1442.81,346.47 1448.4,319.585 
  1453.99,294.36 1459.58,270.941 1465.17,249.463 1470.76,230.055 1476.35,212.832 1481.94,197.899 1487.53,185.346 1493.12,175.251 1498.71,167.675 1504.3,162.667 
  1509.88,160.256 1515.47,160.459 1521.06,163.274 1526.65,168.683 1532.24,176.653 1537.83,187.134 1543.42,200.061 1549.01,215.356 1554.6,232.925 1560.19,252.662 
  1565.78,274.449 1571.37,298.157 1576.96,323.649 1582.55,350.778 1588.14,379.391 1593.72,409.33 1599.31,440.431 1604.9,472.531 1610.49,505.462 1616.08,539.06 
  1621.67,573.159 1627.26,607.598 1632.85,642.221 1638.44,676.875 1644.03,711.413 1649.62,745.699 1655.21,779.6 1660.8,812.995 1666.39,845.771 1671.98,877.825 
  1677.56,909.064 1683.15,939.405 1688.74,968.776 1694.33,997.115 1699.92,1024.37 1705.51,1050.5 1711.1,1075.47 1716.69,1099.26 1722.28,1121.86 1727.87,1143.26 
  1733.46,1163.46 1739.05,1182.48 1744.64,1200.32 1750.23,1217.02 1755.82,1232.6 1761.4,1247.09 1766.99,1260.53 1772.58,1272.95 1778.17,1284.41 1783.76,1294.95 
  1789.35,1304.6 1794.94,1313.43 1800.53,1321.47 1806.12,1328.78 1811.71,1335.4 1817.3,1341.38 1822.89,1346.77 1828.48,1351.61 1834.07,1355.94 1839.66,1359.8 
  1845.24,1363.24 1850.83,1366.29 1856.42,1368.99 1862.01,1371.37 1867.6,1373.47 1873.19,1375.3 1878.78,1376.9 1884.37,1378.3 1889.96,1379.51 1895.55,1380.56 
  1901.14,1381.46 1906.73,1382.24 1912.32,1382.9 1917.91,1383.47 1923.5,1383.96 1929.08,1384.37 1934.67,1384.72 1940.26,1385.01 1945.85,1385.25 1951.44,1385.46 
  1957.03,1385.63 1962.62,1385.77 1968.21,1385.89 1973.8,1385.99 1979.39,1386.07 1984.98,1386.13 1990.57,1386.18 1996.16,1386.23 2001.75,1386.26 2007.34,1386.29 
  2012.92,1386.31 2018.51,1386.33 2024.1,1386.35 2029.69,1386.36 2035.28,1386.37 2040.87,1386.37 2046.46,1386.38 2052.05,1386.38 2057.64,1386.39 2063.23,1386.39 
  2068.82,1386.39 2074.41,1386.39 2080,1386.39 2085.59,1386.39 2091.18,1386.39 2096.76,1386.39 2102.35,1386.39 2107.94,1386.39 2113.53,1386.4 2119.12,1386.4 
  2124.71,1386.4 2130.3,1386.4 2135.89,1386.4 2141.48,1386.4 2147.07,1386.4 2152.66,1386.4 2158.25,1386.4 2163.84,1386.4 2169.43,1386.4 2175.02,1386.4 
  2180.6,1386.4 2186.19,1386.4 2191.78,1386.4 2197.37,1386.4 2202.96,1386.4 2208.55,1386.4 2214.14,1386.4 2219.73,1386.4 2225.32,1386.4 2230.91,1386.4 
  2236.5,1386.4 2242.09,1386.4 2247.68,1386.4 2253.27,1386.4 2258.86,1386.4 2264.44,1386.4 2270.03,1386.4 2275.62,1386.4 2281.21,1386.4 2286.8,1386.4 
  2292.39,1386.4 
  "/>
<path clip-path="url(#clip470)" d="
M1756.97 322.316 L2281.66 322.316 L2281.66 166.796 L1756.97 166.796  Z
  " fill="#ffffff" fill-rule="evenodd" fill-opacity="1"/>
<polyline clip-path="url(#clip470)" style="stroke:#000000; stroke-linecap:butt; stroke-linejoin:round; stroke-width:4; stroke-opacity:1; fill:none" points="
  1756.97,322.316 2281.66,322.316 2281.66,166.796 1756.97,166.796 1756.97,322.316 
  "/>
<circle clip-path="url(#clip470)" cx="1851.76" cy="218.636" r="23" fill="#009af9" fill-rule="evenodd" fill-opacity="1" stroke="#000000" stroke-opacity="1" stroke-width="5.12"/>
<path clip-path="url(#clip470)" d="M1946.56 209.99 L1950.81 209.99 L1956.14 230.221 L1961.44 209.99 L1966.46 209.99 L1971.79 230.221 L1977.09 209.99 L1981.35 209.99 L1974.56 235.916 L1969.54 235.916 L1963.96 214.666 L1958.36 235.916 L1953.34 235.916 L1946.56 209.99 Z" fill="#000000" fill-rule="evenodd" fill-opacity="1" /><path clip-path="url(#clip470)" d="M2007.5 243.786 L2007.5 247.096 L1982.87 247.096 L1982.87 243.786 L2007.5 243.786 Z" fill="#000000" fill-rule="evenodd" fill-opacity="1" /><path clip-path="url(#clip470)" d="M2026.62 223.856 L2025.61 218.508 Q2024.56 213.022 2020.44 213.022 Q2017.34 213.022 2015.93 215.569 Q2014.15 218.763 2014.15 222.976 Q2014.15 228.069 2015.88 230.499 Q2017.64 232.976 2020.44 232.976 Q2023.55 232.976 2025.21 228.045 L2026.62 223.856 M2029.01 216.772 L2031.3 209.99 L2035.1 209.99 L2030.35 224.041 L2031.28 229.11 Q2031.49 230.244 2032.3 231.194 Q2033.24 232.305 2033.99 232.305 L2036.02 232.305 L2036.02 235.916 L2033.48 235.916 Q2031.3 235.916 2029.36 233.971 Q2028.41 232.999 2028.01 230.962 Q2026.95 233.531 2024.77 235.545 Q2023.75 236.494 2020.44 236.494 Q2015 236.494 2012.37 232.976 Q2009.66 229.342 2009.66 222.976 Q2009.66 216.17 2012.6 212.976 Q2015.86 209.411 2020.44 209.411 Q2027.64 209.411 2029.01 216.772 Z" fill="#000000" fill-rule="evenodd" fill-opacity="1" /><polyline clip-path="url(#clip470)" style="stroke:#e26f46; stroke-linecap:butt; stroke-linejoin:round; stroke-width:4; stroke-opacity:1; fill:none" points="
  1780.66,270.476 1922.86,270.476 
  "/>
<path clip-path="url(#clip470)" d="M1970.58 273.728 L1970.58 275.811 L1951 275.811 Q1951.28 280.209 1953.64 282.524 Q1956.02 284.816 1960.26 284.816 Q1962.71 284.816 1965 284.214 Q1967.32 283.612 1969.59 282.409 L1969.59 286.436 Q1967.3 287.408 1964.89 287.918 Q1962.48 288.427 1960 288.427 Q1953.8 288.427 1950.17 284.816 Q1946.56 281.205 1946.56 275.047 Q1946.56 268.682 1949.98 264.955 Q1953.43 261.205 1959.26 261.205 Q1964.49 261.205 1967.53 264.585 Q1970.58 267.941 1970.58 273.728 M1966.32 272.478 Q1966.28 268.983 1964.36 266.899 Q1962.46 264.816 1959.31 264.816 Q1955.75 264.816 1953.59 266.83 Q1951.46 268.844 1951.14 272.501 L1966.32 272.478 Z" fill="#000000" fill-rule="evenodd" fill-opacity="1" /><path clip-path="url(#clip470)" d="M1994.1 262.594 L1994.1 266.622 Q1992.3 265.696 1990.35 265.233 Q1988.41 264.77 1986.32 264.77 Q1983.15 264.77 1981.56 265.742 Q1979.98 266.714 1979.98 268.659 Q1979.98 270.14 1981.12 270.997 Q1982.25 271.83 1985.68 272.594 L1987.13 272.918 Q1991.67 273.89 1993.57 275.672 Q1995.49 277.432 1995.49 280.603 Q1995.49 284.214 1992.62 286.321 Q1989.77 288.427 1984.77 288.427 Q1982.69 288.427 1980.42 288.01 Q1978.18 287.617 1975.68 286.807 L1975.68 282.409 Q1978.04 283.635 1980.33 284.26 Q1982.62 284.862 1984.87 284.862 Q1987.87 284.862 1989.49 283.844 Q1991.12 282.802 1991.12 280.927 Q1991.12 279.191 1989.93 278.265 Q1988.78 277.339 1984.82 276.483 L1983.34 276.135 Q1979.38 275.302 1977.62 273.589 Q1975.86 271.853 1975.86 268.844 Q1975.86 265.186 1978.45 263.196 Q1981.05 261.205 1985.81 261.205 Q1988.18 261.205 1990.26 261.552 Q1992.34 261.899 1994.1 262.594 Z" fill="#000000" fill-rule="evenodd" fill-opacity="1" /><path clip-path="url(#clip470)" d="M2006.49 254.469 L2006.49 261.83 L2015.26 261.83 L2015.26 265.14 L2006.49 265.14 L2006.49 279.214 Q2006.49 282.385 2007.34 283.288 Q2008.22 284.191 2010.88 284.191 L2015.26 284.191 L2015.26 287.756 L2010.88 287.756 Q2005.95 287.756 2004.08 285.927 Q2002.2 284.075 2002.2 279.214 L2002.2 265.14 L1999.08 265.14 L1999.08 261.83 L2002.2 261.83 L2002.2 254.469 L2006.49 254.469 Z" fill="#000000" fill-rule="evenodd" fill-opacity="1" /><path clip-path="url(#clip470)" d="M2020.86 261.83 L2025.12 261.83 L2025.12 287.756 L2020.86 287.756 L2020.86 261.83 M2020.86 251.737 L2025.12 251.737 L2025.12 257.131 L2020.86 257.131 L2020.86 251.737 Z" fill="#000000" fill-rule="evenodd" fill-opacity="1" /><path clip-path="url(#clip470)" d="M2054.22 266.807 Q2055.81 263.936 2058.04 262.571 Q2060.26 261.205 2063.27 261.205 Q2067.32 261.205 2069.52 264.052 Q2071.72 266.876 2071.72 272.108 L2071.72 287.756 L2067.43 287.756 L2067.43 272.247 Q2067.43 268.52 2066.11 266.714 Q2064.8 264.909 2062.09 264.909 Q2058.78 264.909 2056.86 267.108 Q2054.93 269.307 2054.93 273.103 L2054.93 287.756 L2050.65 287.756 L2050.65 272.247 Q2050.65 268.497 2049.33 266.714 Q2048.01 264.909 2045.26 264.909 Q2041.99 264.909 2040.07 267.131 Q2038.15 269.33 2038.15 273.103 L2038.15 287.756 L2033.87 287.756 L2033.87 261.83 L2038.15 261.83 L2038.15 265.858 Q2039.61 263.473 2041.65 262.339 Q2043.68 261.205 2046.49 261.205 Q2049.31 261.205 2051.28 262.64 Q2053.27 264.075 2054.22 266.807 Z" fill="#000000" fill-rule="evenodd" fill-opacity="1" /><path clip-path="url(#clip470)" d="M2091.99 274.723 Q2086.83 274.723 2084.84 275.904 Q2082.85 277.084 2082.85 279.932 Q2082.85 282.2 2084.33 283.543 Q2085.84 284.862 2088.41 284.862 Q2091.95 284.862 2094.08 282.362 Q2096.23 279.839 2096.23 275.672 L2096.23 274.723 L2091.99 274.723 M2100.49 272.964 L2100.49 287.756 L2096.23 287.756 L2096.23 283.821 Q2094.77 286.182 2092.6 287.316 Q2090.42 288.427 2087.27 288.427 Q2083.29 288.427 2080.93 286.205 Q2078.59 283.959 2078.59 280.209 Q2078.59 275.834 2081.51 273.612 Q2084.45 271.39 2090.26 271.39 L2096.23 271.39 L2096.23 270.973 Q2096.23 268.034 2094.29 266.436 Q2092.36 264.816 2088.87 264.816 Q2086.65 264.816 2084.54 265.348 Q2082.43 265.881 2080.49 266.946 L2080.49 263.01 Q2082.83 262.108 2085.03 261.668 Q2087.23 261.205 2089.31 261.205 Q2094.93 261.205 2097.71 264.122 Q2100.49 267.038 2100.49 272.964 Z" fill="#000000" fill-rule="evenodd" fill-opacity="1" /><path clip-path="url(#clip470)" d="M2113.48 254.469 L2113.48 261.83 L2122.25 261.83 L2122.25 265.14 L2113.48 265.14 L2113.48 279.214 Q2113.48 282.385 2114.33 283.288 Q2115.21 284.191 2117.87 284.191 L2122.25 284.191 L2122.25 287.756 L2117.87 287.756 Q2112.94 287.756 2111.07 285.927 Q2109.19 284.075 2109.19 279.214 L2109.19 265.14 L2106.07 265.14 L2106.07 261.83 L2109.19 261.83 L2109.19 254.469 L2113.48 254.469 Z" fill="#000000" fill-rule="evenodd" fill-opacity="1" /><path clip-path="url(#clip470)" d="M2137.9 264.816 Q2134.47 264.816 2132.48 267.501 Q2130.49 270.163 2130.49 274.816 Q2130.49 279.469 2132.46 282.154 Q2134.45 284.816 2137.9 284.816 Q2141.3 284.816 2143.29 282.131 Q2145.28 279.446 2145.28 274.816 Q2145.28 270.21 2143.29 267.524 Q2141.3 264.816 2137.9 264.816 M2137.9 261.205 Q2143.45 261.205 2146.62 264.816 Q2149.79 268.427 2149.79 274.816 Q2149.79 281.182 2146.62 284.816 Q2143.45 288.427 2137.9 288.427 Q2132.32 288.427 2129.15 284.816 Q2126 281.182 2126 274.816 Q2126 268.427 2129.15 264.816 Q2132.32 261.205 2137.9 261.205 Z" fill="#000000" fill-rule="evenodd" fill-opacity="1" /><path clip-path="url(#clip470)" d="M2171.88 265.811 Q2171.16 265.395 2170.3 265.21 Q2169.47 265.001 2168.45 265.001 Q2164.84 265.001 2162.9 267.362 Q2160.98 269.7 2160.98 274.098 L2160.98 287.756 L2156.69 287.756 L2156.69 261.83 L2160.98 261.83 L2160.98 265.858 Q2162.32 263.497 2164.47 262.362 Q2166.62 261.205 2169.7 261.205 Q2170.14 261.205 2170.67 261.274 Q2171.21 261.321 2171.85 261.436 L2171.88 265.811 Z" fill="#000000" fill-rule="evenodd" fill-opacity="1" /><path clip-path="url(#clip470)" d="M2204.54 251.737 L2204.54 255.279 L2200.47 255.279 Q2198.17 255.279 2197.27 256.205 Q2196.39 257.131 2196.39 259.538 L2196.39 261.83 L2203.41 261.83 L2203.41 265.14 L2196.39 265.14 L2196.39 287.756 L2192.11 287.756 L2192.11 265.14 L2188.04 265.14 L2188.04 261.83 L2192.11 261.83 L2192.11 260.024 Q2192.11 255.696 2194.12 253.728 Q2196.14 251.737 2200.51 251.737 L2204.54 251.737 Z" fill="#000000" fill-rule="evenodd" fill-opacity="1" /><path clip-path="url(#clip470)" d="M2208.1 261.83 L2212.36 261.83 L2212.36 287.756 L2208.1 287.756 L2208.1 261.83 M2208.1 251.737 L2212.36 251.737 L2212.36 257.131 L2208.1 257.131 L2208.1 251.737 Z" fill="#000000" fill-rule="evenodd" fill-opacity="1" /><path clip-path="url(#clip470)" d="M2225.49 254.469 L2225.49 261.83 L2234.26 261.83 L2234.26 265.14 L2225.49 265.14 L2225.49 279.214 Q2225.49 282.385 2226.35 283.288 Q2227.23 284.191 2229.89 284.191 L2234.26 284.191 L2234.26 287.756 L2229.89 287.756 Q2224.96 287.756 2223.08 285.927 Q2221.21 284.075 2221.21 279.214 L2221.21 265.14 L2218.08 265.14 L2218.08 261.83 L2221.21 261.83 L2221.21 254.469 L2225.49 254.469 Z" fill="#000000" fill-rule="evenodd" fill-opacity="1" /></svg>
